{
.appVersion = "3150";
DisplayStrings = (
"nx/Placeholder",
"/fl"
);
copyright = "Copyright 2016 The Rokkit Project Authors (https://github.com/googlefonts/RokkittFont)";
customParameters = (
{
name = fsType;
value = (
);
},
{
name = "Use Typo Metrics";
value = 1;
},
{
name = "Disable Last Change";
value = 1;
},
{
name = "Use Line Breaks";
value = 1;
},
{
name = glyphOrder;
value = (
A,
AE,
B,
C,
D,
E,
Eth,
F,
G,
H,
I,
J,
I_J.loclNLD,
K,
L,
Lslash,
M,
N,
Eng,
O,
Oslash,
OE,
P,
Thorn,
Q,
R,
S,
Germandbls,
Schwa,
T,
U,
Uhorn,
V,
W,
X,
Y,
Z,
a,
ae,
b,
c,
d,
eth,
e,
f,
g,
h,
i,
idotless,
i_j.loclNLD,
j,
jdotless,
k,
l,
lslash,
m,
n,
eng,
o,
oslash,
oe,
p,
thorn,
q,
r,
s,
germandbls,
schwa,
t,
u,
uhorn,
v,
w,
x,
y,
z
);
},
{
name = vendorID;
value = NEWT;
},
{
name = trademark;
value = "Rokkitt is a trademark of Vernon Adams and may be registered in certain jurisdictions.";
},
{
name = license;
value = "This Font Software is licensed under the SIL Open Font License, Version 1.1. This license is available with a FAQ at: http://scripts.sil.org/OFL";
},
{
name = licenseURL;
value = "http://scripts.sil.org/OFL";
},
{
name = Axes;
value = (
{
Name = Weight;
Tag = wght;
}
);
},
{
name = note;
value = "Interpolation passes:\012kgreenlandic\012f_f\012peseta\012s";
}
);
date = "2016-12-06 21:35:03 +0000";
designer = "Vernon Adams";
designerURL = "http://www.sansoxygen.com";
disablesNiceNames = 1;
familyName = Rokkitt;
featurePrefixes = (
{
automatic = 1;
code = "languagesystem DFLT dflt;

languagesystem latn dflt;
languagesystem latn AZE;
languagesystem latn CRT;
languagesystem latn KAZ;
languagesystem latn TAT;
languagesystem latn TRK;
languagesystem latn ROM;
languagesystem latn MOL;
languagesystem latn NLD;
languagesystem latn CAT;
";
name = Languagesystems;
}
);
features = (
{
automatic = 1;
code = "feature locl;
feature sups;
feature frac;
feature ordn;
";
name = aalt;
},
{
automatic = 1;
code = "lookup ccmp_Other_1 {

glyphs = (
{
color = 3;
glyphname = A;
layers = (
{
anchors = (
{
name = bottom;
position = "{274, 0}";
},
{
name = ogonek;
position = "{523, 0}";
},
{
name = top;
position = "{364, 583}";
}
);
background = {
anchors = (
{
name = bottom;
position = "{303, 0}";
},
{
name = ogonek;
position = "{554, 0}";
},
{
name = top;
position = "{303, 583}";
}
);
paths = (
{
closed = 1;
nodes = (
"187 0 LINE",
"187 22 LINE",
"107 22 LINE",
"189 249 LINE",
"183 243 LINE",
"431 243 LINE",
"416 249 LINE",
"498 22 LINE",
"418 22 LINE",
"418 0 LINE",
"604 0 LINE",
"604 22 LINE",
"529 22 LINE",
"331 561 LINE",
"411 561 LINE",
"411 583 LINE",
"195 583 LINE",
"195 561 LINE",
"275 561 LINE",
"77 22 LINE",
"2 22 LINE",
"2 0 LINE"
);
},
{
closed = 1;
nodes = (
"301 558 LINE",
"304 558 LINE",
"414 256 LINE",
"416 264 LINE",
"186 264 LINE",
"191 256 LINE"
);
}
);
};
layerId = "98C086B7-81AA-4491-8494-0C6A76849168";
paths = (
{
closed = 1;
nodes = (
"158 0 LINE",
"161 22 LINE",
"81 22 LINE",
"199 249 LINE",
"190 243 LINE",
"438 243 LINE",
"426 249 LINE",
"472 22 LINE",
"392 22 LINE",
"389 0 LINE",
"573 0 LINE",
"576 22 LINE",
"501 22 LINE",
"389 561 LINE",
"469 561 LINE",
"472 583 LINE",
"256 583 LINE",
"253 561 LINE",
"333 561 LINE",
"49 22 LINE",
"-26 22 LINE",
"-29 0 LINE"
);
},
{
closed = 1;
nodes = (
"360 558 LINE",
"363 558 LINE",
"425 256 LINE",
"427 264 LINE",
"197 264 LINE",
"202 256 LINE"
);
}
);
width = 606;
},
{
anchors = (
{
name = bottom;
position = "{336, 0}";
},
{
name = ogonek;
position = "{622, 0}";
},
{
name = top;
position = "{422, 583}";
}
);
background = {
anchors = (
{
name = bottom;
position = "{375, 0}";
},
{
name = ogonek;
position = "{668, 0}";
},
{
name = top;
position = "{376, 583}";
}
);
paths = (
{
closed = 1;
nodes = (
"317 0 LINE",
"317 120 LINE",
"262 120 LINE",
"302 243 LINE",
"243 195 LINE",
"507 195 LINE",
"448 243 LINE",
"488 120 LINE",
"433 120 LINE",
"433 0 LINE",
"737 0 LINE",
"737 120 LINE",
"687 120 LINE",
"563 463 LINE",
"618 463 LINE",
"618 583 LINE",
"135 583 LINE",
"135 463 LINE",
"190 463 LINE",
"66 120 LINE",
"16 120 LINE",
"16 0 LINE"
);
},
{
closed = 1;
nodes = (
"373 463 LINE",
"378 463 LINE",
"441 267 LINE",
"472 315 LINE",
"278 315 LINE",
"309 267 LINE"
);
}
);
};
layerId = "EFCDB4D9-E20B-4A8D-9DB5-150AD166B0AE";
paths = (
{
closed = 1;
nodes = (
"278 0 LINE",
"297 120 LINE",
"242 120 LINE",
"301 243 LINE",
"235 195 LINE",
"499 195 LINE",
"447 243 LINE",
"468 120 LINE",
"413 120 LINE",
"394 0 LINE",
"691 0 LINE",
"710 120 LINE",
"660 120 LINE",
"590 463 LINE",
"645 463 LINE",
"664 583 LINE",
"181 583 LINE",
"162 463 LINE",
"217 463 LINE",
"39 120 LINE",
"-11 120 LINE",
"-30 0 LINE"
);
},
{
closed = 1;
nodes = (
"407 463 LINE",
"412 463 LINE",
"444 267 LINE",
"483 315 LINE",
"289 315 LINE",
"312 267 LINE"
);
}
);
width = 725;
},
{
anchors = (
{
name = bottom;
position = "{305, 0}";
},
{
name = ogonek;
position = "{573, 0}";
},
{
name = top;
position = "{393, 583}";
}
);
background = {
anchors = (
{
name = bottom;
position = "{305, 0}";
},
{
name = ogonek;
position = "{573, 0}";
},
{
name = top;
position = "{393, 583}";
}
);
paths = (
{
closed = 1;
nodes = (
"218 0 LINE",
"229 83 LINE",
"162 83 LINE",
"250 245 LINE",
"213 213 LINE",
"469 213 LINE",
"437 245 LINE",
"470 83 LINE",
"403 83 LINE",
"392 0 LINE",
"632 0 LINE",
"643 83 LINE",
"581 83 LINE",
"490 500 LINE",
"557 500 LINE",
"568 583 LINE",
"219 583 LINE",
"208 500 LINE",
"275 500 LINE",
"44 83 LINE",
"-18 83 LINE",
"-29 0 LINE"
);
},
{
closed = 1;
nodes = (
"384 499 LINE",
"388 499 LINE",
"435 263 LINE",
"455 296 LINE",
"243 296 LINE",
"257 263 LINE"
);
}
);
};
guideLines = (
{
angle = 101.1509;
position = "{429, 291}";
},
{
angle = 61.9132;
position = "{273, 291}";
}
);
layerId = "14AB8F11-4722-4116-93B5-2CBF67C8CE3C";
paths = (
{
closed = 1;
nodes = (
"216 0 LINE",
"229 83 LINE",
"162 83 LINE",
"250 248 LINE",
"213 216 LINE",
"469 216 LINE",
"437 245 LINE",
"470 83 LINE",
"403 83 LINE",
"390 0 LINE",
"630 0 LINE",
"643 83 LINE",
"581 83 LINE",
"490 500 LINE",
"557 500 LINE",
"570 583 LINE",
"221 583 LINE",
"208 500 LINE",
"275 500 LINE",
"44 83 LINE",
"-18 83 LINE",
"-31 0 LINE"
);
},
{
closed = 1;
nodes = (
"384 499 LINE",
"388 499 LINE",
"435 263 LINE",
"455 294 LINE",
"243 294 LINE",
"257 263 LINE"
);
}
);
width = 662;
}
);
leftKerningGroup = A;
rightKerningGroup = A;
rightMetricsKey = "=|";
unicode = 0041;
userData = {
com.typemytype.robofont.layerData = {
b = {
anchors = (
);
components = (
);
contours = (
);
lib = {
};
name = A;
unicodes = (
);
width = 1383;
};
};
org.robofab.postScriptHintData = {
};
};
},
{
color = 3;
glyphname = AE;
layers = (
{
anchors = (
{
name = bottom;
position = "{405, 0}";
},
{
name = top;
position = "{583, 583}";
}
);
background = {
anchors = (
{
name = bottom;
position = "{405, 0}";
},
{
name = top;
position = "{583, 583}";
}
);
paths = (
{
closed = 1;
nodes = (
"145 0 LINE",
"148 22 LINE",
"68 22 LINE",
"227 249 LINE",
"218 243 LINE",
"452 243 LINE",
"440 249 LINE",
"436 22 LINE",
"351 22 LINE",
"348 0 LINE",
"830 0 LINE",
"833 165 LINE",
"807 165 LINE",
"804 22 LINE",
"464 22 LINE",
"469 286 LINE",
"685 286 LINE",
"683 196 LINE",
"708 196 LINE",
"712 393 LINE",
"686 393 LINE",
"685 308 LINE",
"470 308 LINE",
"474 561 LINE",
"799 561 LINE",
"797 423 LINE",
"823 423 LINE",
"825 583 LINE",
"340 583 LINE",
"337 561 LINE",
"417 561 LINE",
"37 22 LINE",
"-38 22 LINE",
"-41 0 LINE"
);
},
{
closed = 1;
nodes = (
"442 558 LINE",
"445 558 LINE",
"440 256 LINE",
"446 264 LINE",
"229 264 LINE",
"231 256 LINE"
);
}
);
};
layerId = "98C086B7-81AA-4491-8494-0C6A76849168";
paths = (
{
closed = 1;
nodes = (
"147 0 LINE",
"150 22 LINE",
"70 22 LINE",
"227 249 LINE",
"218 243 LINE",
"452 243 LINE",
"442 249 LINE",
"438 22 LINE",
"353 22 LINE",
"350 0 LINE",
"830 0 LINE",
"833 165 LINE",
"807 165 LINE",
"804 22 LINE",
"464 22 LINE",
"469 286 LINE",
"685 286 LINE",
"683 196 LINE",
"708 196 LINE",
"712 393 LINE",
"686 393 LINE",
"685 308 LINE",
"469 308 LINE",
"473 561 LINE",
"799 561 LINE",
"797 423 LINE",
"823 423 LINE",
"825 583 LINE",
"340 583 LINE",
"337 561 LINE",
"417 561 LINE",
"37 22 LINE",
"-38 22 LINE",
"-41 0 LINE"
);
},
{
closed = 1;
nodes = (
"444 558 LINE",
"447 558 LINE",
"442 256 LINE",
"446 264 LINE",
"229 264 LINE",
"233 256 LINE"
);
}
);
width = 901;
},
{
anchors = (
{
name = bottom;
position = "{458, 0}";
},
{
name = top;
position = "{604, 583}";
}
);
background = {
anchors = (
{
name = bottom;
position = "{458, 0}";
},
{
name = top;
position = "{604, 583}";
}
);
paths = (
{
closed = 1;
nodes = (
"274 0 LINE",
"293 120 LINE",
"238 120 LINE",
"318 243 LINE",
"244 195 LINE",
"508 195 LINE",
"463 223 LINE",
"462 120 LINE",
"412 120 LINE",
"393 0 LINE",
"978 0 LINE",
"982 215 LINE",
"857 215 LINE",
"855 120 LINE",
"657 120 LINE",
"659 235 LINE",
"707 235 LINE",
"706 185 LINE",
"806 185 LINE",
"810 400 LINE",
"710 400 LINE",
"709 355 LINE",
"661 355 LINE",
"663 463 LINE",
"841 463 LINE",
"840 373 LINE",
"965 373 LINE",
"968 583 LINE",
"239 583 LINE",
"220 463 LINE",
"275 463 LINE",
"37 120 LINE",
"-13 120 LINE",
"-32 0 LINE"
);
},
{
closed = 1;
nodes = (
"463 463 LINE",
"468 463 LINE",
"465 287 LINE",
"513 315 LINE",
"319 315 LINE",
"334 267 LINE"
);
}
);
};
layerId = "EFCDB4D9-E20B-4A8D-9DB5-150AD166B0AE";
paths = (
{
closed = 1;
nodes = (
"277 0 LINE",
"296 120 LINE",
"241 120 LINE",
"321 243 LINE",
"247 195 LINE",
"511 195 LINE",
"466 223 LINE",
"465 120 LINE",
"415 120 LINE",
"396 0 LINE",
"978 0 LINE",
"982 215 LINE",
"857 215 LINE",
"855 120 LINE",
"657 120 LINE",
"659 235 LINE",
"707 235 LINE",
"706 185 LINE",
"806 185 LINE",
"810 400 LINE",
"710 400 LINE",
"709 355 LINE",
"661 355 LINE",
"663 463 LINE",
"841 463 LINE",
"840 373 LINE",
"965 373 LINE",
"968 583 LINE",
"239 583 LINE",
"220 463 LINE",
"275 463 LINE",
"37 120 LINE",
"-13 120 LINE",
"-32 0 LINE"
);
},
{
closed = 1;
nodes = (
"466 463 LINE",
"471 463 LINE",
"468 287 LINE",
"516 315 LINE",
"322 315 LINE",
"337 267 LINE"
);
}
);
width = 1020;
},
{
anchors = (
{
name = bottom;
position = "{432, 0}";
},
{
name = top;
position = "{594, 583}";
}
);
background = {
anchors = (
{
name = bottom;
position = "{432, 0}";
},
{
name = top;
position = "{594, 583}";
}
);
paths = (
{
closed = 1;
nodes = (
"212 0 LINE",
"223 83 LINE",
"156 83 LINE",
"274 245 LINE",
"233 213 LINE",
"482 213 LINE",
"454 233 LINE",
"452 83 LINE",
"384 83 LINE",
"373 0 LINE",
"904 0 LINE",
"908 196 LINE",
"832 196 LINE",
"830 83 LINE",
"561 83 LINE",
"564 254 LINE",
"696 254 LINE",
"695 189 LINE",
"757 189 LINE",
"761 397 LINE",
"698 397 LINE",
"697 337 LINE",
"565 337 LINE",
"568 500 LINE",
"820 500 LINE",
"819 392 LINE",
"894 392 LINE",
"897 583 LINE",
"290 583 LINE",
"279 500 LINE",
"346 500 LINE",
"37 83 LINE",
"-25 83 LINE",
"-36 0 LINE"
);
},
{
closed = 1;
nodes = (
"455 499 LINE",
"459 499 LINE",
"455 275 LINE",
"481 296 LINE",
"276 296 LINE",
"285 263 LINE"
);
}
);
};
guideLines = (
{
angle = 89.0383;
position = "{765, 397}";
}
);
layerId = "14AB8F11-4722-4116-93B5-2CBF67C8CE3C";
paths = (
{
closed = 1;
nodes = (
"210 0 LINE",
"223 83 LINE",
"156 83 LINE",
"274 245 LINE",
"233 213 LINE",
"482 213 LINE",
"455 233 LINE",
"452 83 LINE",
"384 83 LINE",
"371 0 LINE",
"904 0 LINE",
"908 196 LINE",
"832 196 LINE",
"830 83 LINE",
"561 83 LINE",
"564 254 LINE",
"693 254 LINE",
"692 189 LINE",
"762 189 LINE",
"765 397 LINE",
"695 397 LINE",
"694 337 LINE",
"566 337 LINE",
"568 500 LINE",
"821 500 LINE",
"819 392 LINE",
"895 392 LINE",
"897 583 LINE",
"292 583 LINE",
"279 500 LINE",
"346 500 LINE",
"37 83 LINE",
"-25 83 LINE",
"-38 0 LINE"
);
},
{
closed = 1;
nodes = (
"455 499 LINE",
"459 499 LINE",
"455 275 LINE",
"481 296 LINE",
"276 296 LINE",
"285 263 LINE"
);
}
);
width = 960.5;
}
);
leftKerningGroup = AE;
rightKerningGroup = AE;
unicode = 00C6;
userData = {
com.typemytype.robofont.layerData = {
b = {
anchors = (
);
components = (
);
contours = (
);
lib = {
};
name = AE;
unicodes = (
);
width = 2243;
};
};
org.robofab.postScriptHintData = {
};
};
},
{
color = 3;
glyphname = B;
layers = (
{
anchors = (
{
name = top;
position = "{350, 583}";
}
);
background = {
anchors = (
{
name = top;
position = "{289, 583}";
}
);
paths = (
{
closed = 1;
nodes = (
"401 0 LINE SMOOTH",
"510 0 OFFCURVE",
"570 58 OFFCURVE",
"570 159 CURVE SMOOTH",
"570 234 OFFCURVE",
"522 309 OFFCURVE",
"417 311 CURVE",
"423 306 LINE",
"479 309 OFFCURVE",
"537 359 OFFCURVE",
"537 441 CURVE SMOOTH",
"537 542 OFFCURVE",
"475 583 OFFCURVE",
"368 583 CURVE SMOOTH",
"40 583 LINE",
"40 561 LINE",
"125 561 LINE",
"125 22 LINE",
"40 22 LINE",
"40 0 LINE"
);
},
{
closed = 1;
nodes = (
"155 296 LINE",
"393 296 LINE SMOOTH",
"497 296 OFFCURVE",
"538 235 OFFCURVE",
"538 159 CURVE SMOOTH",
"538 76 OFFCURVE",
"497 22 OFFCURVE",
"393 22 CURVE SMOOTH",
"155 22 LINE"
);
},
{
closed = 1;
nodes = (
"155 561 LINE",
"363 561 LINE SMOOTH",
"463 561 OFFCURVE",
"505 524 OFFCURVE",
"505 440 CURVE SMOOTH",
"505 369 OFFCURVE",
"463 318 OFFCURVE",
"384 318 CURVE SMOOTH",
"155 318 LINE"
);
}
);
};
layerId = "98C086B7-81AA-4491-8494-0C6A76849168";
paths = (
{
closed = 1;
nodes = (
"375 0 LINE SMOOTH",
"484 0 OFFCURVE",
"548 55 OFFCURVE",
"563 149 CURVE SMOOTH",
"576 232 OFFCURVE",
"540 307 OFFCURVE",
"435 311 CURVE",
"440 306 LINE",
"497 309 OFFCURVE",
"563 356 OFFCURVE",
"574 431 CURVE SMOOTH",
"591 533 OFFCURVE",
"536 583 OFFCURVE",
"419 583 CURVE SMOOTH",
"101 583 LINE",
"98 561 LINE",
"183 561 LINE",
"97 22 LINE",
"12 22 LINE",
"9 0 LINE"
);
},
{
closed = 1;
nodes = (
"171 296 LINE",
"399 296 LINE SMOOTH",
"518 296 OFFCURVE",
"544 235 OFFCURVE",
"531 149 CURVE SMOOTH",
"519 73 OFFCURVE",
"474 22 OFFCURVE",
"370 22 CURVE SMOOTH",
"127 22 LINE"
);
},
{
closed = 1;
nodes = (
"213 561 LINE",
"411 561 LINE SMOOTH",
"524 561 OFFCURVE",
"557 524 OFFCURVE",
"542 430 CURVE SMOOTH",
"532 366 OFFCURVE",
"482 318 OFFCURVE",
"403 318 CURVE SMOOTH",
"174 318 LINE"
);
}
);
width = 630;
},
{
anchors = (
{
name = top;
position = "{388, 583}";
}
);
background = {
paths = (
{
closed = 1;
nodes = (
"397 0 LINE SMOOTH",
"545 0 OFFCURVE",
"625 52 OFFCURVE",
"641 151 CURVE SMOOTH",
"657 252 OFFCURVE",
"609 307 OFFCURVE",
"510 313 CURVE",
"513 305 LINE",
"590 317 OFFCURVE",
"646 360 OFFCURVE",
"657 427 CURVE SMOOTH",
"673 531 OFFCURVE",
"613 583 OFFCURVE",
"482 583 CURVE SMOOTH",
"90 583 LINE",
"71 463 LINE",
"121 463 LINE",
"67 120 LINE",
"17 120 LINE",
"-2 0 LINE"
);
},
{
closed = 1;
nodes = (
"287 245 LINE",
"374 245 LINE SMOOTH",
"424 245 OFFCURVE",
"446 224 OFFCURVE",
"439 179 CURVE SMOOTH",
"433 140 OFFCURVE",
"408 120 OFFCURVE",
"362 120 CURVE SMOOTH",
"267 120 LINE"
);
},
{
closed = 1;
nodes = (
"321 463 LINE",
"398 463 LINE SMOOTH",
"436 463 OFFCURVE",
"454 447 OFFCURVE",
"448 414 CURVE SMOOTH",
"443 381 OFFCURVE",
"424 363 OFFCURVE",
"392 363 CURVE SMOOTH",
"305 363 LINE"
);
}
);
};
layerId = "EFCDB4D9-E20B-4A8D-9DB5-150AD166B0AE";
paths = (
{
closed = 1;
nodes = (
"397 0 LINE SMOOTH",
"545 0 OFFCURVE",
"625 52 OFFCURVE",
"641 151 CURVE SMOOTH",
"657 252 OFFCURVE",
"609 307 OFFCURVE",
"510 313 CURVE",
"513 305 LINE",
"595 318 OFFCURVE",
"646 360 OFFCURVE",
"657 427 CURVE SMOOTH",
"673 531 OFFCURVE",
"603 583 OFFCURVE",
"482 583 CURVE SMOOTH",
"90 583 LINE",
"71 463 LINE",
"121 463 LINE",
"67 120 LINE",
"17 120 LINE",
"-2 0 LINE"
);
},
{
closed = 1;
nodes = (
"287 245 LINE",
"374 245 LINE SMOOTH",
"424 245 OFFCURVE",
"446 223 OFFCURVE",
"439 179 CURVE SMOOTH",
"433 140 OFFCURVE",
"408 120 OFFCURVE",
"362 120 CURVE SMOOTH",
"267 120 LINE"
);
},
{
closed = 1;
nodes = (
"321 463 LINE",
"398 463 LINE SMOOTH",
"433 463 OFFCURVE",
"454 447 OFFCURVE",
"448 410 CURVE SMOOTH",
"443 381 OFFCURVE",
"426 363 OFFCURVE",
"392 363 CURVE SMOOTH",
"305 363 LINE"
);
}
);
width = 671;
},
{
anchors = (
{
name = top;
position = "{368, 583}";
}
);
background = {
anchors = (
{
name = top;
position = "{368, 583}";
}
);
paths = (
{
closed = 1;
nodes = (
"385 0 LINE SMOOTH",
"514 0 OFFCURVE",
"586 53 OFFCURVE",
"601 150 CURVE SMOOTH",
"616 245 OFFCURVE",
"574 307 OFFCURVE",
"472 312 CURVE",
"476 305 LINE",
"545 315 OFFCURVE",
"604 359 OFFCURVE",
"615 429 CURVE SMOOTH",
"631 532 OFFCURVE",
"569 583 OFFCURVE",
"450 583 CURVE SMOOTH",
"95 583 LINE",
"84 500 LINE",
"151 500 LINE",
"81 83 LINE",
"14 83 LINE",
"3 0 LINE"
);
},
{
closed = 1;
nodes = (
"228 264 LINE",
"386 264 LINE SMOOTH",
"470 264 OFFCURVE",
"494 228 OFFCURVE",
"484 168 CURVE SMOOTH",
"475 115 OFFCURVE",
"440 83 OFFCURVE",
"365 83 CURVE SMOOTH",
"196 83 LINE"
);
},
{
closed = 1;
nodes = (
"266 500 LINE",
"404 500 LINE SMOOTH",
"478 500 OFFCURVE",
"505 476 OFFCURVE",
"494 418 CURVE SMOOTH",
"487 375 OFFCURVE",
"453 346 OFFCURVE",
"397 346 CURVE SMOOTH",
"239 346 LINE"
);
}
);
};
layerId = "14AB8F11-4722-4116-93B5-2CBF67C8CE3C";
paths = (
{
closed = 1;
nodes = (
"385 0 LINE SMOOTH",
"514 0 OFFCURVE",
"586 53 OFFCURVE",
"601 150 CURVE SMOOTH",
"616 245 OFFCURVE",
"574 307 OFFCURVE",
"472 312 CURVE",
"476 305 LINE",
"545 315 OFFCURVE",
"604 359 OFFCURVE",
"615 429 CURVE SMOOTH",
"631 532 OFFCURVE",
"569 583 OFFCURVE",
"450 583 CURVE SMOOTH",
"96 583 LINE",
"83 500 LINE",
"150 500 LINE",
"84 83 LINE",
"17 83 LINE",
"4 0 LINE"
);
},
{
closed = 1;
nodes = (
"228 264 LINE",
"386 264 LINE SMOOTH",
"470 264 OFFCURVE",
"494 228 OFFCURVE",
"484 168 CURVE SMOOTH",
"475 115 OFFCURVE",
"440 83 OFFCURVE",
"365 83 CURVE SMOOTH",
"199 83 LINE"
);
},
{
closed = 1;
nodes = (
"266 500 LINE",
"404 500 LINE SMOOTH",
"478 500 OFFCURVE",
"505 476 OFFCURVE",
"494 418 CURVE SMOOTH",
"487 375 OFFCURVE",
"453 346 OFFCURVE",
"397 346 CURVE SMOOTH",
"241 346 LINE"
);
}
);
width = 650;
}
);
leftKerningGroup = H;
leftMetricsKey = H;
rightKerningGroup = B;
unicode = 0042;
userData = {
com.typemytype.robofont.layerData = {
b = {
anchors = (
);
components = (
);
contours = (
{
points = (
{
segmentType = line;
smooth = 0;
x = 353;
y = 1095;
},
{
segmentType = line;
smooth = 1;
x = 740;
y = 1095;
},
{
smooth = 0;
x = 917;
y = 1095;
},
{
smooth = 0;
x = 1004;
y = 983;
},
{
segmentType = curve;
smooth = 1;
x = 1004;
y = 868;
},
{
smooth = 0;
x = 1004;
y = 751;
},
{
smooth = 0;
x = 928;
y = 634;
},
{
segmentType = curve;
smooth = 1;
x = 784;
y = 634;
},
{
segmentType = line;
smooth = 0;
x = 353;
y = 634;
}
);
},
{
points = (
{
segmentType = line;
smooth = 0;
x = 353;
y = 573;
},
{
segmentType = line;
smooth = 1;
x = 793;
y = 573;
},
{
smooth = 0;
x = 979;
y = 573;
},
{
smooth = 0;
x = 1072;
y = 439;
},
{
segmentType = curve;
smooth = 1;
x = 1072;
y = 320;
},
{
smooth = 0;
x = 1072;
y = 187;
},
{
smooth = 0;
x = 985;
y = 58;
},
{
segmentType = curve;
smooth = 1;
x = 807;
y = 58;
},
{
segmentType = line;
smooth = 0;
x = 353;
y = 58;
}
);
},
{
points = (
{
segmentType = line;
smooth = 1;
x = 807;
y = 0;
},
{
smooth = 0;
x = 1031;
y = 0;
},
{
smooth = 0;
x = 1146;
y = 158;
},
{
segmentType = curve;
smooth = 1;
x = 1146;
y = 316;
},
{
smooth = 0;
x = 1146;
y = 439;
},
{
smooth = 0;
x = 1074;
y = 568;
},
{
segmentType = curve;
smooth = 0;
x = 919;
y = 611;
},
{
smooth = 0;
x = 1029;
y = 669;
},
{
smooth = 0;
x = 1079;
y = 769;
},
{
segmentType = curve;
smooth = 1;
x = 1079;
y = 870;
},
{
smooth = 0;
x = 1079;
y = 1012;
},
{
smooth = 0;
x = 964;
y = 1154;
},
{
segmentType = curve;
smooth = 1;
x = 740;
y = 1154;
},
{
segmentType = line;
smooth = 0;
x = 122;
y = 1154;
},
{
segmentType = line;
smooth = 0;
x = 122;
y = 1095;
},
{
segmentType = line;
smooth = 0;
x = 278;
y = 1095;
},
{
segmentType = line;
smooth = 0;
x = 278;
y = 58;
},
{
segmentType = line;
smooth = 0;
x = 135;
y = 58;
},
{
segmentType = line;
smooth = 0;
x = 135;
y = 0;
}
);
}
);
lib = {
};
name = B;
unicodes = (
);
width = 1354;
};
};
org.robofab.postScriptHintData = {
};
};
},
{
color = 3;
glyphname = C;
layers = (
{
anchors = (
{
name = bottom;
position = "{328, 0}";
},
{
name = top;
position = "{413, 583}";
}
);
background = {
paths = (
{
closed = 1;
nodes = (
"458 -10 OFFCURVE",
"535 29 OFFCURVE",
"605 123 CURVE",
"583 139 LINE",
"519 49 OFFCURVE",
"452 15 OFFCURVE",
"341 15 CURVE SMOOTH",
"187 15 OFFCURVE",
"94 102 OFFCURVE",
"94 245 CURVE SMOOTH",
"94 440 OFFCURVE",
"215 569 OFFCURVE",
"398 569 CURVE SMOOTH",
"513 569 OFFCURVE",
"593 516 OFFCURVE",
"619 423 CURVE",
"642 423 LINE",
"667 583 LINE",
"641 583 LINE",
"619 445 LINE",
"630 445 LINE",
"608 537 OFFCURVE",
"520 594 OFFCURVE",
"400 594 CURVE SMOOTH",
"197 594 OFFCURVE",
"62 455 OFFCURVE",
"62 245 CURVE SMOOTH",
"62 89 OFFCURVE",
"169 -10 OFFCURVE",
"339 -10 CURVE SMOOTH"
);
}
);
};
layerId = "98C086B7-81AA-4491-8494-0C6A76849168";
paths = (
{
closed = 1;
nodes = (
"458 -10 OFFCURVE",
"535 29 OFFCURVE",
"605 123 CURVE",
"583 139 LINE",
"519 49 OFFCURVE",
"452 15 OFFCURVE",
"341 15 CURVE SMOOTH",
"187 15 OFFCURVE",
"94 102 OFFCURVE",
"94 245 CURVE SMOOTH",
"94 440 OFFCURVE",
"215 569 OFFCURVE",
"396 569 CURVE SMOOTH",
"514 569 OFFCURVE",
"591 516 OFFCURVE",
"617 423 CURVE",
"640 423 LINE",
"665 583 LINE",
"639 583 LINE",
"617 445 LINE",
"628 445 LINE",
"604 537 OFFCURVE",
"516 594 OFFCURVE",
"398 594 CURVE SMOOTH",
"196 594 OFFCURVE",
"62 455 OFFCURVE",
"62 245 CURVE SMOOTH",
"62 89 OFFCURVE",
"168 -10 OFFCURVE",
"339 -10 CURVE SMOOTH"
);
}
);
width = 669;
},
{
anchors = (
{
name = bottom;
position = "{332, 0}";
},
{
name = top;
position = "{399, 583}";
}
);
background = {
anchors = (
{
name = bottom;
position = "{1132, 0}";
},
{
name = top;
position = "{1199, 583}";
}
);
paths = (
{
closed = 1;
nodes = (
"1281 -10 OFFCURVE",
"1400 66 OFFCURVE",
"1455 196 CURVE",
"1318 256 LINE",
"1279 169 OFFCURVE",
"1227 130 OFFCURVE",
"1156 130 CURVE SMOOTH",
"1069 130 OFFCURVE",
"1032 189 OFFCURVE",
"1048 292 CURVE SMOOTH",
"1064 392 OFFCURVE",
"1130 454 OFFCURVE",
"1218 454 CURVE SMOOTH",
"1282 454 OFFCURVE",
"1323 424 OFFCURVE",
"1340 363 CURVE",
"1465 363 LINE",
"1500 583 LINE",
"1370 583 LINE",
"1353 478 LINE",
"1395 448 LINE",
"1375 546 OFFCURVE",
"1307 594 OFFCURVE",
"1193 594 CURVE SMOOTH",
"1020 594 OFFCURVE",
"871 474 OFFCURVE",
"842 290 CURVE SMOOTH",
"813 110 OFFCURVE",
"918 -10 OFFCURVE",
"1126 -10 CURVE SMOOTH"
);
},
{
closed = 1;
nodes = (
"593 -10 OFFCURVE",
"720 152 OFFCURVE",
"720 334 CURVE SMOOTH",
"720 490 OFFCURVE",
"602 594 OFFCURVE",
"409 594 CURVE SMOOTH",
"166 594 OFFCURVE",
"40 432 OFFCURVE",
"40 250 CURVE SMOOTH",
"40 95 OFFCURVE",
"157 -10 OFFCURVE",
"349 -10 CURVE SMOOTH"
);
},
{
closed = 1;
nodes = (
"284 130 OFFCURVE",
"246 179 OFFCURVE",
"246 250 CURVE SMOOTH",
"246 349 OFFCURVE",
"292 454 OFFCURVE",
"400 454 CURVE SMOOTH",
"475 454 OFFCURVE",
"514 405 OFFCURVE",
"514 334 CURVE SMOOTH",
"514 235 OFFCURVE",
"468 130 OFFCURVE",
"358 130 CURVE SMOOTH"
);
}
);
};
layerId = "EFCDB4D9-E20B-4A8D-9DB5-150AD166B0AE";
paths = (
{
closed = 1;
nodes = (
"507 -10 OFFCURVE",
"608 60 OFFCURVE",
"655 196 CURVE",
"518 256 LINE",
"490 172 OFFCURVE",
"439 130 OFFCURVE",
"368 130 CURVE SMOOTH",
"294 130 OFFCURVE",
"246 178 OFFCURVE",
"246 254 CURVE SMOOTH",
"246 364 OFFCURVE",
"305 454 OFFCURVE",
"412 454 CURVE SMOOTH",
"476 454 OFFCURVE",
"523 421 OFFCURVE",
"540 363 CURVE",
"665 363 LINE",
"700 583 LINE",
"570 583 LINE",
"553 478 LINE",
"595 448 LINE",
"576 542 OFFCURVE",
"490 594 OFFCURVE",
"371 594 CURVE SMOOTH",
"171 594 OFFCURVE",
"40 454 OFFCURVE",
"40 255 CURVE SMOOTH",
"40 100 OFFCURVE",
"151 -10 OFFCURVE",
"341 -10 CURVE SMOOTH"
);
}
);
width = 675;
},
{
anchors = (
{
name = bottom;
position = "{330, 0}";
},
{
name = top;
position = "{406, 583}";
}
);
background = {
paths = (
{
closed = 1;
nodes = (
"492 -10 OFFCURVE",
"578 39 OFFCURVE",
"637 164 CURVE",
"551 212 LINE",
"512 126 OFFCURVE",
"451 89 OFFCURVE",
"360 89 CURVE SMOOTH",
"242 89 OFFCURVE",
"170 154 OFFCURVE",
"170 269 CURVE SMOOTH",
"170 407 OFFCURVE",
"253 495 OFFCURVE",
"391 495 CURVE SMOOTH",
"476 495 OFFCURVE",
"553 457 OFFCURVE",
"579 386 CURVE",
"653 386 LINE",
"684 583 LINE",
"606 583 LINE",
"587 463 LINE",
"612 447 LINE",
"588 540 OFFCURVE",
"508 594 OFFCURVE",
"385 594 CURVE SMOOTH",
"165 594 OFFCURVE",
"51 438 OFFCURVE",
"51 264 CURVE SMOOTH",
"51 94 OFFCURVE",
"173 -10 OFFCURVE",
"354 -10 CURVE SMOOTH"
);
}
);
};
layerId = "14AB8F11-4722-4116-93B5-2CBF67C8CE3C";
paths = (
{
closed = 1;
nodes = (
"492 -10 OFFCURVE",
"578 39 OFFCURVE",
"637 164 CURVE",
"551 212 LINE",
"512 126 OFFCURVE",
"451 87 OFFCURVE",
"360 87 CURVE SMOOTH",
"242 87 OFFCURVE",
"170 154 OFFCURVE",
"170 269 CURVE SMOOTH",
"170 407 OFFCURVE",
"253 497 OFFCURVE",
"391 497 CURVE SMOOTH",
"476 497 OFFCURVE",
"553 457 OFFCURVE",
"579 386 CURVE",
"653 386 LINE",
"684 583 LINE",
"606 583 LINE",
"587 463 LINE",
"612 447 LINE",
"588 540 OFFCURVE",
"508 594 OFFCURVE",
"385 594 CURVE SMOOTH",
"165 594 OFFCURVE",
"51 438 OFFCURVE",
"51 264 CURVE SMOOTH",
"51 94 OFFCURVE",
"173 -10 OFFCURVE",
"354 -10 CURVE SMOOTH"
);
}
);
width = 672;
}
);
leftKerningGroup = O;
leftMetricsKey = O;
rightKerningGroup = C;
unicode = 0043;
userData = {
com.typemytype.robofont.layerData = {
b = {
anchors = (
);
components = (
);
contours = (
);
lib = {
};
name = C;
unicodes = (
);
width = 1411;
};
};
org.robofab.postScriptHintData = {
};
};
},
{
color = 3;
glyphname = D;
layers = (
{
anchors = (
{
name = bottom;
position = "{315, 0}";
},
{
name = top;
position = "{407, 583}";
}
);
background = {
paths = (
{
closed = 1;
nodes = (
"307 0 LINE SMOOTH",
"543 0 OFFCURVE",
"626 126 OFFCURVE",
"650 280 CURVE SMOOTH",
"678 456 OFFCURVE",
"608 583 OFFCURVE",
"376 583 CURVE SMOOTH",
"101 583 LINE",
"98 561 LINE",
"183 561 LINE",
"97 22 LINE",
"12 22 LINE",
"9 0 LINE"
);
},
{
closed = 1;
nodes = (
"213 561 LINE",
"371 561 LINE SMOOTH",
"591 561 OFFCURVE",
"644 443 OFFCURVE",
"618 279 CURVE SMOOTH",
"595 136 OFFCURVE",
"524 22 OFFCURVE",
"305 22 CURVE SMOOTH",
"127 22 LINE"
);
}
);
};
layerId = "98C086B7-81AA-4491-8494-0C6A76849168";
paths = (
{
closed = 1;
nodes = (
"307 0 LINE SMOOTH",
"592 0 OFFCURVE",
"656 196 OFFCURVE",
"656 349 CURVE SMOOTH",
"656 488 OFFCURVE",
"576 583 OFFCURVE",
"376 583 CURVE SMOOTH",
"101 583 LINE",
"98 561 LINE",
"183 561 LINE",
"97 22 LINE",
"12 22 LINE",
"9 0 LINE"
);
},
{
closed = 1;
nodes = (
"213 561 LINE",
"371 561 LINE SMOOTH",
"558 561 OFFCURVE",
"624 476 OFFCURVE",
"624 350 CURVE SMOOTH",
"624 201 OFFCURVE",
"568 22 OFFCURVE",
"305 22 CURVE SMOOTH",
"127 22 LINE"
);
}
);
width = 687;
},
{
anchors = (
{
name = bottom;
position = "{323, 0}";
},
{
name = top;
position = "{423, 583}";
}
);
background = {
paths = (
{
closed = 1;
nodes = (
"351 0 LINE SMOOTH",
"568 0 OFFCURVE",
"689 107 OFFCURVE",
"716 275 CURVE SMOOTH",
"747 473 OFFCURVE",
"646 583 OFFCURVE",
"423 583 CURVE SMOOTH",
"90 583 LINE",
"71 463 LINE",
"121 463 LINE",
"67 120 LINE",
"17 120 LINE",
"-2 0 LINE"
);
},
{
closed = 1;
nodes = (
"321 463 LINE",
"386 463 LINE SMOOTH",
"493 463 OFFCURVE",
"531 409 OFFCURVE",
"511 281 CURVE SMOOTH",
"494 176 OFFCURVE",
"444 120 OFFCURVE",
"347 120 CURVE SMOOTH",
"267 120 LINE"
);
}
);
};
layerId = "EFCDB4D9-E20B-4A8D-9DB5-150AD166B0AE";
paths = (
{
closed = 1;
nodes = (
"351 0 LINE SMOOTH",
"582 0 OFFCURVE",
"721 127 OFFCURVE",
"721 341 CURVE SMOOTH",
"721 497 OFFCURVE",
"620 583 OFFCURVE",
"423 583 CURVE SMOOTH",
"90 583 LINE",
"71 463 LINE",
"121 463 LINE",
"67 120 LINE",
"17 120 LINE",
"-2 0 LINE"
);
},
{
closed = 1;
nodes = (
"321 463 LINE",
"386 463 LINE SMOOTH",
"475 463 OFFCURVE",
"516 426 OFFCURVE",
"516 340 CURVE SMOOTH",
"516 252 OFFCURVE",
"488 120 OFFCURVE",
"347 120 CURVE SMOOTH",
"267 120 LINE"
);
}
);
width = 731;
},
{
anchors = (
{
name = bottom;
position = "{319, 0}";
},
{
name = top;
position = "{415, 583}";
}
);
background = {
anchors = (
{
name = bottom;
position = "{319, 0}";
},
{
name = top;
position = "{415, 583}";
}
);
paths = (
{
closed = 1;
nodes = (
"329 0 LINE SMOOTH",
"587 0 OFFCURVE",
"689 153 OFFCURVE",
"689 344 CURVE SMOOTH",
"689 494 OFFCURVE",
"598 583 OFFCURVE",
"400 583 CURVE SMOOTH",
"96 583 LINE",
"85 500 LINE",
"152 500 LINE",
"82 83 LINE",
"15 83 LINE",
"4 0 LINE"
);
},
{
closed = 1;
nodes = (
"267 500 LINE",
"379 500 LINE SMOOTH",
"517 500 OFFCURVE",
"570 445 OFFCURVE",
"570 344 CURVE SMOOTH",
"570 233 OFFCURVE",
"528 83 OFFCURVE",
"326 83 CURVE SMOOTH",
"197 83 LINE"
);
}
);
};
layerId = "14AB8F11-4722-4116-93B5-2CBF67C8CE3C";
paths = (
{
closed = 1;
nodes = (
"331 0 LINE SMOOTH",
"589 0 OFFCURVE",
"691 153 OFFCURVE",
"691 344 CURVE SMOOTH",
"691 494 OFFCURVE",
"600 583 OFFCURVE",
"402 583 CURVE SMOOTH",
"96 583 LINE",
"83 500 LINE",
"150 500 LINE",
"84 83 LINE",
"17 83 LINE",
"4 0 LINE"
);
},
{
closed = 1;
nodes = (
"265 500 LINE",
"381 500 LINE SMOOTH",
"519 500 OFFCURVE",
"572 445 OFFCURVE",
"572 344 CURVE SMOOTH",
"572 233 OFFCURVE",
"530 83 OFFCURVE",
"328 83 CURVE SMOOTH",
"199 83 LINE"
);
}
);
width = 710;
}
);
leftKerningGroup = H;
leftMetricsKey = H;
rightKerningGroup = O;
rightMetricsKey = O;
unicode = 0044;
userData = {
com.typemytype.robofont.layerData = {
b = {
anchors = (
);
components = (
);
contours = (
);
lib = {
};
name = D;
unicodes = (
);
width = 1434;
};
};
org.robofab.postScriptHintData = {
};
};
},
{
color = 3;
glyphname = E;
layers = (
{
anchors = (
{
name = bottom;
position = "{280, 0}";
},
{
name = ogonek;
position = "{440, 0}";
},
{
name = top;
position = "{364, 583}";
}
);
background = {
anchors = (
{
name = bottom;
position = "{311, 0}";
},
{
name = ogonek;
position = "{471, 0}";
},
{
name = top;
position = "{303, 583}";
}
);
paths = (
{
closed = 1;
nodes = (
"521 0 LINE",
"521 165 LINE",
"495 165 LINE",
"495 22 LINE",
"155 22 LINE",
"155 286 LINE",
"371 286 LINE",
"371 196 LINE",
"396 196 LINE",
"396 393 LINE",
"370 393 LINE",
"370 308 LINE",
"155 308 LINE",
"155 561 LINE",
"480 561 LINE",
"480 423 LINE",
"506 423 LINE",
"506 583 LINE",
"40 583 LINE",
"40 561 LINE",
"125 561 LINE",
"125 22 LINE",
"40 22 LINE",
"40 0 LINE"
);
}
);
};
layerId = "98C086B7-81AA-4491-8494-0C6A76849168";
paths = (
{
closed = 1;
nodes = (
"490 0 LINE",
"516 165 LINE",
"490 165 LINE",
"467 22 LINE",
"127 22 LINE",
"169 286 LINE",
"385 286 LINE",
"371 196 LINE",
"396 196 LINE",
"427 393 LINE",
"401 393 LINE",
"388 308 LINE",
"173 308 LINE",
"213 561 LINE",
"538 561 LINE",
"516 423 LINE",
"542 423 LINE",
"567 583 LINE",
"101 583 LINE",
"98 561 LINE",
"183 561 LINE",
"97 22 LINE",
"12 22 LINE",
"9 0 LINE"
);
}
);
width = 578;
},
{
anchors = (
{
name = bottom;
position = "{285, 0}";
},
{
name = ogonek;
position = "{502, 0}";
},
{
name = top;
position = "{397, 583}";
}
);
background = {
anchors = (
{
name = bottom;
position = "{317, 0}";
},
{
name = ogonek;
position = "{534, 0}";
},
{
name = top;
position = "{337, 583}";
}
);
paths = (
{
closed = 1;
nodes = (
"603 0 LINE",
"603 215 LINE",
"478 215 LINE",
"478 120 LINE",
"280 120 LINE",
"280 235 LINE",
"328 235 LINE",
"328 185 LINE",
"428 185 LINE",
"428 400 LINE",
"328 400 LINE",
"328 355 LINE",
"280 355 LINE",
"280 463 LINE",
"458 463 LINE",
"458 373 LINE",
"583 373 LINE",
"583 583 LINE",
"30 583 LINE",
"30 463 LINE",
"80 463 LINE",
"80 120 LINE",
"30 120 LINE",
"30 0 LINE"
);
}
);
};
layerId = "EFCDB4D9-E20B-4A8D-9DB5-150AD166B0AE";
paths = (
{
closed = 1;
nodes = (
"571 0 LINE",
"605 215 LINE",
"480 215 LINE",
"465 120 LINE",
"267 120 LINE",
"285 235 LINE",
"333 235 LINE",
"325 185 LINE",
"425 185 LINE",
"459 400 LINE",
"359 400 LINE",
"352 355 LINE",
"304 355 LINE",
"321 463 LINE",
"499 463 LINE",
"485 373 LINE",
"610 373 LINE",
"643 583 LINE",
"90 583 LINE",
"71 463 LINE",
"121 463 LINE",
"67 120 LINE",
"17 120 LINE",
"-2 0 LINE"
);
}
);
width = 619;
},
{
anchors = (
{
name = bottom;
position = "{283, 0}";
},
{
name = ogonek;
position = "{471, 0}";
},
{
name = top;
position = "{381, 583}";
}
);
background = {
anchors = (
{
name = bottom;
position = "{283, 0}";
},
{
name = ogonek;
position = "{471, 0}";
},
{
name = top;
position = "{381, 583}";
}
);
paths = (
{
closed = 1;
nodes = (
"531 0 LINE",
"561 196 LINE",
"485 196 LINE",
"466 83 LINE",
"197 83 LINE",
"227 254 LINE",
"359 254 LINE",
"348 189 LINE",
"411 189 LINE",
"443 397 LINE",
"380 397 LINE",
"370 337 LINE",
"239 337 LINE",
"267 500 LINE",
"519 500 LINE",
"501 392 LINE",
"576 392 LINE",
"605 583 LINE",
"96 583 LINE",
"85 500 LINE",
"152 500 LINE",
"82 83 LINE",
"15 83 LINE",
"4 0 LINE"
);
}
);
};
layerId = "14AB8F11-4722-4116-93B5-2CBF67C8CE3C";
paths = (
{
closed = 1;
nodes = (
"530 0 LINE",
"561 196 LINE",
"485 196 LINE",
"467 83 LINE",
"199 83 LINE",
"226 254 LINE",
"353 254 LINE",
"343 189 LINE",
"413 189 LINE",
"446 397 LINE",
"376 397 LINE",
"366 337 LINE",
"239 337 LINE",
"265 500 LINE",
"516 500 LINE",
"499 392 LINE",
"575 392 LINE",
"604 583 LINE",
"96 583 LINE",
"83 500 LINE",
"150 500 LINE",
"84 83 LINE",
"17 83 LINE",
"4 0 LINE"
);
}
);
width = 601;
}
);
leftKerningGroup = H;
leftMetricsKey = H;
rightKerningGroup = E;
unicode = 0045;
userData = {
com.typemytype.robofont.layerData = {
b = {
anchors = (
);
components = (
);
contours = (
);
lib = {
};
name = E;
unicodes = (
);
width = 1227;
};
};
org.robofab.postScriptHintData = {
};
};
},
{
color = 3;
glyphname = Eth;
layers = (
{
background = {
paths = (
{
closed = 1;
nodes = (
"310 286 LINE",
"313 308 LINE",
"58 308 LINE",
"55 286 LINE"
);
},
{
closed = 1;
nodes = (
"307 0 LINE SMOOTH",
"592 0 OFFCURVE",
"656 196 OFFCURVE",
"656 349 CURVE SMOOTH",
"656 488 OFFCURVE",
"576 583 OFFCURVE",
"376 583 CURVE SMOOTH",
"101 583 LINE",
"98 561 LINE",
"183 561 LINE",
"97 22 LINE",
"12 22 LINE",
"9 0 LINE"
);
},
{
closed = 1;
nodes = (
"213 561 LINE",
"371 561 LINE SMOOTH",
"558 561 OFFCURVE",
"624 476 OFFCURVE",
"624 350 CURVE SMOOTH",
"624 201 OFFCURVE",
"568 22 OFFCURVE",
"305 22 CURVE SMOOTH",
"127 22 LINE"
);
}
);
};
layerId = "98C086B7-81AA-4491-8494-0C6A76849168";
paths = (
{
closed = 1;
nodes = (
"139 286 LINE",
"97 22 LINE",
"12 22 LINE",
"9 0 LINE",
"307 0 LINE SMOOTH",
"592 0 OFFCURVE",
"656 196 OFFCURVE",
"656 349 CURVE SMOOTH",
"656 488 OFFCURVE",
"576 583 OFFCURVE",
"376 583 CURVE SMOOTH",
"101 583 LINE",
"98 561 LINE",
"183 561 LINE",
"143 308 LINE",
"58 308 LINE",
"55 286 LINE"
);
},
{
closed = 1;
nodes = (
"169 286 LINE",
"310 286 LINE",
"313 308 LINE",
"173 308 LINE",
"213 561 LINE",
"371 561 LINE SMOOTH",
"558 561 OFFCURVE",
"624 476 OFFCURVE",
"624 350 CURVE SMOOTH",
"624 201 OFFCURVE",
"568 22 OFFCURVE",
"305 22 CURVE SMOOTH",
"127 22 LINE"
);
}
);
width = 687;
},
{
background = {
paths = (
{
closed = 1;
nodes = (
"416 240 LINE",
"435 350 LINE",
"55 350 LINE",
"36 240 LINE"
);
},
{
closed = 1;
nodes = (
"351 0 LINE SMOOTH",
"582 0 OFFCURVE",
"721 127 OFFCURVE",
"721 341 CURVE SMOOTH",
"721 497 OFFCURVE",
"620 583 OFFCURVE",
"423 583 CURVE SMOOTH",
"90 583 LINE",
"71 463 LINE",
"121 463 LINE",
"67 120 LINE",
"17 120 LINE",
"-2 0 LINE"
);
},
{
closed = 1;
nodes = (
"321 463 LINE",
"386 463 LINE SMOOTH",
"475 463 OFFCURVE",
"516 426 OFFCURVE",
"516 340 CURVE SMOOTH",
"516 252 OFFCURVE",
"488 120 OFFCURVE",
"347 120 CURVE SMOOTH",
"267 120 LINE"
);
}
);
};
layerId = "EFCDB4D9-E20B-4A8D-9DB5-150AD166B0AE";
paths = (
{
closed = 1;
nodes = (
"86 240 LINE",
"67 120 LINE",
"17 120 LINE",
"-2 0 LINE",
"351 0 LINE SMOOTH",
"582 0 OFFCURVE",
"721 127 OFFCURVE",
"721 341 CURVE SMOOTH",
"721 497 OFFCURVE",
"620 583 OFFCURVE",
"423 583 CURVE SMOOTH",
"90 583 LINE",
"71 463 LINE",
"121 463 LINE",
"103 350 LINE",
"55 350 LINE",
"38 240 LINE"
);
},
{
closed = 1;
nodes = (
"286 240 LINE",
"418 240 LINE",
"435 350 LINE",
"303 350 LINE",
"321 463 LINE",
"386 463 LINE SMOOTH",
"475 463 OFFCURVE",
"516 426 OFFCURVE",
"516 340 CURVE SMOOTH",
"516 252 OFFCURVE",
"488 120 OFFCURVE",
"347 120 CURVE SMOOTH",
"267 120 LINE"
);
}
);
width = 731;
},
{
background = {
paths = (
{
closed = 1;
nodes = (
"113 257 LINE",
"82 83 LINE",
"15 83 LINE",
"4 0 LINE",
"329 0 LINE SMOOTH",
"587 0 OFFCURVE",
"689 153 OFFCURVE",
"689 344 CURVE SMOOTH",
"689 494 OFFCURVE",
"598 583 OFFCURVE",
"400 583 CURVE SMOOTH",
"96 583 LINE",
"85 500 LINE",
"152 500 LINE",
"123 334 LINE",
"57 334 LINE",
"47 257 LINE"
);
},
{
closed = 1;
nodes = (
"228 257 LINE",
"364 257 LINE",
"374 334 LINE",
"238 334 LINE",
"267 500 LINE",
"379 500 LINE SMOOTH",
"517 500 OFFCURVE",
"570 445 OFFCURVE",
"570 344 CURVE SMOOTH",
"570 233 OFFCURVE",
"528 83 OFFCURVE",
"326 83 CURVE SMOOTH",
"197 83 LINE"
);
}
);
};
layerId = "14AB8F11-4722-4116-93B5-2CBF67C8CE3C";
paths = (
{
closed = 1;
nodes = (
"112 257 LINE",
"84 83 LINE",
"17 83 LINE",
"4 0 LINE",
"331 0 LINE SMOOTH",
"589 0 OFFCURVE",
"691 153 OFFCURVE",
"691 344 CURVE SMOOTH",
"691 494 OFFCURVE",
"600 583 OFFCURVE",
"402 583 CURVE SMOOTH",
"96 583 LINE",
"83 500 LINE",
"150 500 LINE",
"124 334 LINE",
"57 334 LINE",
"45 257 LINE"
);
},
{
closed = 1;
nodes = (
"227 257 LINE",
"362 257 LINE",
"374 334 LINE",
"239 334 LINE",
"265 500 LINE",
"381 500 LINE SMOOTH",
"519 500 OFFCURVE",
"572 445 OFFCURVE",
"572 344 CURVE SMOOTH",
"572 233 OFFCURVE",
"530 83 OFFCURVE",
"328 83 CURVE SMOOTH",
"199 83 LINE"
);
}
);
width = 710;
}
);
leftKerningGroup = H;
leftMetricsKey = H;
rightKerningGroup = O;
rightMetricsKey = O;
unicode = 00D0;
userData = {
com.typemytype.robofont.layerData = {
b = {
anchors = (
);
components = (
);
contours = (
);
lib = {
};
name = Eth;
unicodes = (
);
width = 1434;
};
};
org.robofab.postScriptHintData = {
};
};
},
{
color = 3;
glyphname = F;
layers = (
{
anchors = (
{
name = top;
position = "{360, 583}";
}
);
background = {
anchors = (
{
name = top;
position = "{299, 583}";
}
);
paths = (
{
closed = 1;
nodes = (
"260 0 LINE",
"260 22 LINE",
"155 22 LINE",
"155 291 LINE",
"370 291 LINE",
"370 201 LINE",
"396 201 LINE",
"396 399 LINE",
"370 399 LINE",
"370 314 LINE",
"155 314 LINE",
"155 561 LINE",
"480 561 LINE",
"480 423 LINE",
"506 423 LINE",
"506 583 LINE",
"40 583 LINE",
"40 561 LINE",
"125 561 LINE",
"125 22 LINE",
"40 22 LINE",
"40 0 LINE"
);
}
);
};
layerId = "98C086B7-81AA-4491-8494-0C6A76849168";
paths = (
{
closed = 1;
nodes = (
"229 0 LINE",
"232 22 LINE",
"127 22 LINE",
"170 291 LINE",
"385 291 LINE",
"371 201 LINE",
"397 201 LINE",
"428 399 LINE",
"402 399 LINE",
"389 314 LINE",
"174 314 LINE",
"213 561 LINE",
"538 561 LINE",
"516 423 LINE",
"542 423 LINE",
"567 583 LINE",
"101 583 LINE",
"98 561 LINE",
"183 561 LINE",
"97 22 LINE",
"12 22 LINE",
"9 0 LINE"
);
}
);
width = 551;
},
{
anchors = (
{
name = top;
position = "{383, 583}";
}
);
background = {
anchors = (
{
name = top;
position = "{323, 583}";
}
);
paths = (
{
closed = 1;
nodes = (
"360 0 LINE",
"360 120 LINE",
"280 120 LINE",
"280 245 LINE",
"328 245 LINE",
"328 195 LINE",
"428 195 LINE",
"428 410 LINE",
"328 410 LINE",
"328 365 LINE",
"280 365 LINE",
"280 463 LINE",
"458 463 LINE",
"458 373 LINE",
"583 373 LINE",
"583 583 LINE",
"30 583 LINE",
"30 463 LINE",
"80 463 LINE",
"80 120 LINE",
"30 120 LINE",
"30 0 LINE"
);
}
);
};
layerId = "EFCDB4D9-E20B-4A8D-9DB5-150AD166B0AE";
paths = (
{
closed = 1;
nodes = (
"328 0 LINE",
"347 120 LINE",
"267 120 LINE",
"287 245 LINE",
"335 245 LINE",
"327 195 LINE",
"427 195 LINE",
"461 410 LINE",
"361 410 LINE",
"354 365 LINE",
"306 365 LINE",
"321 463 LINE",
"499 463 LINE",
"485 373 LINE",
"610 373 LINE",
"643 583 LINE",
"90 583 LINE",
"71 463 LINE",
"121 463 LINE",
"67 120 LINE",
"17 120 LINE",
"-2 0 LINE"
);
}
);
width = 593;
},
{
anchors = (
{
name = top;
position = "{374, 583}";
}
);
background = {
anchors = (
{
name = top;
position = "{374, 583}";
}
);
paths = (
{
closed = 1;
nodes = (
"281 0 LINE",
"292 83 LINE",
"199 83 LINE",
"231 262 LINE",
"362 262 LINE",
"351 197 LINE",
"414 197 LINE",
"447 406 LINE",
"384 406 LINE",
"374 346 LINE",
"242 346 LINE",
"269 500 LINE",
"521 500 LINE",
"503 392 LINE",
"578 392 LINE",
"607 583 LINE",
"98 583 LINE",
"87 500 LINE",
"154 500 LINE",
"84 83 LINE",
"17 83 LINE",
"6 0 LINE"
);
}
);
};
layerId = "14AB8F11-4722-4116-93B5-2CBF67C8CE3C";
paths = (
{
closed = 1;
nodes = (
"279 0 LINE",
"292 83 LINE",
"199 83 LINE",
"227 262 LINE",
"354 262 LINE",
"344 197 LINE",
"414 197 LINE",
"447 406 LINE",
"377 406 LINE",
"367 346 LINE",
"241 346 LINE",
"265 500 LINE",
"517 500 LINE",
"500 392 LINE",
"575 392 LINE",
"605 583 LINE",
"96 583 LINE",
"83 500 LINE",
"150 500 LINE",
"84 83 LINE",
"17 83 LINE",
"4 0 LINE"
);
}
);
width = 571;
}
);
leftKerningGroup = H;
leftMetricsKey = H;
rightKerningGroup = F;
unicode = 0046;
userData = {
com.typemytype.robofont.layerData = {
b = {
anchors = (
);
components = (
);
contours = (
{
points = (
{
segmentType = line;
smooth = 0;
x = 990;
y = 1086;
},
{
segmentType = line;
smooth = 0;
x = 990;
y = 802;
},
{
segmentType = line;
smooth = 0;
x = 1062;
y = 802;
},
{
segmentType = line;
smooth = 0;
x = 1062;
y = 1152;
},
{
segmentType = line;
smooth = 0;
x = 122;
y = 1152;
},
{
segmentType = line;
smooth = 0;
x = 122;
y = 1086;
},
{
segmentType = line;
smooth = 0;
x = 286;
y = 1086;
},
{
segmentType = line;
smooth = 0;
x = 286;
y = 1039;
},
{
segmentType = line;
smooth = 0;
x = 363;
y = 1039;
},
{
segmentType = line;
smooth = 0;
x = 363;
y = 1086;
}
);
},
{
points = (
{
segmentType = line;
smooth = 0;
x = 286;
y = 1039;
},
{
segmentType = line;
smooth = 0;
x = 286;
y = 677;
},
{
segmentType = line;
smooth = 0;
x = 363;
y = 677;
},
{
segmentType = line;
smooth = 0;
x = 363;
y = 1039;
}
);
},
{
points = (
{
segmentType = line;
smooth = 0;
x = 286;
y = 677;
},
{
segmentType = line;
smooth = 0;
x = 286;
y = 65;
},
{
segmentType = line;
smooth = 0;
x = 122;
y = 65;
},
{
segmentType = line;
smooth = 0;
x = 122;
y = 0;
},
{
segmentType = line;
smooth = 0;
x = 552;
y = 0;
},
{
segmentType = line;
smooth = 0;
x = 552;
y = 65;
},
{
segmentType = line;
smooth = 0;
x = 363;
y = 65;
},
{
segmentType = line;
smooth = 0;
x = 363;
y = 539;
},
{
segmentType = line;
smooth = 0;
x = 824;
y = 539;
},
{
segmentType = line;
smooth = 0;
x = 824;
y = 378;
},
{
segmentType = line;
smooth = 0;
x = 886;
y = 378;
},
{
segmentType = line;
smooth = 0;
x = 886;
y = 764;
},
{
segmentType = line;
smooth = 0;
x = 824;
y = 764;
},
{
segmentType = line;
smooth = 0;
x = 824;
y = 601;
},
{
segmentType = line;
smooth = 0;
x = 363;
y = 601;
},
{
segmentType = line;
smooth = 0;
x = 363;
y = 677;
}
);
}
);
lib = {
};
name = F;
unicodes = (
);
width = 1177;
};
};
org.robofab.postScriptHintData = {
};
};
},
{
color = 3;
glyphname = G;
layers = (
{
anchors = (
{
name = bottom;
position = "{323, 0}";
},
{
name = top;
position = "{413, 583}";
}
);
background = {
paths = (
{
closed = 1;
nodes = (
"1411 -10 OFFCURVE",
"1512 82 OFFCURVE",
"1539 244 CURVE SMOOTH",
"1543 268 LINE",
"1368 268 LINE",
"1365 246 LINE",
"1519 246 LINE",
"1511 256 LINE",
"1489 95 OFFCURVE",
"1402 15 OFFCURVE",
"1240 15 CURVE SMOOTH",
"1087 15 OFFCURVE",
"994 102 OFFCURVE",
"994 245 CURVE SMOOTH",
"994 440 OFFCURVE",
"1115 569 OFFCURVE",
"1302 569 CURVE SMOOTH",
"1412 569 OFFCURVE",
"1501 525 OFFCURVE",
"1529 423 CURVE",
"1552 423 LINE",
"1577 583 LINE",
"1551 583 LINE",
"1529 445 LINE",
"1540 445 LINE",
"1518 537 OFFCURVE",
"1430 594 OFFCURVE",
"1303 594 CURVE SMOOTH",
"1097 594 OFFCURVE",
"962 455 OFFCURVE",
"962 245 CURVE SMOOTH",
"962 89 OFFCURVE",
"1070 -10 OFFCURVE",
"1241 -10 CURVE SMOOTH"
);
},
{
closed = 1;
nodes = (
"467 -10 OFFCURVE",
"544 29 OFFCURVE",
"614 123 CURVE",
"592 139 LINE",
"528 49 OFFCURVE",
"461 15 OFFCURVE",
"350 15 CURVE SMOOTH",
"196 15 OFFCURVE",
"103 102 OFFCURVE",
"103 245 CURVE SMOOTH",
"103 440 OFFCURVE",
"224 569 OFFCURVE",
"405 569 CURVE SMOOTH",
"523 569 OFFCURVE",
"600 516 OFFCURVE",
"626 423 CURVE",
"649 423 LINE",
"674 583 LINE",
"648 583 LINE",
"626 445 LINE",
"637 445 LINE",
"613 537 OFFCURVE",
"525 594 OFFCURVE",
"407 594 CURVE SMOOTH",
"205 594 OFFCURVE",
"71 455 OFFCURVE",
"71 245 CURVE SMOOTH",
"71 89 OFFCURVE",
"178 -10 OFFCURVE",
"348 -10 CURVE SMOOTH"
);
}
);
};
layerId = "98C086B7-81AA-4491-8494-0C6A76849168";
paths = (
{
closed = 1;
nodes = (
"512 -10 OFFCURVE",
"612 82 OFFCURVE",
"639 244 CURVE SMOOTH",
"643 268 LINE",
"468 268 LINE",
"465 246 LINE",
"619 246 LINE",
"611 256 LINE",
"589 95 OFFCURVE",
"502 15 OFFCURVE",
"340 15 CURVE SMOOTH",
"187 15 OFFCURVE",
"94 102 OFFCURVE",
"94 245 CURVE SMOOTH",
"94 440 OFFCURVE",
"215 569 OFFCURVE",
"401 569 CURVE SMOOTH",
"523 569 OFFCURVE",
"600 516 OFFCURVE",
"626 423 CURVE",
"649 423 LINE",
"674 583 LINE",
"648 583 LINE",
"626 445 LINE",
"637 445 LINE",
"613 537 OFFCURVE",
"525 594 OFFCURVE",
"402 594 CURVE SMOOTH",
"197 594 OFFCURVE",
"62 455 OFFCURVE",
"62 245 CURVE SMOOTH",
"62 89 OFFCURVE",
"168 -10 OFFCURVE",
"339 -10 CURVE SMOOTH"
);
}
);
width = 693;
},
{
anchors = (
{
name = bottom;
position = "{322, 0}";
},
{
name = top;
position = "{397, 583}";
}
);
background = {
paths = (
{
closed = 1;
nodes = (
"1534 -10 OFFCURVE",
"1646 97 OFFCURVE",
"1675 281 CURVE SMOOTH",
"1682 326 LINE",
"1420 326 LINE",
"1401 206 LINE",
"1555 206 LINE",
"1513 296 LINE",
"1492 178 OFFCURVE",
"1474 130 OFFCURVE",
"1368 130 CURVE SMOOTH",
"1292 130 OFFCURVE",
"1246 178 OFFCURVE",
"1246 254 CURVE SMOOTH",
"1246 373 OFFCURVE",
"1311 454 OFFCURVE",
"1413 454 CURVE SMOOTH",
"1486 454 OFFCURVE",
"1533 421 OFFCURVE",
"1550 363 CURVE",
"1675 363 LINE",
"1710 583 LINE",
"1580 583 LINE",
"1563 478 LINE",
"1605 448 LINE",
"1586 542 OFFCURVE",
"1500 594 OFFCURVE",
"1381 594 CURVE SMOOTH",
"1172 594 OFFCURVE",
"1040 454 OFFCURVE",
"1040 255 CURVE SMOOTH",
"1040 100 OFFCURVE",
"1143 -10 OFFCURVE",
"1341 -10 CURVE SMOOTH"
);
},
{
closed = 1;
nodes = (
"517 -10 OFFCURVE",
"618 60 OFFCURVE",
"665 196 CURVE",
"528 256 LINE",
"500 172 OFFCURVE",
"449 130 OFFCURVE",
"378 130 CURVE SMOOTH",
"304 130 OFFCURVE",
"256 178 OFFCURVE",
"256 254 CURVE SMOOTH",
"256 364 OFFCURVE",
"315 454 OFFCURVE",
"422 454 CURVE SMOOTH",
"486 454 OFFCURVE",
"533 421 OFFCURVE",
"550 363 CURVE",
"675 363 LINE",
"710 583 LINE",
"580 583 LINE",
"563 478 LINE",
"605 448 LINE",
"586 542 OFFCURVE",
"500 594 OFFCURVE",
"381 594 CURVE SMOOTH",
"181 594 OFFCURVE",
"50 454 OFFCURVE",
"50 255 CURVE SMOOTH",
"50 100 OFFCURVE",
"161 -10 OFFCURVE",
"351 -10 CURVE SMOOTH"
);
}
);
};
layerId = "EFCDB4D9-E20B-4A8D-9DB5-150AD166B0AE";
paths = (
{
closed = 1;
nodes = (
"534 -10 OFFCURVE",
"646 97 OFFCURVE",
"675 281 CURVE SMOOTH",
"682 326 LINE",
"420 326 LINE",
"401 206 LINE",
"555 206 LINE",
"506 246 LINE",
"485 163 OFFCURVE",
"439 130 OFFCURVE",
"368 130 CURVE SMOOTH",
"294 130 OFFCURVE",
"246 178 OFFCURVE",
"246 254 CURVE SMOOTH",
"246 364 OFFCURVE",
"305 454 OFFCURVE",
"413 454 CURVE SMOOTH",
"486 454 OFFCURVE",
"533 421 OFFCURVE",
"550 363 CURVE",
"675 363 LINE",
"710 583 LINE",
"580 583 LINE",
"563 478 LINE",
"605 448 LINE",
"586 542 OFFCURVE",
"500 594 OFFCURVE",
"381 594 CURVE SMOOTH",
"172 594 OFFCURVE",
"40 454 OFFCURVE",
"40 255 CURVE SMOOTH",
"40 100 OFFCURVE",
"151 -10 OFFCURVE",
"341 -10 CURVE SMOOTH"
);
}
);
width = 699;
},
{
anchors = (
{
name = bottom;
position = "{323, 0}";
},
{
name = top;
position = "{405, 583}";
}
);
background = {
anchors = (
{
name = bottom;
position = "{323, 0}";
},
{
name = top;
position = "{405, 583}";
}
);
paths = (
{
closed = 1;
nodes = (
"1323 -10 OFFCURVE",
"1429 91 OFFCURVE",
"1457 267 CURVE SMOOTH",
"1463 304 LINE",
"1244 304 LINE",
"1233 221 LINE",
"1387 221 LINE",
"1359 250 LINE",
"1337 138 OFFCURVE",
"1271 87 OFFCURVE",
"1154 87 CURVE SMOOTH",
"1041 87 OFFCURVE",
"970 150 OFFCURVE",
"970 251 CURVE SMOOTH",
"970 393 OFFCURVE",
"1060 497 OFFCURVE",
"1207 497 CURVE SMOOTH",
"1305 497 OFFCURVE",
"1367 457 OFFCURVE",
"1388 386 CURVE",
"1462 386 LINE",
"1492 583 LINE",
"1414 583 LINE",
"1395 466 LINE",
"1421 447 LINE",
"1400 540 OFFCURVE",
"1313 594 OFFCURVE",
"1192 594 CURVE SMOOTH",
"985 594 OFFCURVE",
"851 454 OFFCURVE",
"851 251 CURVE SMOOTH",
"851 96 OFFCURVE",
"960 -10 OFFCURVE",
"1140 -10 CURVE SMOOTH"
);
},
{
closed = 1;
nodes = (
"583 -10 OFFCURVE",
"697 146 OFFCURVE",
"697 320 CURVE SMOOTH",
"697 490 OFFCURVE",
"575 594 OFFCURVE",
"395 594 CURVE SMOOTH",
"165 594 OFFCURVE",
"51 438 OFFCURVE",
"51 264 CURVE SMOOTH",
"51 94 OFFCURVE",
"174 -10 OFFCURVE",
"353 -10 CURVE SMOOTH"
);
},
{
closed = 1;
nodes = (
"242 89 OFFCURVE",
"170 154 OFFCURVE",
"170 269 CURVE SMOOTH",
"170 403 OFFCURVE",
"249 495 OFFCURVE",
"389 495 CURVE SMOOTH",
"507 495 OFFCURVE",
"578 431 OFFCURVE",
"578 315 CURVE SMOOTH",
"578 181 OFFCURVE",
"499 89 OFFCURVE",
"360 89 CURVE SMOOTH"
);
}
);
};
layerId = "14AB8F11-4722-4116-93B5-2CBF67C8CE3C";
paths = (
{
closed = 1;
nodes = (
"536 -10 OFFCURVE",
"627 91 OFFCURVE",
"655 257 CURVE SMOOTH",
"663 304 LINE",
"444 304 LINE",
"431 221 LINE",
"587 221 LINE",
"547 250 LINE",
"531 143 OFFCURVE",
"477 87 OFFCURVE",
"360 87 CURVE SMOOTH",
"242 87 OFFCURVE",
"170 154 OFFCURVE",
"170 269 CURVE SMOOTH",
"170 403 OFFCURVE",
"249 497 OFFCURVE",
"396 497 CURVE SMOOTH",
"487 497 OFFCURVE",
"567 457 OFFCURVE",
"588 386 CURVE",
"662 386 LINE",
"693 583 LINE",
"615 583 LINE",
"596 463 LINE",
"621 447 LINE",
"600 540 OFFCURVE",
"512 594 OFFCURVE",
"394 594 CURVE SMOOTH",
"162 594 OFFCURVE",
"51 438 OFFCURVE",
"51 264 CURVE SMOOTH",
"51 94 OFFCURVE",
"172 -10 OFFCURVE",
"351 -10 CURVE SMOOTH"
);
}
);
width = 696;
}
);
leftKerningGroup = O;
leftMetricsKey = O;
rightKerningGroup = G;
unicode = 0047;
userData = {
com.typemytype.robofont.layerData = {
b = {
anchors = (
);
components = (
);
contours = (
);
lib = {
};
name = G;
unicodes = (
);
width = 1394;
};
};
org.robofab.postScriptHintData = {
};
};
},
{
color = 3;
glyphname = H;
layers = (
{
anchors = (
{
name = bottom;
position = "{314, 0}";
},
{
name = top;
position = "{406, 583}";
}
);
background = {
anchors = (
{
name = bottom;
position = "{345, 0}";
},
{
name = top;
position = "{345, 583}";
}
);
paths = (
{
closed = 1;
nodes = (
"240 0 LINE",
"240 22 LINE",
"155 22 LINE",
"155 286 LINE",
"535 286 LINE",
"535 22 LINE",
"450 22 LINE",
"450 0 LINE",
"650 0 LINE",
"650 22 LINE",
"565 22 LINE",
"565 561 LINE",
"650 561 LINE",
"650 583 LINE",
"450 583 LINE",
"450 561 LINE",
"535 561 LINE",
"535 308 LINE",
"155 308 LINE",
"155 561 LINE",
"240 561 LINE",
"240 583 LINE",
"40 583 LINE",
"40 561 LINE",
"125 561 LINE",
"125 22 LINE",
"40 22 LINE",
"40 0 LINE"
);
}
);
};
layerId = "98C086B7-81AA-4491-8494-0C6A76849168";
paths = (
{
closed = 1;
nodes = (
"209 0 LINE",
"212 22 LINE",
"127 22 LINE",
"169 286 LINE",
"549 286 LINE",
"507 22 LINE",
"422 22 LINE",
"419 0 LINE",
"619 0 LINE",
"622 22 LINE",
"537 22 LINE",
"623 561 LINE",
"708 561 LINE",
"711 583 LINE",
"511 583 LINE",
"508 561 LINE",
"593 561 LINE",
"553 308 LINE",
"173 308 LINE",
"213 561 LINE",
"298 561 LINE",
"301 583 LINE",
"101 583 LINE",
"98 561 LINE",
"183 561 LINE",
"97 22 LINE",
"12 22 LINE",
"9 0 LINE"
);
}
);
width = 690;
},
{
anchors = (
{
name = bottom;
position = "{331, 0}";
},
{
name = top;
position = "{423, 583}";
}
);
background = {
anchors = (
{
name = bottom;
position = "{363, 0}";
},
{
name = top;
position = "{363, 583}";
}
);
paths = (
{
closed = 1;
nodes = (
"298 0 LINE",
"317 120 LINE",
"267 120 LINE",
"285 233 LINE",
"451 233 LINE",
"433 120 LINE",
"383 120 LINE",
"364 0 LINE",
"664 0 LINE",
"683 120 LINE",
"633 120 LINE",
"687 463 LINE",
"737 463 LINE",
"756 583 LINE",
"456 583 LINE",
"437 463 LINE",
"487 463 LINE",
"470 357 LINE",
"304 357 LINE",
"321 463 LINE",
"371 463 LINE",
"390 583 LINE",
"90 583 LINE",
"71 463 LINE",
"121 463 LINE",
"67 120 LINE",
"17 120 LINE",
"-2 0 LINE"
);
}
);
};
layerId = "EFCDB4D9-E20B-4A8D-9DB5-150AD166B0AE";
paths = (
{
closed = 1;
nodes = (
"298 0 LINE",
"317 120 LINE",
"267 120 LINE",
"285 233 LINE",
"451 233 LINE",
"433 120 LINE",
"383 120 LINE",
"364 0 LINE",
"664 0 LINE",
"683 120 LINE",
"633 120 LINE",
"687 463 LINE",
"737 463 LINE",
"756 583 LINE",
"456 583 LINE",
"437 463 LINE",
"487 463 LINE",
"470 357 LINE",
"304 357 LINE",
"321 463 LINE",
"371 463 LINE",
"390 583 LINE",
"90 583 LINE",
"71 463 LINE",
"121 463 LINE",
"67 120 LINE",
"17 120 LINE",
"-2 0 LINE"
);
}
);
width = 726;
},
{
anchors = (
{
name = bottom;
position = "{322, 0}";
},
{
name = top;
position = "{414, 583}";
}
);
background = {
anchors = (
{
name = bottom;
position = "{323, 0}";
},
{
name = top;
position = "{415, 583}";
}
);
paths = (
{
closed = 1;
nodes = (
"254 0 LINE",
"265 83 LINE",
"197 83 LINE",
"227 253 LINE",
"500 253 LINE",
"470 83 LINE",
"403 83 LINE",
"392 0 LINE",
"642 0 LINE",
"653 83 LINE",
"585 83 LINE",
"655 500 LINE",
"723 500 LINE",
"734 583 LINE",
"484 583 LINE",
"473 500 LINE",
"540 500 LINE",
"512 339 LINE",
"239 339 LINE",
"267 500 LINE",
"335 500 LINE",
"346 583 LINE",
"96 583 LINE",
"85 500 LINE",
"152 500 LINE",
"82 83 LINE",
"15 83 LINE",
"4 0 LINE"
);
}
);
};
guideLines = (
{
angle = 81;
position = "{538, 500}";
}
);
layerId = "14AB8F11-4722-4116-93B5-2CBF67C8CE3C";
paths = (
{
closed = 1;
nodes = (
"253 0 LINE",
"266 83 LINE",
"199 83 LINE",
"226 256 LINE",
"499 256 LINE",
"471 83 LINE",
"404 83 LINE",
"391 0 LINE",
"640 0 LINE",
"653 83 LINE",
"586 83 LINE",
"652 500 LINE",
"719 500 LINE",
"732 583 LINE",
"483 583 LINE",
"470 500 LINE",
"537 500 LINE",
"511 336 LINE",
"239 336 LINE",
"265 500 LINE",
"332 500 LINE",
"345 583 LINE",
"96 583 LINE",
"83 500 LINE",
"150 500 LINE",
"84 83 LINE",
"17 83 LINE",
"4 0 LINE"
);
}
);
width = 707;
}
);
leftKerningGroup = H;
rightKerningGroup = H;
rightMetricsKey = "=|";
unicode = 0048;
userData = {
com.typemytype.robofont.layerData = {
b = {
anchors = (
);
components = (
);
contours = (
);
lib = {
};
name = H;
unicodes = (
);
width = 1506;
};
};
org.robofab.postScriptHintData = {
};
};
},
{
color = 3;
glyphname = I;
layers = (
{
anchors = (
{
name = bottom;
position = "{110, 0}";
},
{
name = ogonek;
position = "{139, 0}";
},
{
name = top;
position = "{203, 583}";
}
);
background = {
anchors = (
{
name = bottom;
position = "{141, 0}";
},
{
name = ogonek;
position = "{170, 0}";
},
{
name = top;
position = "{142, 583}";
}
);
paths = (
{
closed = 1;
nodes = (
"240 0 LINE",
"240 22 LINE",
"155 22 LINE",
"155 561 LINE",
"240 561 LINE",
"240 583 LINE",
"40 583 LINE",
"40 561 LINE",
"125 561 LINE",
"125 22 LINE",
"40 22 LINE",
"40 0 LINE"
);
}
);
};
layerId = "98C086B7-81AA-4491-8494-0C6A76849168";
paths = (
{
closed = 1;
nodes = (
"209 0 LINE",
"212 22 LINE",
"127 22 LINE",
"213 561 LINE",
"298 561 LINE",
"301 583 LINE",
"101 583 LINE",
"98 561 LINE",
"183 561 LINE",
"97 22 LINE",
"12 22 LINE",
"9 0 LINE"
);
}
);
width = 280;
},
{
anchors = (
{
name = bottom;
position = "{148, 0}";
},
{
name = ogonek;
position = "{198, 0}";
},
{
name = top;
position = "{240, 583}";
}
);
background = {
anchors = (
{
name = bottom;
position = "{184, 0}";
},
{
name = ogonek;
position = "{234, 0}";
},
{
name = top;
position = "{184, 583}";
}
);
paths = (
{
closed = 1;
nodes = (
"334 0 LINE",
"334 120 LINE",
"284 120 LINE",
"284 463 LINE",
"334 463 LINE",
"334 583 LINE",
"34 583 LINE",
"34 463 LINE",
"84 463 LINE",
"84 120 LINE",
"34 120 LINE",
"34 0 LINE"
);
}
);
};
layerId = "EFCDB4D9-E20B-4A8D-9DB5-150AD166B0AE";
paths = (
{
closed = 1;
nodes = (
"298 0 LINE",
"317 120 LINE",
"267 120 LINE",
"321 463 LINE",
"371 463 LINE",
"390 583 LINE",
"90 583 LINE",
"71 463 LINE",
"121 463 LINE",
"67 120 LINE",
"17 120 LINE",
"-2 0 LINE"
);
}
);
width = 360;
},
{
anchors = (
{
name = bottom;
position = "{128, 0}";
},
{
name = ogonek;
position = "{169, 0}";
},
{
name = top;
position = "{221, 583}";
}
);
background = {
anchors = (
{
name = bottom;
position = "{129, 0}";
},
{
name = ogonek;
position = "{169, 0}";
},
{
name = top;
position = "{222, 583}";
}
);
paths = (
{
closed = 1;
nodes = (
"254 0 LINE",
"265 83 LINE",
"197 83 LINE",
"267 500 LINE",
"335 500 LINE",
"346 583 LINE",
"96 583 LINE",
"85 500 LINE",
"152 500 LINE",
"82 83 LINE",
"15 83 LINE",
"4 0 LINE"
);
}
);
};
layerId = "14AB8F11-4722-4116-93B5-2CBF67C8CE3C";
paths = (
{
closed = 1;
nodes = (
"253 0 LINE",
"266 83 LINE",
"199 83 LINE",
"265 500 LINE",
"332 500 LINE",
"345 583 LINE",
"96 583 LINE",
"83 500 LINE",
"150 500 LINE",
"84 83 LINE",
"17 83 LINE",
"4 0 LINE"
);
}
);
width = 320;
}
);
leftKerningGroup = H;
leftMetricsKey = H;
rightKerningGroup = H;
rightMetricsKey = H;
unicode = 0049;
userData = {
com.typemytype.robofont.layerData = {
b = {
anchors = (
);
components = (
);
contours = (
);
lib = {
};
name = I;
unicodes = (
);
width = 626;
};
};
org.robofab.postScriptHintData = {
};
};
},
{
color = 3;
glyphname = J;
layers = (
{
anchors = (
{
name = top;
position = "{197, 583}";
}
);
background = {
anchors = (
{
name = top;
position = "{137, 583}";
}
);
paths = (
{
closed = 1;
nodes = (
"119 -171 OFFCURVE",
"152 -139 OFFCURVE",
"152 -74 CURVE SMOOTH",
"152 561 LINE",
"237 561 LINE",
"237 583 LINE",
"27 583 LINE",
"27 561 LINE",
"122 561 LINE",
"122 -77 LINE SMOOTH",
"122 -128 OFFCURVE",
"99 -149 OFFCURVE",
"49 -149 CURVE SMOOTH",
"4 -149 LINE",
"4 -171 LINE",
"51 -171 LINE SMOOTH"
);
}
);
};
layerId = "98C086B7-81AA-4491-8494-0C6A76849168";
paths = (
{
closed = 1;
nodes = (
"59 -171 OFFCURVE",
"97 -142 OFFCURVE",
"107 -77 CURVE SMOOTH",
"208 561 LINE",
"293 561 LINE",
"297 583 LINE",
"87 583 LINE",
"83 561 LINE",
"178 561 LINE",
"77 -77 LINE SMOOTH",
"69 -128 OFFCURVE",
"43 -149 OFFCURVE",
"-7 -149 CURVE SMOOTH",
"-52 -149 LINE",
"-56 -171 LINE",
"-9 -171 LINE SMOOTH"
);
}
);
width = 270;
},
{
anchors = (
{
name = top;
position = "{245, 583}";
}
);
background = {
anchors = (
{
name = top;
position = "{185, 583}";
}
);
paths = (
{
closed = 1;
nodes = (
"205 -171 OFFCURVE",
"285 -94 OFFCURVE",
"285 45 CURVE SMOOTH",
"285 463 LINE",
"335 463 LINE",
"335 583 LINE",
"25 583 LINE",
"25 463 LINE",
"85 463 LINE",
"85 42 LINE SMOOTH",
"85 -4 OFFCURVE",
"60 -31 OFFCURVE",
"9 -31 CURVE SMOOTH",
"-35 -31 LINE",
"-35 -171 LINE",
"50 -171 LINE SMOOTH"
);
}
);
};
layerId = "EFCDB4D9-E20B-4A8D-9DB5-150AD166B0AE";
paths = (
{
closed = 1;
nodes = (
"145 -171 OFFCURVE",
"237 -94 OFFCURVE",
"260 45 CURVE SMOOTH",
"326 463 LINE",
"376 463 LINE",
"395 583 LINE",
"85 583 LINE",
"66 463 LINE",
"126 463 LINE",
"59 42 LINE SMOOTH",
"52 -4 OFFCURVE",
"22 -31 OFFCURVE",
"-29 -31 CURVE SMOOTH",
"-73 -31 LINE",
"-95 -171 LINE",
"-10 -171 LINE SMOOTH"
);
}
);
width = 360;
},
{
anchors = (
{
name = top;
position = "{222, 583}";
}
);
background = {
anchors = (
{
name = top;
position = "{220, 583}";
}
);
paths = (
{
closed = 1;
nodes = (
"101 -171 OFFCURVE",
"166 -112 OFFCURVE",
"183 -1 CURVE SMOOTH",
"266 500 LINE",
"334 500 LINE",
"345 583 LINE",
"85 583 LINE",
"74 500 LINE",
"151 500 LINE",
"67 -3 LINE SMOOTH",
"60 -50 OFFCURVE",
"32 -75 OFFCURVE",
"-19 -75 CURVE SMOOTH",
"-63 -75 LINE",
"-76 -171 LINE",
"-10 -171 LINE SMOOTH"
);
}
);
};
layerId = "14AB8F11-4722-4116-93B5-2CBF67C8CE3C";
paths = (
{
closed = 1;
nodes = (
"105 -171 OFFCURVE",
"169 -112 OFFCURVE",
"187 -1 CURVE SMOOTH",
"266 500 LINE",
"333 500 LINE",
"346 583 LINE",
"87 583 LINE",
"74 500 LINE",
"151 500 LINE",
"71 -3 LINE SMOOTH",
"64 -50 OFFCURVE",
"36 -75 OFFCURVE",
"-15 -75 CURVE SMOOTH",
"-59 -75 LINE",
"-72 -171 LINE",
"-6 -171 LINE SMOOTH"
);
}
);
width = 315;
}
);
leftKerningGroup = J;
rightKerningGroup = J;
unicode = 004A;
userData = {
com.typemytype.robofont.layerData = {
b = {
anchors = (
);
components = (
);
contours = (
);
lib = {
};
name = J;
unicodes = (
);
width = 551;
};
};
org.robofab.postScriptHintData = {
};
};
},
{
color = 3;
glyphname = I_J.loclNLD;
layers = (
{
anchors = (
{
name = top;
position = "{349, 583}";
}
);
background = {
paths = (
{
closed = 1;
nodes = (
"391 -11 OFFCURVE",
"469 57 OFFCURVE",
"489 182 CURVE SMOOTH",
"549 561 LINE",
"634 561 LINE",
"637 583 LINE",
"437 583 LINE",
"434 561 LINE",
"519 561 LINE",
"490 378 LINE SMOOTH",
"468 243 OFFCURVE",
"402 180 OFFCURVE",
"284 180 CURVE SMOOTH",
"165 180 OFFCURVE",
"122 241 OFFCURVE",
"144 378 CURVE SMOOTH",
"173 561 LINE",
"258 561 LINE",
"261 583 LINE",
"61 583 LINE",
"58 561 LINE",
"143 561 LINE",
"113 375 LINE SMOOTH",
"90 230 OFFCURVE",
"142 156 OFFCURVE",
"280 156 CURVE SMOOTH",
"379 156 OFFCURVE",
"450 203 OFFCURVE",
"490 296 CURVE",
"477 297 LINE",
"459 182 LINE SMOOTH",
"440 65 OFFCURVE",
"378 13 OFFCURVE",
"261 13 CURVE SMOOTH",
"195 13 OFFCURVE",
"142 27 OFFCURVE",
"112 58 CURVE",
"94 33 LINE",
"133 3 OFFCURVE",
"183 -11 OFFCURVE",
"257 -11 CURVE SMOOTH"
);
}
);
};
layerId = "98C086B7-81AA-4491-8494-0C6A76849168";
paths = (
{
closed = 1;
nodes = (
"400 -11 OFFCURVE",
"469 57 OFFCURVE",
"489 182 CURVE SMOOTH",
"549 561 LINE",
"634 561 LINE",
"637 583 LINE",
"437 583 LINE",
"434 561 LINE",
"519 561 LINE",
"490 378 LINE SMOOTH",
"469 243 OFFCURVE",
"402 180 OFFCURVE",
"288 180 CURVE SMOOTH",
"165 180 OFFCURVE",
"124 252 OFFCURVE",
"145 383 CURVE SMOOTH",
"173 561 LINE",
"258 561 LINE",
"261 583 LINE",
"61 583 LINE",
"58 561 LINE",
"143 561 LINE",
"115 385 LINE SMOOTH",
"91 236 OFFCURVE",
"150 156 OFFCURVE",
"285 156 CURVE SMOOTH",
"383 156 OFFCURVE",
"448 194 OFFCURVE",
"490 296 CURVE",
"477 297 LINE",
"459 182 LINE SMOOTH",
"441 65 OFFCURVE",
"378 13 OFFCURVE",
"261 13 CURVE SMOOTH",
"198 13 OFFCURVE",
"145 29 OFFCURVE",
"112 62 CURVE",
"96 39 LINE",
"135 5 OFFCURVE",
"189 -11 OFFCURVE",
"263 -11 CURVE SMOOTH"
);
}
);
width = 611;
},
{
anchors = (
{
name = top;
position = "{409, 583}";
}
);
background = {
anchors = (
{
name = top;
position = "{409, 583}";
}
);
paths = (
{
closed = 1;
nodes = (
"471 -10 OFFCURVE",
"607 85 OFFCURVE",
"634 253 CURVE SMOOTH",
"667 463 LINE",
"717 463 LINE",
"736 583 LINE",
"436 583 LINE",
"417 463 LINE",
"467 463 LINE",
"458 406 LINE SMOOTH",
"449 347 OFFCURVE",
"419 315 OFFCURVE",
"367 315 CURVE SMOOTH",
"315 315 OFFCURVE",
"295 347 OFFCURVE",
"304 406 CURVE SMOOTH",
"313 463 LINE",
"363 463 LINE",
"382 583 LINE",
"82 583 LINE",
"63 463 LINE",
"113 463 LINE",
"104 404 LINE SMOOTH",
"80 256 OFFCURVE",
"162 180 OFFCURVE",
"288 180 CURVE SMOOTH",
"363 180 OFFCURVE",
"407 195 OFFCURVE",
"458 248 CURVE",
"442 307 LINE",
"431 239 LINE SMOOTH",
"420 169 OFFCURVE",
"379 130 OFFCURVE",
"306 130 CURVE SMOOTH",
"239 130 OFFCURVE",
"186 152 OFFCURVE",
"144 175 CURVE",
"65 48 LINE",
"106 18 OFFCURVE",
"188 -10 OFFCURVE",
"293 -10 CURVE SMOOTH"
);
}
);
};
layerId = "EFCDB4D9-E20B-4A8D-9DB5-150AD166B0AE";
paths = (
{
closed = 1;
nodes = (
"491 -10 OFFCURVE",
"609 85 OFFCURVE",
"633 243 CURVE SMOOTH",
"667 463 LINE",
"717 463 LINE",
"736 583 LINE",
"436 583 LINE",
"417 463 LINE",
"467 463 LINE",
"458 406 LINE SMOOTH",
"449 347 OFFCURVE",
"419 315 OFFCURVE",
"367 315 CURVE SMOOTH",
"315 315 OFFCURVE",
"295 347 OFFCURVE",
"304 406 CURVE SMOOTH",
"313 463 LINE",
"363 463 LINE",
"382 583 LINE",
"82 583 LINE",
"63 463 LINE",
"113 463 LINE",
"104 404 LINE SMOOTH",
"83 266 OFFCURVE",
"167 180 OFFCURVE",
"303 180 CURVE SMOOTH",
"368 180 OFFCURVE",
"412 195 OFFCURVE",
"463 248 CURVE",
"442 307 LINE",
"430 229 LINE SMOOTH",
"419 159 OFFCURVE",
"379 130 OFFCURVE",
"314 130 CURVE SMOOTH",
"234 130 OFFCURVE",
"181 152 OFFCURVE",
"139 175 CURVE",
"70 48 LINE",
"111 18 OFFCURVE",
"203 -10 OFFCURVE",
"308 -10 CURVE SMOOTH"
);
}
);
width = 698;
},
{
anchors = (
{
name = top;
position = "{380, 583}";
}
);
background = {
anchors = (
{
name = top;
position = "{378, 583}";
}
);
paths = (
{
closed = 1;
nodes = (
"445 -10 OFFCURVE",
"538 75 OFFCURVE",
"560 220 CURVE SMOOTH",
"607 500 LINE",
"675 500 LINE",
"686 583 LINE",
"436 583 LINE",
"425 500 LINE",
"492 500 LINE",
"473 396 LINE SMOOTH",
"458 308 OFFCURVE",
"410 264 OFFCURVE",
"327 264 CURVE SMOOTH",
"239 264 OFFCURVE",
"209 311 OFFCURVE",
"224 397 CURVE SMOOTH",
"242 500 LINE",
"310 500 LINE",
"321 583 LINE",
"71 583 LINE",
"60 500 LINE",
"127 500 LINE",
"109 397 LINE SMOOTH",
"86 255 OFFCURVE",
"158 171 OFFCURVE",
"293 171 CURVE SMOOTH",
"375 171 OFFCURVE",
"429 195 OFFCURVE",
"476 266 CURVE",
"459 303 LINE",
"444 211 LINE SMOOTH",
"429 124 OFFCURVE",
"378 86 OFFCURVE",
"287 86 CURVE SMOOTH",
"215 86 OFFCURVE",
"162 106 OFFCURVE",
"125 133 CURVE",
"82 45 LINE",
"122 13 OFFCURVE",
"195 -10 OFFCURVE",
"285 -10 CURVE SMOOTH"
);
}
);
};
layerId = "14AB8F11-4722-4116-93B5-2CBF67C8CE3C";
paths = (
{
closed = 1;
nodes = (
"455 -10 OFFCURVE",
"540 75 OFFCURVE",
"563 220 CURVE SMOOTH",
"607 500 LINE",
"674 500 LINE",
"687 583 LINE",
"438 583 LINE",
"425 500 LINE",
"492 500 LINE",
"476 396 LINE SMOOTH",
"462 308 OFFCURVE",
"410 266 OFFCURVE",
"327 266 CURVE SMOOTH",
"239 266 OFFCURVE",
"213 311 OFFCURVE",
"226 397 CURVE SMOOTH",
"242 500 LINE",
"309 500 LINE",
"322 583 LINE",
"73 583 LINE",
"60 500 LINE",
"127 500 LINE",
"111 397 LINE SMOOTH",
"89 255 OFFCURVE",
"161 171 OFFCURVE",
"301 171 CURVE SMOOTH",
"378 171 OFFCURVE",
"432 195 OFFCURVE",
"479 266 CURVE",
"461 303 LINE",
"446 211 LINE SMOOTH",
"432 124 OFFCURVE",
"384 89 OFFCURVE",
"287 89 CURVE SMOOTH",
"215 89 OFFCURVE",
"162 109 OFFCURVE",
"128 136 CURVE",
"82 45 LINE",
"122 13 OFFCURVE",
"195 -10 OFFCURVE",
"287 -10 CURVE SMOOTH"
);
}
);
width = 655;
}
);
leftKerningGroup = IJ;
rightKerningGroup = U;
rightMetricsKey = U;
userData = {
com.typemytype.robofont.layerData = {
b = {
anchors = (
);
components = (
);
contours = (
);
lib = {
};
name = IJ;
unicodes = (
);
width = 1177;
};
};
org.robofab.postScriptHintData = {
};
};
},
{
color = 3;
glyphname = K;
layers = (
{
anchors = (
{
name = bottom;
position = "{281, 0}";
},
{
name = top;
position = "{363, 583}";
}
);
background = {
paths = (
{
closed = 1;
nodes = (
"209 0 LINE",
"212 22 LINE",
"127 22 LINE",
"167 276 LINE",
"186 276 LINE SMOOTH",
"235 276 OFFCURVE",
"258 265 OFFCURVE",
"281 231 CURVE SMOOTH",
"410 45 LINE SMOOTH",
"431 14 OFFCURVE",
"459 0 OFFCURVE",
"497 0 CURVE SMOOTH",
"548 0 LINE",
"551 22 LINE",
"499 22 LINE SMOOTH",
"471 22 OFFCURVE",
"451 33 OFFCURVE",
"436 54 CURVE SMOOTH",
"306 240 LINE SMOOTH",
"276 283 OFFCURVE",
"247 298 OFFCURVE",
"210 298 CURVE SMOOTH",
"181 298 LINE",
"198 288 LINE",
"536 561 LINE",
"616 561 LINE",
"619 583 LINE",
"425 583 LINE",
"422 561 LINE",
"497 561 LINE",
"171 298 LINE",
"213 561 LINE",
"298 561 LINE",
"301 583 LINE",
"101 583 LINE",
"98 561 LINE",
"183 561 LINE",
"97 22 LINE",
"12 22 LINE",
"9 0 LINE"
);
}
);
};
guideLines = (
{
position = "{223, 290}";
},
{
angle = 124.9507;
position = "{410, 45}";
}
);
layerId = "98C086B7-81AA-4491-8494-0C6A76849168";
paths = (
{
closed = 1;
nodes = (
"229 0 LINE",
"232 22 LINE",
"127 22 LINE",
"168 281 LINE",
"187 281 LINE SMOOTH",
"236 281 OFFCURVE",
"258 265 OFFCURVE",
"281 231 CURVE SMOOTH",
"410 45 LINE SMOOTH",
"431 14 OFFCURVE",
"459 0 OFFCURVE",
"497 0 CURVE SMOOTH",
"548 0 LINE",
"551 22 LINE",
"499 22 LINE SMOOTH",
"471 22 OFFCURVE",
"451 33 OFFCURVE",
"436 54 CURVE SMOOTH",
"306 240 LINE SMOOTH",
"276 283 OFFCURVE",
"247 301 OFFCURVE",
"210 301 CURVE SMOOTH",
"201 301 LINE",
"202 287 LINE",
"536 561 LINE",
"616 561 LINE",
"619 583 LINE",
"425 583 LINE",
"422 561 LINE",
"497 561 LINE",
"170 293 LINE",
"213 561 LINE",
"298 561 LINE",
"301 583 LINE",
"101 583 LINE",
"98 561 LINE",
"183 561 LINE",
"97 22 LINE",
"12 22 LINE",
"9 0 LINE"
);
}
);
width = 579;
},
{
anchors = (
{
name = bottom;
position = "{325, 0}";
},
{
name = top;
position = "{413, 583}";
}
);
background = {
paths = (
{
closed = 1;
nodes = (
"318 0 LINE",
"337 120 LINE",
"267 120 LINE",
"284 226 LINE",
"311 226 LINE SMOOTH",
"336 226 OFFCURVE",
"346 218 OFFCURVE",
"354 200 CURVE SMOOTH",
"409 72 LINE SMOOTH",
"430 24 OFFCURVE",
"469 0 OFFCURVE",
"537 0 CURVE SMOOTH",
"662 0 LINE",
"681 120 LINE",
"640 120 LINE SMOOTH",
"607 120 OFFCURVE",
"591 133 OFFCURVE",
"578 163 CURVE SMOOTH",
"540 252 LINE SMOOTH",
"525 286 OFFCURVE",
"500 311 OFFCURVE",
"457 311 CURVE SMOOTH",
"409 311 LINE",
"446 259 LINE",
"671 463 LINE",
"716 463 LINE",
"735 583 LINE",
"436 583 LINE",
"417 463 LINE",
"452 463 LINE",
"298 318 LINE",
"321 463 LINE",
"371 463 LINE",
"390 583 LINE",
"90 583 LINE",
"71 463 LINE",
"121 463 LINE",
"67 120 LINE",
"17 120 LINE",
"-2 0 LINE"
);
}
);
};
guideLines = (
{
angle = 113.1209;
position = "{409, 72}";
}
);
layerId = "EFCDB4D9-E20B-4A8D-9DB5-150AD166B0AE";
paths = (
{
closed = 1;
nodes = (
"318 0 LINE",
"337 120 LINE",
"267 120 LINE",
"287 246 LINE",
"303 246 LINE SMOOTH",
"328 246 OFFCURVE",
"338 238 OFFCURVE",
"346 220 CURVE SMOOTH",
"409 72 LINE SMOOTH",
"429 24 OFFCURVE",
"469 0 OFFCURVE",
"537 0 CURVE SMOOTH",
"662 0 LINE",
"681 120 LINE",
"640 120 LINE SMOOTH",
"607 120 OFFCURVE",
"591 133 OFFCURVE",
"578 163 CURVE SMOOTH",
"540 252 LINE SMOOTH",
"525 286 OFFCURVE",
"500 311 OFFCURVE",
"457 311 CURVE SMOOTH",
"409 311 LINE",
"445 251 LINE",
"671 463 LINE",
"716 463 LINE",
"735 583 LINE",
"436 583 LINE",
"417 463 LINE",
"452 463 LINE",
"297 310 LINE",
"321 463 LINE",
"371 463 LINE",
"390 583 LINE",
"90 583 LINE",
"71 463 LINE",
"121 463 LINE",
"67 120 LINE",
"17 120 LINE",
"-2 0 LINE"
);
}
);
width = 694;
},
{
anchors = (
{
name = bottom;
position = "{303, 0}";
},
{
name = top;
position = "{389, 583}";
}
);
background = {
anchors = (
{
name = bottom;
position = "{303, 0}";
},
{
name = top;
position = "{372, 583}";
}
);
paths = (
{
closed = 1;
nodes = (
"274 0 LINE",
"285 83 LINE",
"197 83 LINE",
"228 259 LINE",
"245 259 LINE SMOOTH",
"282 259 OFFCURVE",
"298 248 OFFCURVE",
"314 224 CURVE SMOOTH",
"410 62 LINE SMOOTH",
"430 20 OFFCURVE",
"464 0 OFFCURVE",
"517 0 CURVE SMOOTH",
"605 0 LINE",
"616 83 LINE",
"570 83 LINE SMOOTH",
"539 83 OFFCURVE",
"521 96 OFFCURVE",
"507 122 CURVE SMOOTH",
"423 248 LINE SMOOTH",
"401 285 OFFCURVE",
"374 307 OFFCURVE",
"334 307 CURVE SMOOTH",
"305 307 LINE",
"324 265 LINE",
"604 500 LINE",
"666 500 LINE",
"677 583 LINE",
"431 583 LINE",
"420 500 LINE",
"475 500 LINE",
"234 304 LINE",
"267 500 LINE",
"335 500 LINE",
"346 583 LINE",
"96 583 LINE",
"85 500 LINE",
"152 500 LINE",
"82 83 LINE",
"15 83 LINE",
"4 0 LINE"
);
}
);
};
guideLines = (
{
angle = 219.1207;
position = "{604, 500}";
}
);
layerId = "14AB8F11-4722-4116-93B5-2CBF67C8CE3C";
paths = (
{
closed = 1;
nodes = (
"273 0 LINE",
"286 83 LINE",
"199 83 LINE",
"227 259 LINE",
"245 259 LINE SMOOTH",
"282 259 OFFCURVE",
"299 249 OFFCURVE",
"314 224 CURVE SMOOTH",
"410 62 LINE SMOOTH",
"434 22 OFFCURVE",
"464 0 OFFCURVE",
"517 0 CURVE SMOOTH",
"602 0 LINE",
"615 83 LINE",
"566 83 LINE SMOOTH",
"535 83 OFFCURVE",
"519 96 OFFCURVE",
"503 122 CURVE SMOOTH",
"427 248 LINE SMOOTH",
"405 285 OFFCURVE",
"378 307 OFFCURVE",
"338 307 CURVE SMOOTH",
"305 307 LINE",
"324 272 LINE",
"604 500 LINE",
"666 500 LINE",
"679 583 LINE",
"433 583 LINE",
"420 500 LINE",
"475 500 LINE",
"234 304 LINE",
"265 500 LINE",
"332 500 LINE",
"345 583 LINE",
"96 583 LINE",
"83 500 LINE",
"150 500 LINE",
"84 83 LINE",
"17 83 LINE",
"4 0 LINE"
);
}
);
width = 636;
}
);
leftKerningGroup = H;
leftMetricsKey = K;
rightKerningGroup = K;
unicode = 004B;
userData = {
com.typemytype.robofont.guides = (
{
angle = 0;
isGlobal = 0;
magnetic = 5;
x = 467;
y = 593;
}
);
com.typemytype.robofont.layerData = {
b = {
anchors = (
);
components = (
);
contours = (
);
lib = {
};
name = K;
unicodes = (
);
width = 1304;
};
};
org.robofab.postScriptHintData = {
};
};
},
{
color = 3;
glyphname = L;
layers = (
{
anchors = (
{
name = bottom;
position = "{262, 0}";
},
{
name = dot;
position = "{489, 393}";
},
{
name = top;
position = "{201, 583}";
},
{
name = topright;
position = "{364, 583}";
}
);
background = {
anchors = (
{
name = bottom;
position = "{308, 0}";
},
{
name = dot;
position = "{473, 393}";
},
{
name = top;
position = "{155, 583}";
},
{
name = topright;
position = "{318, 583}";
}
);
paths = (
{
closed = 1;
nodes = (
"486 0 LINE",
"486 180 LINE",
"460 180 LINE",
"460 22 LINE",
"170 22 LINE",
"170 561 LINE",
"255 561 LINE",
"255 583 LINE",
"55 583 LINE",
"55 561 LINE",
"140 561 LINE",
"140 22 LINE",
"55 22 LINE",
"55 0 LINE"
);
}
);
};
guideLines = (
{
angle = 90;
position = "{1003, 182}";
}
);
layerId = "98C086B7-81AA-4491-8494-0C6A76849168";
paths = (
{
closed = 1;
nodes = (
"440 0 LINE",
"468 180 LINE",
"442 180 LINE",
"417 22 LINE",
"127 22 LINE",
"213 561 LINE",
"298 561 LINE",
"301 583 LINE",
"101 583 LINE",
"98 561 LINE",
"183 561 LINE",
"97 22 LINE",
"12 22 LINE",
"9 0 LINE"
);
}
);
width = 501;
},
{
anchors = (
{
name = bottom;
position = "{254, 0}";
},
{
name = dot;
position = "{525, 402}";
},
{
name = top;
position = "{240, 583}";
},
{
name = topright;
position = "{426, 583}";
}
);
background = {
anchors = (
{
name = bottom;
position = "{286, 0}";
},
{
name = dot;
position = "{493, 402}";
},
{
name = top;
position = "{180, 583}";
},
{
name = topright;
position = "{366, 583}";
}
);
paths = (
{
closed = 1;
nodes = (
"555 0 LINE",
"555 265 LINE",
"430 265 LINE",
"430 120 LINE",
"280 120 LINE",
"280 473 LINE",
"330 473 LINE",
"330 583 LINE",
"30 583 LINE",
"30 473 LINE",
"80 473 LINE",
"80 120 LINE",
"30 120 LINE",
"30 0 LINE"
);
}
);
};
layerId = "EFCDB4D9-E20B-4A8D-9DB5-150AD166B0AE";
paths = (
{
closed = 1;
nodes = (
"523 0 LINE",
"565 265 LINE",
"440 265 LINE",
"417 120 LINE",
"267 120 LINE",
"321 463 LINE",
"371 463 LINE",
"390 583 LINE",
"90 583 LINE",
"71 463 LINE",
"121 463 LINE",
"67 120 LINE",
"17 120 LINE",
"-2 0 LINE"
);
}
);
width = 575;
},
{
anchors = (
{
name = bottom;
position = "{256, 0}";
},
{
name = dot;
position = "{507, 399}";
},
{
name = top;
position = "{221, 583}";
},
{
name = topright;
position = "{395, 583}";
}
);
background = {
anchors = (
{
name = bottom;
position = "{258, 0}";
},
{
name = dot;
position = "{507, 399}";
},
{
name = top;
position = "{221, 583}";
},
{
name = topright;
position = "{395, 583}";
}
);
paths = (
{
closed = 1;
nodes = (
"482 0 LINE",
"517 233 LINE",
"441 233 LINE",
"417 83 LINE",
"197 83 LINE",
"267 500 LINE",
"335 500 LINE",
"346 583 LINE",
"96 583 LINE",
"85 500 LINE",
"152 500 LINE",
"82 83 LINE",
"15 83 LINE",
"4 0 LINE"
);
}
);
};
layerId = "14AB8F11-4722-4116-93B5-2CBF67C8CE3C";
paths = (
{
closed = 1;
nodes = (
"481 0 LINE",
"518 233 LINE",
"433 233 LINE",
"409 83 LINE",
"199 83 LINE",
"265 500 LINE",
"332 500 LINE",
"345 583 LINE",
"96 583 LINE",
"83 500 LINE",
"150 500 LINE",
"84 83 LINE",
"17 83 LINE",
"4 0 LINE"
);
}
);
width = 537;
}
);
leftKerningGroup = H;
leftMetricsKey = H;
rightKerningGroup = L;
unicode = 004C;
userData = {
com.typemytype.robofont.layerData = {
b = {
anchors = (
);
components = (
);
contours = (
);
lib = {
};
name = L;
unicodes = (
);
width = 1055;
};
};
org.robofab.postScriptHintData = {
};
};
},
{
color = 3;
glyphname = Lslash;
layers = (
{
background = {
paths = (
{
closed = 1;
nodes = (
"283 351 LINE",
"272 370 LINE",
"52 243 LINE",
"63 224 LINE"
);
},
{
closed = 1;
nodes = (
"440 0 LINE",
"468 180 LINE",
"442 180 LINE",
"417 22 LINE",
"127 22 LINE",
"213 561 LINE",
"298 561 LINE",
"301 583 LINE",
"101 583 LINE",
"98 561 LINE",
"183 561 LINE",
"97 22 LINE",
"12 22 LINE",
"9 0 LINE"
);
}
);
};
layerId = "98C086B7-81AA-4491-8494-0C6A76849168";
paths = (
{
closed = 1;
nodes = (
"136 266 LINE",
"97 22 LINE",
"12 22 LINE",
"9 0 LINE",
"440 0 LINE",
"468 180 LINE",
"442 180 LINE",
"417 22 LINE",
"127 22 LINE",
"169 285 LINE",
"283 351 LINE",
"272 370 LINE",
"174 313 LINE",
"213 561 LINE",
"298 561 LINE",
"301 583 LINE",
"101 583 LINE",
"98 561 LINE",
"183 561 LINE",
"141 294 LINE",
"52 243 LINE",
"63 224 LINE"
);
}
);
width = 501;
},
{
background = {
paths = (
{
closed = 1;
nodes = (
"417 315 LINE",
"380 419 LINE",
"3 282 LINE",
"40 178 LINE"
);
},
{
closed = 1;
nodes = (
"523 0 LINE",
"565 265 LINE",
"440 265 LINE",
"417 120 LINE",
"267 120 LINE",
"321 463 LINE",
"371 463 LINE",
"390 583 LINE",
"90 583 LINE",
"71 463 LINE",
"121 463 LINE",
"67 120 LINE",
"17 120 LINE",
"-2 0 LINE"
);
}
);
};
layerId = "EFCDB4D9-E20B-4A8D-9DB5-150AD166B0AE";
paths = (
{
closed = 1;
nodes = (
"78 192 LINE",
"67 120 LINE",
"17 120 LINE",
"-2 0 LINE",
"523 0 LINE",
"565 265 LINE",
"440 265 LINE",
"417 120 LINE",
"267 120 LINE",
"291 269 LINE",
"417 315 LINE",
"380 419 LINE",
"310 394 LINE",
"321 463 LINE",
"371 463 LINE",
"390 583 LINE",
"90 583 LINE",
"71 463 LINE",
"121 463 LINE",
"98 316 LINE",
"3 282 LINE",
"40 178 LINE"
);
}
);
width = 575;
},
{
background = {
paths = (
{
closed = 1;
nodes = (
"480 0 LINE",
"517 233 LINE",
"432 233 LINE",
"408 83 LINE",
"198 83 LINE",
"264 500 LINE",
"331 500 LINE",
"344 583 LINE",
"95 583 LINE",
"82 500 LINE",
"149 500 LINE",
"83 83 LINE",
"16 83 LINE",
"3 0 LINE"
);
}
);
};
layerId = "14AB8F11-4722-4116-93B5-2CBF67C8CE3C";
paths = (
{
closed = 1;
nodes = (
"105 220 LINE",
"83 83 LINE",
"17 83 LINE",
"4 0 LINE",
"481 0 LINE",
"518 233 LINE",
"433 233 LINE",
"409 83 LINE",
"198 83 LINE",
"229 274 LINE",
"350 329 LINE",
"326 401 LINE",
"243 364 LINE",
"264 500 LINE",
"331 500 LINE",
"344 583 LINE",
"95 583 LINE",
"82 500 LINE",
"149 500 LINE",
"119 308 LINE",
"28 267 LINE",
"52 195 LINE"
);
}
);
width = 537;
}
);
leftKerningGroup = H;
widthMetricsKey = L;
rightKerningGroup = L;
rightMetricsKey = L;
unicode = 0141;
userData = {
com.typemytype.robofont.layerData = {
b = {
anchors = (
);
components = (
);
contours = (
);
lib = {
};
name = Lslash;
unicodes = (
);
width = 1243;
};
};
org.robofab.postScriptHintData = {
};
};
},
{
color = 3;
glyphname = M;
layers = (
{
anchors = (
{
name = bottom;
position = "{360, 0}";
},
{
name = top;
position = "{452, 583}";
}
);
background = {
paths = (
{
closed = 1;
nodes = (
"197 0 LINE",
"200 22 LINE",
"125 22 LINE",
"206 534 LINE",
"369 68 LINE",
"375 68 LINE",
"682 534 LINE",
"601 22 LINE",
"526 22 LINE",
"523 0 LINE",
"711 0 LINE",
"714 22 LINE",
"629 22 LINE",
"715 561 LINE",
"800 561 LINE",
"803 583 LINE",
"686 583 LINE",
"372 107 LINE",
"384 107 LINE",
"217 583 LINE",
"101 583 LINE",
"98 561 LINE",
"183 561 LINE",
"97 22 LINE",
"12 22 LINE",
"9 0 LINE"
);
}
);
};
layerId = "98C086B7-81AA-4491-8494-0C6A76849168";
paths = (
{
closed = 1;
nodes = (
"197 0 LINE",
"200 22 LINE",
"125 22 LINE",
"210 558 LINE",
"194 576 LINE",
"369 68 LINE",
"375 68 LINE",
"707 572 LINE",
"686 561 LINE",
"601 22 LINE",
"526 22 LINE",
"523 0 LINE",
"711 0 LINE",
"714 22 LINE",
"629 22 LINE",
"715 561 LINE",
"800 561 LINE",
"803 583 LINE",
"687 583 LINE",
"373 107 LINE",
"381 107 LINE",
"217 583 LINE",
"101 583 LINE",
"98 561 LINE",
"183 561 LINE",
"97 22 LINE",
"12 22 LINE",
"9 0 LINE"
);
}
);
width = 782;
},
{
anchors = (
{
name = bottom;
position = "{384, 0}";
},
{
name = top;
position = "{478, 583}";
}
);
background = {
anchors = (
{
name = bottom;
position = "{384, 0}";
},
{
name = top;
position = "{478, 583}";
}
);
paths = (
{
closed = 1;
nodes = (
"258 0 LINE",
"277 120 LINE",
"232 120 LINE",
"274 386 LINE",
"328 90 LINE",
"471 90 LINE",
"615 386 LINE",
"573 120 LINE",
"528 120 LINE",
"509 0 LINE",
"784 0 LINE",
"803 120 LINE",
"753 120 LINE",
"807 463 LINE",
"857 463 LINE",
"876 583 LINE",
"559 583 LINE",
"423 306 LINE",
"444 306 LINE",
"398 583 LINE",
"90 583 LINE",
"71 463 LINE",
"121 463 LINE",
"67 120 LINE",
"17 120 LINE",
"-2 0 LINE"
);
}
);
};
guideLines = (
{
angle = 250.475;
position = "{589, 373}";
}
);
layerId = "EFCDB4D9-E20B-4A8D-9DB5-150AD166B0AE";
paths = (
{
closed = 1;
nodes = (
"258 0 LINE",
"277 120 LINE",
"232 120 LINE",
"281 430 LINE",
"270 430 LINE",
"328 90 LINE",
"471 90 LINE",
"635 426 LINE",
"622 430 LINE",
"573 120 LINE",
"528 120 LINE",
"509 0 LINE",
"784 0 LINE",
"803 120 LINE",
"753 120 LINE",
"807 463 LINE",
"857 463 LINE",
"876 583 LINE",
"563 583 LINE",
"427 306 LINE",
"442 306 LINE",
"400 583 LINE",
"90 583 LINE",
"71 463 LINE",
"121 463 LINE",
"67 120 LINE",
"17 120 LINE",
"-2 0 LINE"
);
}
);
width = 846;
},
{
anchors = (
{
name = bottom;
position = "{372, 0}";
},
{
name = top;
position = "{465, 583}";
}
);
background = {
anchors = (
{
name = bottom;
position = "{372, 0}";
},
{
name = top;
position = "{465, 583}";
}
);
paths = (
{
closed = 1;
nodes = (
"228 0 LINE",
"239 83 LINE",
"179 83 LINE",
"246 478 LINE",
"232 485 LINE",
"349 82 LINE",
"423 82 LINE",
"671 481 LINE",
"654 479 LINE",
"587 83 LINE",
"527 83 LINE",
"516 0 LINE",
"748 0 LINE",
"759 83 LINE",
"691 83 LINE",
"761 500 LINE",
"829 500 LINE",
"840 583 LINE",
"625 583 LINE",
"400 231 LINE",
"412 231 LINE",
"309 583 LINE",
"96 583 LINE",
"85 500 LINE",
"152 500 LINE",
"82 83 LINE",
"15 83 LINE",
"4 0 LINE"
);
}
);
};
layerId = "14AB8F11-4722-4116-93B5-2CBF67C8CE3C";
paths = (
{
closed = 1;
nodes = (
"228 0 LINE",
"241 83 LINE",
"181 83 LINE",
"244 478 LINE",
"223 485 LINE",
"349 82 LINE",
"423 82 LINE",
"671 481 LINE",
"651 479 LINE",
"588 83 LINE",
"528 83 LINE",
"515 0 LINE",
"747 0 LINE",
"760 83 LINE",
"692 83 LINE",
"758 500 LINE",
"825 500 LINE",
"836 583 LINE",
"621 583 LINE",
"401 227 LINE",
"416 231 LINE",
"309 583 LINE",
"96 583 LINE",
"83 500 LINE",
"150 500 LINE",
"84 83 LINE",
"17 83 LINE",
"4 0 LINE"
);
}
);
width = 814;
}
);
leftKerningGroup = H;
leftMetricsKey = H;
rightKerningGroup = H;
rightMetricsKey = H;
unicode = 004D;
userData = {
com.typemytype.robofont.layerData = {
b = {
anchors = (
);
components = (
);
contours = (
);
lib = {
};
name = M;
unicodes = (
);
width = 1606;
};
};
org.robofab.postScriptHintData = {
};
};
},
{
color = 3;
glyphname = N;
layers = (
{
anchors = (
{
name = bottom;
position = "{321, 0}";
},
{
name = top;
position = "{413, 583}";
}
);
background = {
paths = (
{
closed = 1;
nodes = (
"207 0 LINE",
"210 22 LINE",
"125 22 LINE",
"207 535 LINE",
"520 0 LINE",
"547 0 LINE",
"636 561 LINE",
"721 561 LINE",
"724 583 LINE",
"526 583 LINE",
"523 561 LINE",
"608 561 LINE",
"526 44 LINE",
"210 583 LINE",
"101 583 LINE",
"98 561 LINE",
"183 561 LINE",
"97 22 LINE",
"12 22 LINE",
"9 0 LINE"
);
}
);
};
layerId = "98C086B7-81AA-4491-8494-0C6A76849168";
paths = (
{
closed = 1;
nodes = (
"207 0 LINE",
"210 22 LINE",
"125 22 LINE",
"209 552 LINE",
"199 553 LINE",
"520 0 LINE",
"547 0 LINE",
"636 561 LINE",
"721 561 LINE",
"724 583 LINE",
"526 583 LINE",
"523 561 LINE",
"608 561 LINE",
"519 0 LINE",
"536 23 LINE",
"210 583 LINE",
"101 583 LINE",
"98 561 LINE",
"183 561 LINE",
"97 22 LINE",
"12 22 LINE",
"9 0 LINE"
);
}
);
width = 698;
},
{
anchors = (
{
name = bottom;
position = "{328, 0}";
},
{
name = top;
position = "{420, 583}";
}
);
background = {
anchors = (
{
name = bottom;
position = "{328, 0}";
},
{
name = top;
position = "{420, 583}";
}
);
paths = (
{
closed = 1;
nodes = (
"263 0 LINE",
"282 120 LINE",
"232 120 LINE",
"267 340 LINE",
"395 0 LINE",
"607 0 LINE",
"680 463 LINE",
"730 463 LINE",
"749 583 LINE",
"484 583 LINE",
"465 463 LINE",
"515 463 LINE",
"485 273 LINE",
"367 583 LINE",
"90 583 LINE",
"71 463 LINE",
"121 463 LINE",
"67 120 LINE",
"17 120 LINE",
"-2 0 LINE"
);
}
);
};
guideLines = (
{
angle = -61.631;
position = "{250, 330}";
}
);
layerId = "EFCDB4D9-E20B-4A8D-9DB5-150AD166B0AE";
paths = (
{
closed = 1;
nodes = (
"263 0 LINE",
"282 120 LINE",
"232 120 LINE",
"274 384 LINE",
"258 382 LINE",
"395 0 LINE",
"607 0 LINE",
"680 463 LINE",
"730 463 LINE",
"749 583 LINE",
"484 583 LINE",
"465 463 LINE",
"515 463 LINE",
"478 229 LINE",
"494 231 LINE",
"367 583 LINE",
"90 583 LINE",
"71 463 LINE",
"121 463 LINE",
"67 120 LINE",
"17 120 LINE",
"-2 0 LINE"
);
}
);
width = 714;
},
{
anchors = (
{
name = bottom;
position = "{325, 0}";
},
{
name = top;
position = "{417, 583}";
}
);
background = {
anchors = (
{
name = bottom;
position = "{325, 0}";
},
{
name = top;
position = "{417, 583}";
}
);
paths = (
{
closed = 1;
nodes = (
"235 0 LINE",
"246 83 LINE",
"179 83 LINE",
"242 447 LINE",
"229 446 LINE",
"458 0 LINE",
"577 0 LINE",
"658 500 LINE",
"726 500 LINE",
"737 583 LINE",
"505 583 LINE",
"494 500 LINE",
"562 500 LINE",
"499 143 LINE",
"515 153 LINE",
"289 583 LINE",
"96 583 LINE",
"85 500 LINE",
"152 500 LINE",
"82 83 LINE",
"15 83 LINE",
"4 0 LINE"
);
}
);
};
layerId = "14AB8F11-4722-4116-93B5-2CBF67C8CE3C";
paths = (
{
closed = 1;
nodes = (
"235 0 LINE",
"248 83 LINE",
"181 83 LINE",
"239 448 LINE",
"225 446 LINE",
"458 0 LINE",
"578 0 LINE",
"657 500 LINE",
"724 500 LINE",
"737 583 LINE",
"506 583 LINE",
"493 500 LINE",
"560 500 LINE",
"503 142 LINE",
"516 153 LINE",
"289 583 LINE",
"96 583 LINE",
"83 500 LINE",
"150 500 LINE",
"84 83 LINE",
"17 83 LINE",
"4 0 LINE"
);
}
);
width = 706;
}
);
leftKerningGroup = H;
leftMetricsKey = H;
rightKerningGroup = N;
unicode = 004E;
userData = {
com.typemytype.robofont.layerData = {
b = {
anchors = (
);
components = (
);
contours = (
);
lib = {
};
name = N;
unicodes = (
);
width = 1444;
};
};
org.robofab.postScriptHintData = {
};
};
},
{
color = 3;
glyphname = Eng;
layers = (
{
background = {
paths = (
{
closed = 1;
nodes = (
"208 0 LINE",
"211 22 LINE",
"126 22 LINE",
"210 552 LINE",
"200 553 LINE",
"521 0 LINE",
"548 0 LINE",
"637 561 LINE",
"722 561 LINE",
"725 583 LINE",
"527 583 LINE",
"524 561 LINE",
"609 561 LINE",
"520 0 LINE",
"537 23 LINE",
"211 583 LINE",
"102 583 LINE",
"99 561 LINE",
"184 561 LINE",
"98 22 LINE",
"13 22 LINE",
"10 0 LINE"
);
}
);
};
layerId = "98C086B7-81AA-4491-8494-0C6A76849168";
paths = (
{
closed = 1;
nodes = (
"492 -181 OFFCURVE",
"524 -147 OFFCURVE",
"536 -74 CURVE SMOOTH",
"637 561 LINE",
"722 561 LINE",
"726 583 LINE",
"528 583 LINE",
"524 561 LINE",
"609 561 LINE",
"525 29 LINE",
"537 23 LINE",
"212 583 LINE",
"103 583 LINE",
"99 561 LINE",
"184 561 LINE",
"98 22 LINE",
"13 22 LINE",
"9 0 LINE",
"207 0 LINE",
"211 22 LINE",
"126 22 LINE",
"210 552 LINE",
"200 553 LINE",
"530 -16 LINE",
"522 11 LINE",
"508 -77 LINE SMOOTH",
"498 -139 OFFCURVE",
"476 -159 OFFCURVE",
"422 -159 CURVE SMOOTH",
"410 -159 OFFCURVE",
"399 -157 OFFCURVE",
"390 -154 CURVE",
"382 -176 LINE",
"395 -179 OFFCURVE",
"405 -181 OFFCURVE",
"420 -181 CURVE SMOOTH"
);
}
);
width = 700;
},
{
background = {
paths = (
{
closed = 1;
nodes = (
"502 -181 OFFCURVE",
"588 -119 OFFCURVE",
"608 8 CURVE SMOOTH",
"680 463 LINE",
"730 463 LINE",
"750 583 LINE",
"480 583 LINE",
"460 463 LINE",
"510 463 LINE",
"492 348 LINE",
"348 583 LINE",
"91 583 LINE",
"71 463 LINE",
"121 463 LINE",
"67 120 LINE",
"17 120 LINE",
"-2 0 LINE",
"268 0 LINE",
"287 120 LINE",
"237 120 LINE",
"270 330 LINE",
"459 12 LINE",
"451 86 LINE",
"438 4 LINE SMOOTH",
"431 -37 OFFCURVE",
"392 -51 OFFCURVE",
"365 -51 CURVE SMOOTH",
"344 -51 OFFCURVE",
"330 -47 OFFCURVE",
"319 -42 CURVE",
"270 -157 LINE",
"292 -169 OFFCURVE",
"329 -181 OFFCURVE",
"381 -181 CURVE SMOOTH"
);
}
);
};
guideLines = (
{
angle = -55.4456;
position = "{307, 583}";
}
);
layerId = "EFCDB4D9-E20B-4A8D-9DB5-150AD166B0AE";
paths = (
{
closed = 1;
nodes = (
"502 -181 OFFCURVE",
"586 -129 OFFCURVE",
"608 8 CURVE SMOOTH",
"680 463 LINE",
"730 463 LINE",
"749 583 LINE",
"479 583 LINE",
"460 463 LINE",
"510 463 LINE",
"485 304 LINE",
"510 310 LINE",
"348 583 LINE",
"91 583 LINE",
"71 463 LINE",
"121 463 LINE",
"67 120 LINE",
"17 120 LINE",
"-2 0 LINE",
"268 0 LINE",
"287 120 LINE",
"237 120 LINE",
"277 374 LINE",
"253 369 LINE",
"459 12 LINE",
"451 86 LINE",
"439 12 LINE SMOOTH",
"431 -39 OFFCURVE",
"402 -51 OFFCURVE",
"365 -51 CURVE SMOOTH",
"344 -51 OFFCURVE",
"330 -47 OFFCURVE",
"319 -42 CURVE",
"270 -157 LINE",
"292 -169 OFFCURVE",
"329 -181 OFFCURVE",
"391 -181 CURVE SMOOTH"
);
}
);
width = 714;
},
{
background = {
paths = (
{
closed = 1;
nodes = (
"1397 -181 OFFCURVE",
"1455 -136 OFFCURVE",
"1472 -23 CURVE SMOOTH",
"1559 500 LINE",
"1626 500 LINE",
"1638 583 LINE",
"1404 583 LINE",
"1392 500 LINE",
"1460 500 LINE",
"1405 201 LINE",
"1424 202 LINE",
"1180 583 LINE",
"997 583 LINE",
"985 500 LINE",
"1053 500 LINE",
"983 83 LINE",
"915 83 LINE",
"904 0 LINE",
"1138 0 LINE",
"1149 83 LINE",
"1082 83 LINE",
"1144 441 LINE",
"1127 438 LINE",
"1395 2 LINE",
"1387 58 LINE",
"1374 -21 LINE SMOOTH",
"1365 -76 OFFCURVE",
"1339 -91 OFFCURVE",
"1294 -91 CURVE SMOOTH",
"1277 -91 OFFCURVE",
"1265 -88 OFFCURVE",
"1255 -84 CURVE",
"1226 -164 LINE",
"1244 -173 OFFCURVE",
"1267 -181 OFFCURVE",
"1306 -181 CURVE SMOOTH"
);
},
{
closed = 1;
nodes = (
"235 0 LINE",
"248 83 LINE",
"181 83 LINE",
"239 448 LINE",
"225 446 LINE",
"458 0 LINE",
"578 0 LINE",
"657 500 LINE",
"724 500 LINE",
"737 583 LINE",
"506 583 LINE",
"493 500 LINE",
"560 500 LINE",
"503 142 LINE",
"516 153 LINE",
"289 583 LINE",
"96 583 LINE",
"83 500 LINE",
"150 500 LINE",
"84 83 LINE",
"17 83 LINE",
"4 0 LINE"
);
}
);
};
guideLines = (
{
angle = 260.8486;
position = "{534, 336}";
}
);
layerId = "14AB8F11-4722-4116-93B5-2CBF67C8CE3C";
paths = (
{
closed = 1;
nodes = (
"497 -181 OFFCURVE",
"556 -136 OFFCURVE",
"574 -23 CURVE SMOOTH",
"657 500 LINE",
"724 500 LINE",
"737 583 LINE",
"504 583 LINE",
"493 500 LINE",
"560 500 LINE",
"507 171 LINE",
"524 198 LINE",
"289 583 LINE",
"96 583 LINE",
"83 500 LINE",
"150 500 LINE",
"84 83 LINE",
"17 83 LINE",
"4 0 LINE",
"235 0 LINE",
"248 83 LINE",
"181 83 LINE",
"239 448 LINE",
"225 446 LINE",
"495 2 LINE",
"489 59 LINE",
"476 -21 LINE SMOOTH",
"467 -76 OFFCURVE",
"439 -93 OFFCURVE",
"399 -93 CURVE SMOOTH",
"377 -93 OFFCURVE",
"365 -88 OFFCURVE",
"355 -84 CURVE",
"326 -164 LINE",
"344 -173 OFFCURVE",
"367 -181 OFFCURVE",
"406 -181 CURVE SMOOTH"
);
}
);
width = 706;
}
);
leftKerningGroup = H;
leftMetricsKey = H;
rightKerningGroup = N;
rightMetricsKey = N;
unicode = 014A;
userData = {
org.robofab.postScriptHintData = {
};
};
},
{
color = 3;
glyphname = O;
layers = (
{
anchors = (
{
name = bottom;
position = "{321, 0}";
},
{
name = ogonek;
position = "{363, 0}";
},
{
name = top;
position = "{412, 583}";
},
{
name = topright;
position = "{498, 583}";
}
);
background = {
paths = (
{
closed = 1;
nodes = (
"1439 -10 OFFCURVE",
"1574 128 OFFCURVE",
"1574 339 CURVE SMOOTH",
"1574 494 OFFCURVE",
"1468 594 OFFCURVE",
"1300 594 CURVE SMOOTH",
"1097 594 OFFCURVE",
"962 455 OFFCURVE",
"962 245 CURVE SMOOTH",
"962 90 OFFCURVE",
"1068 -10 OFFCURVE",
"1236 -10 CURVE SMOOTH"
);
},
{
closed = 1;
nodes = (
"1087 15 OFFCURVE",
"994 102 OFFCURVE",
"994 245 CURVE SMOOTH",
"994 440 OFFCURVE",
"1115 569 OFFCURVE",
"1298 569 CURVE SMOOTH",
"1450 569 OFFCURVE",
"1543 481 OFFCURVE",
"1543 339 CURVE SMOOTH",
"1543 144 OFFCURVE",
"1421 15 OFFCURVE",
"1238 15 CURVE SMOOTH"
);
},
{
closed = 1;
nodes = (
"197 594 OFFCURVE",
"62 456 OFFCURVE",
"62 245 CURVE SMOOTH",
"62 90 OFFCURVE",
"171 -10 OFFCURVE",
"339 -10 CURVE SMOOTH",
"539 -10 OFFCURVE",
"674 129 OFFCURVE",
"674 339 CURVE SMOOTH",
"674 494 OFFCURVE",
"565 594 OFFCURVE",
"397 594 CURVE SMOOTH"
);
},
{
closed = 1;
nodes = (
"545 569 OFFCURVE",
"642 482 OFFCURVE",
"642 339 CURVE SMOOTH",
"642 144 OFFCURVE",
"521 15 OFFCURVE",
"341 15 CURVE SMOOTH",
"190 15 OFFCURVE",
"93 103 OFFCURVE",
"93 245 CURVE SMOOTH",
"93 440 OFFCURVE",
"215 569 OFFCURVE",
"395 569 CURVE SMOOTH"
);
}
);
};
layerId = "98C086B7-81AA-4491-8494-0C6A76849168";
paths = (
{
closed = 1;
nodes = (
"539 -10 OFFCURVE",
"674 129 OFFCURVE",
"674 339 CURVE SMOOTH",
"674 494 OFFCURVE",
"565 594 OFFCURVE",
"397 594 CURVE SMOOTH",
"197 594 OFFCURVE",
"62 455 OFFCURVE",
"62 245 CURVE SMOOTH",
"62 90 OFFCURVE",
"171 -10 OFFCURVE",
"339 -10 CURVE SMOOTH"
);
},
{
closed = 1;
nodes = (
"191 15 OFFCURVE",
"94 102 OFFCURVE",
"94 245 CURVE SMOOTH",
"94 440 OFFCURVE",
"215 569 OFFCURVE",
"395 569 CURVE SMOOTH",
"545 569 OFFCURVE",
"642 482 OFFCURVE",
"642 339 CURVE SMOOTH",
"642 144 OFFCURVE",
"521 15 OFFCURVE",
"341 15 CURVE SMOOTH"
);
}
);
width = 706;
},
{
anchors = (
{
name = bottom;
position = "{333, 0}";
},
{
name = ogonek;
position = "{397, 0}";
},
{
name = top;
position = "{425, 583}";
},
{
name = topright;
position = "{533, 583}";
}
);
background = {
paths = (
{
closed = 1;
nodes = (
"167 594 OFFCURVE",
"40 435 OFFCURVE",
"40 260 CURVE SMOOTH",
"40 94 OFFCURVE",
"158 -10 OFFCURVE",
"351 -10 CURVE SMOOTH",
"594 -10 OFFCURVE",
"720 149 OFFCURVE",
"720 324 CURVE SMOOTH",
"720 489 OFFCURVE",
"603 594 OFFCURVE",
"411 594 CURVE SMOOTH"
);
},
{
closed = 1;
nodes = (
"476 454 OFFCURVE",
"514 405 OFFCURVE",
"514 334 CURVE SMOOTH",
"514 235 OFFCURVE",
"468 130 OFFCURVE",
"360 130 CURVE SMOOTH",
"285 130 OFFCURVE",
"246 179 OFFCURVE",
"246 250 CURVE SMOOTH",
"246 349 OFFCURVE",
"292 454 OFFCURVE",
"402 454 CURVE SMOOTH"
);
}
);
};
layerId = "EFCDB4D9-E20B-4A8D-9DB5-150AD166B0AE";
paths = (
{
closed = 1;
nodes = (
"595 -10 OFFCURVE",
"720 149 OFFCURVE",
"720 324 CURVE SMOOTH",
"720 489 OFFCURVE",
"600 594 OFFCURVE",
"406 594 CURVE SMOOTH",
"163 594 OFFCURVE",
"40 435 OFFCURVE",
"40 260 CURVE SMOOTH",
"40 95 OFFCURVE",
"158 -10 OFFCURVE",
"350 -10 CURVE SMOOTH"
);
},
{
closed = 1;
nodes = (
"284 130 OFFCURVE",
"246 179 OFFCURVE",
"246 250 CURVE SMOOTH",
"246 337 OFFCURVE",
"283 454 OFFCURVE",
"397 454 CURVE SMOOTH",
"476 454 OFFCURVE",
"514 405 OFFCURVE",
"514 334 CURVE SMOOTH",
"514 247 OFFCURVE",
"476 130 OFFCURVE",
"362 130 CURVE SMOOTH"
);
}
);
width = 731;
},
{
anchors = (
{
name = bottom;
position = "{327, 0}";
},
{
name = ogonek;
position = "{380, 0}";
},
{
name = top;
position = "{419, 583}";
},
{
name = topright;
position = "{516, 583}";
}
);
background = {
anchors = (
{
name = bottom;
position = "{327, 0}";
},
{
name = ogonek;
position = "{380, 0}";
},
{
name = top;
position = "{419, 583}";
},
{
name = topright;
position = "{516, 583}";
}
);
paths = (
{
closed = 1;
nodes = (
"1367 -10 OFFCURVE",
"1497 142 OFFCURVE",
"1497 330 CURVE SMOOTH",
"1497 491 OFFCURVE",
"1384 594 OFFCURVE",
"1203 594 CURVE SMOOTH",
"982 594 OFFCURVE",
"851 443 OFFCURVE",
"851 254 CURVE SMOOTH",
"851 93 OFFCURVE",
"964 -10 OFFCURVE",
"1144 -10 CURVE SMOOTH"
);
},
{
closed = 1;
nodes = (
"1038 87 OFFCURVE",
"970 150 OFFCURVE",
"970 248 CURVE SMOOTH",
"970 376 OFFCURVE",
"1051 497 OFFCURVE",
"1196 497 CURVE SMOOTH",
"1311 497 OFFCURVE",
"1378 434 OFFCURVE",
"1378 336 CURVE SMOOTH",
"1378 208 OFFCURVE",
"1297 87 OFFCURVE",
"1152 87 CURVE SMOOTH"
);
},
{
closed = 1;
nodes = (
"567 -10 OFFCURVE",
"697 126 OFFCURVE",
"697 330 CURVE SMOOTH",
"697 491 OFFCURVE",
"581 594 OFFCURVE",
"399 594 CURVE SMOOTH",
"182 594 OFFCURVE",
"51 457 OFFCURVE",
"51 254 CURVE SMOOTH",
"51 93 OFFCURVE",
"167 -10 OFFCURVE",
"349 -10 CURVE SMOOTH"
);
},
{
closed = 1;
nodes = (
"242 89 OFFCURVE",
"170 154 OFFCURVE",
"170 257 CURVE SMOOTH",
"170 398 OFFCURVE",
"250 495 OFFCURVE",
"392 495 CURVE SMOOTH",
"507 495 OFFCURVE",
"578 431 OFFCURVE",
"578 327 CURVE SMOOTH",
"578 185 OFFCURVE",
"498 89 OFFCURVE",
"357 89 CURVE SMOOTH"
);
}
);
};
layerId = "14AB8F11-4722-4116-93B5-2CBF67C8CE3C";
paths = (
{
closed = 1;
nodes = (
"583 -10 OFFCURVE",
"697 146 OFFCURVE",
"697 320 CURVE SMOOTH",
"697 490 OFFCURVE",
"575 594 OFFCURVE",
"395 594 CURVE SMOOTH",
"165 594 OFFCURVE",
"51 438 OFFCURVE",
"51 264 CURVE SMOOTH",
"51 94 OFFCURVE",
"174 -10 OFFCURVE",
"353 -10 CURVE SMOOTH"
);
},
{
closed = 1;
nodes = (
"242 87 OFFCURVE",
"170 153 OFFCURVE",
"170 269 CURVE SMOOTH",
"170 404 OFFCURVE",
"249 497 OFFCURVE",
"389 497 CURVE SMOOTH",
"507 497 OFFCURVE",
"578 432 OFFCURVE",
"578 315 CURVE SMOOTH",
"578 180 OFFCURVE",
"499 87 OFFCURVE",
"360 87 CURVE SMOOTH"
);
}
);
width = 719;
}
);
leftKerningGroup = O;
rightKerningGroup = O;
rightMetricsKey = "=|";
unicode = 004F;
userData = {
com.typemytype.robofont.layerData = {
b = {
anchors = (
);
components = (
);
contours = (
);
lib = {
};
name = O;
unicodes = (
);
width = 1456;
};
};
org.robofab.postScriptHintData = {
};
};
},
{
color = 3;
glyphname = Oslash;
layers = (
{
background = {
paths = (
{
closed = 1;
nodes = (
"605 590 LINE",
"585 606 LINE",
"105 -5 LINE",
"125 -21 LINE"
);
},
{
closed = 1;
nodes = (
"539 -10 OFFCURVE",
"674 129 OFFCURVE",
"674 339 CURVE SMOOTH",
"674 494 OFFCURVE",
"565 594 OFFCURVE",
"397 594 CURVE SMOOTH",
"197 594 OFFCURVE",
"62 455 OFFCURVE",
"62 245 CURVE SMOOTH",
"62 90 OFFCURVE",
"171 -10 OFFCURVE",
"339 -10 CURVE SMOOTH"
);
},
{
closed = 1;
nodes = (
"191 15 OFFCURVE",
"94 102 OFFCURVE",
"94 245 CURVE SMOOTH",
"94 440 OFFCURVE",
"215 569 OFFCURVE",
"395 569 CURVE SMOOTH",
"545 569 OFFCURVE",
"642 482 OFFCURVE",
"642 339 CURVE SMOOTH",
"642 144 OFFCURVE",
"521 15 OFFCURVE",
"341 15 CURVE SMOOTH"
);
}
);
};
layerId = "98C086B7-81AA-4491-8494-0C6A76849168";
paths = (
{
closed = 1;
nodes = (
"169 35 LINE",
"214 6 OFFCURVE",
"272 -10 OFFCURVE",
"339 -10 CURVE SMOOTH",
"539 -10 OFFCURVE",
"674 129 OFFCURVE",
"674 339 CURVE SMOOTH",
"674 430 OFFCURVE",
"636 503 OFFCURVE",
"571 546 CURVE",
"605 590 LINE",
"585 606 LINE",
"549 560 LINE",
"507 582 OFFCURVE",
"455 594 OFFCURVE",
"397 594 CURVE SMOOTH",
"197 594 OFFCURVE",
"62 455 OFFCURVE",
"62 245 CURVE SMOOTH",
"62 162 OFFCURVE",
"93 95 OFFCURVE",
"148 50 CURVE",
"105 -5 LINE",
"125 -21 LINE"
);
},
{
closed = 1;
nodes = (
"94 440 OFFCURVE",
"215 569 OFFCURVE",
"395 569 CURVE SMOOTH",
"449 569 OFFCURVE",
"496 558 OFFCURVE",
"535 536 CURVE",
"538 546 LINE",
"161 66 LINE",
"168 70 LINE",
"120 110 OFFCURVE",
"94 170 OFFCURVE",
"94 245 CURVE SMOOTH"
);
},
{
closed = 1;
nodes = (
"560 533 LINE",
"549 528 LINE",
"608 488 OFFCURVE",
"642 423 OFFCURVE",
"642 339 CURVE SMOOTH",
"642 144 OFFCURVE",
"521 15 OFFCURVE",
"341 15 CURVE SMOOTH",
"277 15 OFFCURVE",
"223 31 OFFCURVE",
"181 60 CURVE",
"181 50 LINE"
);
}
);
width = 706;
},
{
background = {
paths = (
{
closed = 1;
nodes = (
"656 554 LINE",
"563 629 LINE",
"74 30 LINE",
"167 -45 LINE"
);
},
{
closed = 1;
nodes = (
"594 -10 OFFCURVE",
"720 149 OFFCURVE",
"720 324 CURVE SMOOTH",
"720 489 OFFCURVE",
"603 594 OFFCURVE",
"409 594 CURVE SMOOTH",
"166 594 OFFCURVE",
"40 435 OFFCURVE",
"40 260 CURVE SMOOTH",
"40 95 OFFCURVE",
"157 -10 OFFCURVE",
"349 -10 CURVE SMOOTH"
);
},
{
closed = 1;
nodes = (
"284 130 OFFCURVE",
"246 179 OFFCURVE",
"246 250 CURVE SMOOTH",
"246 337 OFFCURVE",
"286 454 OFFCURVE",
"397 454 CURVE SMOOTH",
"476 454 OFFCURVE",
"514 405 OFFCURVE",
"514 334 CURVE SMOOTH",
"514 247 OFFCURVE",
"473 130 OFFCURVE",
"362 130 CURVE SMOOTH"
);
}
);
};
layerId = "EFCDB4D9-E20B-4A8D-9DB5-150AD166B0AE";
paths = (
{
closed = 1;
nodes = (
"213 11 LINE",
"252 -3 OFFCURVE",
"298 -10 OFFCURVE",
"349 -10 CURVE SMOOTH",
"594 -10 OFFCURVE",
"720 149 OFFCURVE",
"720 324 CURVE SMOOTH",
"720 409 OFFCURVE",
"689 478 OFFCURVE",
"632 525 CURVE",
"656 554 LINE",
"563 629 LINE",
"523 580 LINE",
"489 589 OFFCURVE",
"451 594 OFFCURVE",
"409 594 CURVE SMOOTH",
"166 594 OFFCURVE",
"40 435 OFFCURVE",
"40 260 CURVE SMOOTH",
"40 184 OFFCURVE",
"65 121 OFFCURVE",
"110 75 CURVE",
"74 30 LINE",
"167 -45 LINE"
);
},
{
closed = 1;
nodes = (
"246 337 OFFCURVE",
"286 454 OFFCURVE",
"397 454 CURVE SMOOTH",
"418 454 OFFCURVE",
"435 450 OFFCURVE",
"446 446 CURVE",
"452 487 LINE",
"219 200 LINE",
"252 205 LINE",
"247 220 OFFCURVE",
"246 235 OFFCURVE",
"246 250 CURVE SMOOTH"
);
},
{
closed = 1;
nodes = (
"536 415 LINE",
"497 404 LINE",
"509 387 OFFCURVE",
"514 360 OFFCURVE",
"514 334 CURVE SMOOTH",
"514 247 OFFCURVE",
"473 130 OFFCURVE",
"362 130 CURVE SMOOTH",
"332 130 OFFCURVE",
"307 137 OFFCURVE",
"287 152 CURVE",
"283 104 LINE"
);
}
);
width = 731;
},
{
background = {
paths = (
{
closed = 1;
nodes = (
"191 20 LINE",
"233 0 OFFCURVE",
"285 -10 OFFCURVE",
"344 -10 CURVE SMOOTH",
"567 -10 OFFCURVE",
"697 142 OFFCURVE",
"697 330 CURVE SMOOTH",
"697 417 OFFCURVE",
"663 487 OFFCURVE",
"602 533 CURVE",
"631 568 LINE",
"574 620 LINE",
"536 573 LINE",
"498 586 OFFCURVE",
"453 594 OFFCURVE",
"403 594 CURVE SMOOTH",
"182 594 OFFCURVE",
"51 443 OFFCURVE",
"51 254 CURVE SMOOTH",
"51 176 OFFCURVE",
"79 111 OFFCURVE",
"129 66 CURVE",
"90 17 LINE",
"146 -36 LINE"
);
},
{
closed = 1;
nodes = (
"170 376 OFFCURVE",
"251 497 OFFCURVE",
"396 497 CURVE SMOOTH",
"434 497 OFFCURVE",
"466 491 OFFCURVE",
"491 480 CURVE",
"495 509 LINE",
"190 150 LINE",
"210 154 LINE",
"184 179 OFFCURVE",
"170 211 OFFCURVE",
"170 248 CURVE SMOOTH"
);
},
{
closed = 1;
nodes = (
"548 459 LINE",
"523 451 LINE",
"559 425 OFFCURVE",
"578 384 OFFCURVE",
"578 336 CURVE SMOOTH",
"578 208 OFFCURVE",
"497 87 OFFCURVE",
"352 87 CURVE SMOOTH",
"305 87 OFFCURVE",
"265 97 OFFCURVE",
"234 118 CURVE",
"232 84 LINE"
);
},
{
closed = 1;
nodes = (
"-317 -10 OFFCURVE",
"-203 146 OFFCURVE",
"-203 320 CURVE SMOOTH",
"-203 490 OFFCURVE",
"-325 594 OFFCURVE",
"-505 594 CURVE SMOOTH",
"-735 594 OFFCURVE",
"-849 438 OFFCURVE",
"-849 264 CURVE SMOOTH",
"-849 94 OFFCURVE",
"-726 -10 OFFCURVE",
"-547 -10 CURVE SMOOTH"
);
},
{
closed = 1;
nodes = (
"-658 89 OFFCURVE",
"-730 154 OFFCURVE",
"-730 269 CURVE SMOOTH",
"-730 403 OFFCURVE",
"-651 495 OFFCURVE",
"-511 495 CURVE SMOOTH",
"-393 495 OFFCURVE",
"-322 431 OFFCURVE",
"-322 315 CURVE SMOOTH",
"-322 181 OFFCURVE",
"-401 89 OFFCURVE",
"-540 89 CURVE SMOOTH"
);
}
);
};
guideLines = (
{
angle = 231.2476;
position = "{332, 319}";
},
{
angle = 51.2362;
position = "{389, 266}";
}
);
layerId = "14AB8F11-4722-4116-93B5-2CBF67C8CE3C";
paths = (
{
closed = 1;
nodes = (
"191 20 LINE",
"233 0 OFFCURVE",
"294 -10 OFFCURVE",
"353 -10 CURVE SMOOTH",
"583 -10 OFFCURVE",
"697 146 OFFCURVE",
"697 320 CURVE SMOOTH",
"697 407 OFFCURVE",
"663 487 OFFCURVE",
"602 533 CURVE",
"634 571 LINE",
"574 620 LINE",
"536 573 LINE",
"498 586 OFFCURVE",
"445 594 OFFCURVE",
"395 594 CURVE SMOOTH",
"165 594 OFFCURVE",
"51 438 OFFCURVE",
"51 264 CURVE SMOOTH",
"51 186 OFFCURVE",
"79 111 OFFCURVE",
"129 66 CURVE",
"87 14 LINE",
"147 -35 LINE"
);
},
{
closed = 1;
nodes = (
"170 397 OFFCURVE",
"244 497 OFFCURVE",
"389 497 CURVE SMOOTH",
"427 497 OFFCURVE",
"465 489 OFFCURVE",
"488 478 CURVE",
"485 509 LINE",
"192 144 LINE",
"204 154 LINE",
"179 185 OFFCURVE",
"170 232 OFFCURVE",
"170 269 CURVE SMOOTH"
);
},
{
closed = 1;
nodes = (
"544 459 LINE",
"522 454 LINE",
"563 420 OFFCURVE",
"578 363 OFFCURVE",
"578 315 CURVE SMOOTH",
"578 181 OFFCURVE",
"499 87 OFFCURVE",
"360 87 CURVE SMOOTH",
"313 87 OFFCURVE",
"275 97 OFFCURVE",
"243 116 CURVE",
"244 86 LINE"
);
}
);
width = 718.5;
}
);
leftKerningGroup = O;
leftMetricsKey = O;
rightKerningGroup = O;
rightMetricsKey = O;
unicode = 00D8;
userData = {
com.typemytype.robofont.layerData = {
b = {
anchors = (
);
components = (
);
contours = (
);
lib = {
};
name = Oslash;
unicodes = (
);
width = 1598;
};
};
org.robofab.postScriptHintData = {
};
};
},
{
color = 3;
glyphname = OE;
layers = (
{
background = {
paths = (
{
closed = 1;
nodes = (
"2077 0 LINE",
"2103 165 LINE",
"2077 165 LINE",
"2054 22 LINE",
"1714 22 LINE",
"1756 286 LINE",
"1972 286 LINE",
"1958 196 LINE",
"1983 196 LINE",
"2014 393 LINE",
"1988 393 LINE",
"1975 308 LINE",
"1760 308 LINE",
"1800 561 LINE",
"2125 561 LINE",
"2103 423 LINE",
"2129 423 LINE",
"2154 583 LINE",
"1620 583 LINE SMOOTH",
"1390 583 OFFCURVE",
"1291 457 OFFCURVE",
"1265 293 CURVE SMOOTH",
"1239 127 OFFCURVE",
"1299 0 OFFCURVE",
"1531 0 CURVE SMOOTH"
);
},
{
closed = 1;
nodes = (
"1321 22 OFFCURVE",
"1273 140 OFFCURVE",
"1297 294 CURVE SMOOTH",
"1322 447 OFFCURVE",
"1406 561 OFFCURVE",
"1625 561 CURVE SMOOTH",
"1770 561 LINE",
"1684 22 LINE",
"1536 22 LINE SMOOTH"
);
},
{
closed = 1;
nodes = (
"410 583 LINE SMOOTH",
"125 583 OFFCURVE",
"61 387 OFFCURVE",
"61 234 CURVE SMOOTH",
"61 95 OFFCURVE",
"141 0 OFFCURVE",
"341 0 CURVE SMOOTH",
"616 0 LINE",
"619 22 LINE",
"534 22 LINE",
"620 561 LINE",
"705 561 LINE",
"708 583 LINE"
);
},
{
closed = 1;
nodes = (
"504 22 LINE",
"346 22 LINE SMOOTH",
"159 22 OFFCURVE",
"93 107 OFFCURVE",
"93 233 CURVE SMOOTH",
"93 382 OFFCURVE",
"149 561 OFFCURVE",
"412 561 CURVE SMOOTH",
"590 561 LINE"
);
}
);
};
layerId = "98C086B7-81AA-4491-8494-0C6A76849168";
paths = (
{
closed = 1;
nodes = (
"877 0 LINE",
"903 165 LINE",
"877 165 LINE",
"854 22 LINE",
"514 22 LINE",
"556 286 LINE",
"772 286 LINE",
"758 196 LINE",
"783 196 LINE",
"814 393 LINE",
"788 393 LINE",
"775 308 LINE",
"560 308 LINE",
"600 561 LINE",
"925 561 LINE",
"903 423 LINE",
"929 423 LINE",
"954 583 LINE",
"410 583 LINE SMOOTH",
"125 583 OFFCURVE",
"61 387 OFFCURVE",
"61 234 CURVE SMOOTH",
"61 95 OFFCURVE",
"141 0 OFFCURVE",
"341 0 CURVE SMOOTH"
);
},
{
closed = 1;
nodes = (
"159 22 OFFCURVE",
"93 107 OFFCURVE",
"93 233 CURVE SMOOTH",
"93 382 OFFCURVE",
"149 561 OFFCURVE",
"412 561 CURVE SMOOTH",
"570 561 LINE",
"484 22 LINE",
"346 22 LINE SMOOTH"
);
}
);
width = 965;
},
{
background = {
paths = (
{
closed = 1;
nodes = (
"408 583 LINE SMOOTH",
"177 583 OFFCURVE",
"38 456 OFFCURVE",
"38 242 CURVE SMOOTH",
"38 86 OFFCURVE",
"139 0 OFFCURVE",
"336 0 CURVE SMOOTH",
"669 0 LINE",
"688 120 LINE",
"638 120 LINE",
"692 463 LINE",
"742 463 LINE",
"761 583 LINE"
);
},
{
closed = 1;
nodes = (
"438 120 LINE",
"373 120 LINE SMOOTH",
"284 120 OFFCURVE",
"243 157 OFFCURVE",
"243 243 CURVE SMOOTH",
"243 331 OFFCURVE",
"271 463 OFFCURVE",
"412 463 CURVE SMOOTH",
"492 463 LINE"
);
}
);
};
layerId = "EFCDB4D9-E20B-4A8D-9DB5-150AD166B0AE";
paths = (
{
closed = 1;
nodes = (
"932 0 LINE",
"966 215 LINE",
"841 215 LINE",
"826 120 LINE",
"628 120 LINE",
"646 235 LINE",
"694 235 LINE",
"686 185 LINE",
"786 185 LINE",
"820 400 LINE",
"720 400 LINE",
"713 355 LINE",
"665 355 LINE",
"682 463 LINE",
"860 463 LINE",
"846 373 LINE",
"971 373 LINE",
"1004 583 LINE",
"408 583 LINE SMOOTH",
"177 583 OFFCURVE",
"38 456 OFFCURVE",
"38 242 CURVE SMOOTH",
"38 86 OFFCURVE",
"139 0 OFFCURVE",
"336 0 CURVE SMOOTH"
);
},
{
closed = 1;
nodes = (
"284 120 OFFCURVE",
"243 157 OFFCURVE",
"243 243 CURVE SMOOTH",
"243 331 OFFCURVE",
"271 463 OFFCURVE",
"412 463 CURVE SMOOTH",
"482 463 LINE",
"428 120 LINE",
"373 120 LINE SMOOTH"
);
}
);
width = 980;
},
{
background = {
paths = (
{
closed = 1;
nodes = (
"1903 0 LINE",
"1933 196 LINE",
"1857 196 LINE",
"1838 83 LINE",
"1569 83 LINE",
"1599 254 LINE",
"1731 254 LINE",
"1720 189 LINE",
"1783 189 LINE",
"1815 397 LINE",
"1752 397 LINE",
"1742 337 LINE",
"1611 337 LINE",
"1639 500 LINE",
"1891 500 LINE",
"1873 392 LINE",
"1948 392 LINE",
"1977 583 LINE",
"1407 583 LINE SMOOTH",
"1149 583 OFFCURVE",
"1048 430 OFFCURVE",
"1048 239 CURVE SMOOTH",
"1048 89 OFFCURVE",
"1138 0 OFFCURVE",
"1337 0 CURVE SMOOTH"
);
},
{
closed = 1;
nodes = (
"1220 83 OFFCURVE",
"1166 138 OFFCURVE",
"1166 239 CURVE SMOOTH",
"1166 350 OFFCURVE",
"1208 500 OFFCURVE",
"1410 500 CURVE SMOOTH",
"1524 500 LINE",
"1454 83 LINE",
"1358 83 LINE SMOOTH"
);
},
{
closed = 1;
nodes = (
"902 0 LINE",
"933 196 LINE",
"857 196 LINE",
"839 83 LINE",
"571 83 LINE",
"598 254 LINE",
"725 254 LINE",
"715 189 LINE",
"785 189 LINE",
"818 397 LINE",
"748 397 LINE",
"738 337 LINE",
"611 337 LINE",
"637 500 LINE",
"888 500 LINE",
"871 392 LINE",
"947 392 LINE",
"976 583 LINE",
"468 583 LINE",
"455 500 LINE",
"522 500 LINE",
"456 83 LINE",
"389 83 LINE",
"376 0 LINE"
);
}
);
};
layerId = "14AB8F11-4722-4116-93B5-2CBF67C8CE3C";
paths = (
{
closed = 1;
nodes = (
"906 0 LINE",
"937 196 LINE",
"861 196 LINE",
"843 83 LINE",
"575 83 LINE",
"602 254 LINE",
"729 254 LINE",
"719 189 LINE",
"789 189 LINE",
"822 397 LINE",
"752 397 LINE",
"742 337 LINE",
"615 337 LINE",
"641 500 LINE",
"892 500 LINE",
"875 392 LINE",
"951 392 LINE",
"981 583 LINE",
"407 583 LINE SMOOTH",
"149 583 OFFCURVE",
"48 430 OFFCURVE",
"48 239 CURVE SMOOTH",
"48 89 OFFCURVE",
"138 0 OFFCURVE",
"337 0 CURVE SMOOTH"
);
},
{
closed = 1;
nodes = (
"220 83 OFFCURVE",
"166 138 OFFCURVE",
"166 239 CURVE SMOOTH",
"166 350 OFFCURVE",
"208 500 OFFCURVE",
"410 500 CURVE SMOOTH",
"526 500 LINE",
"460 83 LINE",
"358 83 LINE SMOOTH"
);
}
);
width = 977;
}
);
leftKerningGroup = O;
leftMetricsKey = O;
rightKerningGroup = E;
rightMetricsKey = E;
unicode = 0152;
userData = {
com.typemytype.robofont.layerData = {
b = {
anchors = (
);
components = (
);
contours = (
);
lib = {
};
name = OE;
unicodes = (
);
width = 1953;
};
};
org.robofab.postScriptHintData = {
};
};
},
{
color = 3;
glyphname = P;
layers = (
{
anchors = (
{
name = top;
position = "{367, 583}";
}
);
background = {
anchors = (
{
name = top;
position = "{306, 583}";
}
);
paths = (
{
closed = 1;
nodes = (
"260 0 LINE",
"260 22 LINE",
"155 22 LINE",
"155 561 LINE",
"328 561 LINE SMOOTH",
"436 561 OFFCURVE",
"473 505 OFFCURVE",
"473 424 CURVE SMOOTH",
"473 341 OFFCURVE",
"436 287 OFFCURVE",
"328 287 CURVE SMOOTH",
"205 287 LINE",
"205 265 LINE",
"336 265 LINE SMOOTH",
"449 265 OFFCURVE",
"505 323 OFFCURVE",
"505 424 CURVE SMOOTH",
"505 525 OFFCURVE",
"449 583 OFFCURVE",
"336 583 CURVE SMOOTH",
"40 583 LINE",
"40 561 LINE",
"125 561 LINE",
"125 22 LINE",
"40 22 LINE",
"40 0 LINE"
);
}
);
};
layerId = "98C086B7-81AA-4491-8494-0C6A76849168";
paths = (
{
closed = 1;
nodes = (
"229 0 LINE",
"232 22 LINE",
"127 22 LINE",
"213 561 LINE",
"376 561 LINE SMOOTH",
"471 561 OFFCURVE",
"512 527 OFFCURVE",
"512 455 CURVE SMOOTH",
"512 346 OFFCURVE",
"456 287 OFFCURVE",
"352 287 CURVE SMOOTH",
"219 287 LINE",
"216 265 LINE",
"357 265 LINE SMOOTH",
"476 265 OFFCURVE",
"543 337 OFFCURVE",
"543 455 CURVE SMOOTH",
"543 538 OFFCURVE",
"488 583 OFFCURVE",
"385 583 CURVE SMOOTH",
"101 583 LINE",
"98 561 LINE",
"183 561 LINE",
"97 22 LINE",
"12 22 LINE",
"9 0 LINE"
);
}
);
width = 561;
},
{
anchors = (
{
name = top;
position = "{374, 583}";
}
);
background = {
paths = (
{
closed = 1;
nodes = (
"328 0 LINE",
"347 120 LINE",
"267 120 LINE",
"321 463 LINE",
"382 463 LINE SMOOTH",
"438 463 OFFCURVE",
"461 442 OFFCURVE",
"453 394 CURVE SMOOTH",
"448 357 OFFCURVE",
"422 338 OFFCURVE",
"382 338 CURVE SMOOTH",
"341 338 LINE",
"322 218 LINE",
"401 218 LINE SMOOTH",
"559 218 OFFCURVE",
"640 274 OFFCURVE",
"657 385 CURVE SMOOTH",
"678 516 OFFCURVE",
"595 583 OFFCURVE",
"439 583 CURVE SMOOTH",
"90 583 LINE",
"71 463 LINE",
"121 463 LINE",
"67 120 LINE",
"17 120 LINE",
"-2 0 LINE"
);
}
);
};
layerId = "EFCDB4D9-E20B-4A8D-9DB5-150AD166B0AE";
paths = (
{
closed = 1;
nodes = (
"328 0 LINE",
"347 120 LINE",
"267 120 LINE",
"321 463 LINE",
"382 463 LINE SMOOTH",
"431 463 OFFCURVE",
"455 447 OFFCURVE",
"455 406 CURVE SMOOTH",
"455 369 OFFCURVE",
"433 338 OFFCURVE",
"382 338 CURVE SMOOTH",
"341 338 LINE",
"322 218 LINE",
"401 218 LINE SMOOTH",
"559 218 OFFCURVE",
"660 279 OFFCURVE",
"660 419 CURVE SMOOTH",
"660 529 OFFCURVE",
"579 583 OFFCURVE",
"439 583 CURVE SMOOTH",
"90 583 LINE",
"71 463 LINE",
"121 463 LINE",
"67 120 LINE",
"17 120 LINE",
"-2 0 LINE"
);
}
);
width = 639;
},
{
anchors = (
{
name = top;
position = "{371, 583}";
}
);
background = {
anchors = (
{
name = top;
position = "{371, 583}";
}
);
paths = (
{
closed = 1;
nodes = (
"279 0 LINE",
"290 83 LINE",
"197 83 LINE",
"267 500 LINE",
"379 500 LINE SMOOTH",
"451 500 OFFCURVE",
"484 477 OFFCURVE",
"484 424 CURVE SMOOTH",
"484 360 OFFCURVE",
"445 319 OFFCURVE",
"367 319 CURVE SMOOTH",
"280 319 LINE",
"269 236 LINE",
"379 236 LINE SMOOTH",
"518 236 OFFCURVE",
"602 301 OFFCURVE",
"602 433 CURVE SMOOTH",
"602 532 OFFCURVE",
"534 583 OFFCURVE",
"412 583 CURVE SMOOTH",
"96 583 LINE",
"85 500 LINE",
"152 500 LINE",
"82 83 LINE",
"15 83 LINE",
"4 0 LINE"
);
}
);
};
layerId = "14AB8F11-4722-4116-93B5-2CBF67C8CE3C";
paths = (
{
closed = 1;
nodes = (
"279 0 LINE",
"292 83 LINE",
"199 83 LINE",
"265 500 LINE",
"376 500 LINE SMOOTH",
"448 500 OFFCURVE",
"481 477 OFFCURVE",
"481 424 CURVE SMOOTH",
"481 360 OFFCURVE",
"442 319 OFFCURVE",
"364 319 CURVE SMOOTH",
"282 319 LINE",
"269 236 LINE",
"376 236 LINE SMOOTH",
"515 236 OFFCURVE",
"599 301 OFFCURVE",
"599 433 CURVE SMOOTH",
"599 532 OFFCURVE",
"531 583 OFFCURVE",
"409 583 CURVE SMOOTH",
"96 583 LINE",
"83 500 LINE",
"150 500 LINE",
"84 83 LINE",
"17 83 LINE",
"4 0 LINE"
);
}
);
width = 599;
}
);
leftKerningGroup = H;
leftMetricsKey = H;
rightKerningGroup = P;
unicode = 0050;
userData = {
com.typemytype.robofont.layerData = {
b = {
anchors = (
);
components = (
);
contours = (
{
points = (
{
segmentType = line;
smooth = 0;
x = 353;
y = 1095;
},
{
segmentType = line;
smooth = 1;
x = 759;
y = 1095;
},
{
smooth = 0;
x = 936;
y = 1095;
},
{
smooth = 0;
x = 1024;
y = 960;
},
{
segmentType = curve;
smooth = 1;
x = 1024;
y = 823;
},
{
smooth = 0;
x = 1024;
y = 683;
},
{
smooth = 0;
x = 934;
y = 544;
},
{
segmentType = curve;
smooth = 1;
x = 759;
y = 544;
},
{
segmentType = line;
smooth = 0;
x = 353;
y = 544;
}
);
},
{
points = (
{
segmentType = line;
smooth = 0;
x = 135;
y = 0;
},
{
segmentType = line;
smooth = 0;
x = 512;
y = 0;
},
{
segmentType = line;
smooth = 0;
x = 512;
y = 58;
},
{
segmentType = line;
smooth = 0;
x = 353;
y = 58;
},
{
segmentType = line;
smooth = 0;
x = 353;
y = 483;
},
{
segmentType = line;
smooth = 1;
x = 759;
y = 483;
},
{
smooth = 0;
x = 984;
y = 483;
},
{
smooth = 0;
x = 1098;
y = 656;
},
{
segmentType = curve;
smooth = 1;
x = 1098;
y = 826;
},
{
smooth = 0;
x = 1098;
y = 989;
},
{
smooth = 0;
x = 984;
y = 1154;
},
{
segmentType = curve;
smooth = 1;
x = 759;
y = 1154;
},
{
segmentType = line;
smooth = 0;
x = 122;
y = 1154;
},
{
segmentType = line;
smooth = 0;
x = 122;
y = 1095;
},
{
segmentType = line;
smooth = 0;
x = 278;
y = 1095;
},
{
segmentType = line;
smooth = 0;
x = 278;
y = 58;
},
{
segmentType = line;
smooth = 0;
x = 135;
y = 58;
}
);
}
);
lib = {
};
name = P;
unicodes = (
);
width = 1226;
};
};
org.robofab.postScriptHintData = {
};
};
},
{
color = 3;
glyphname = Thorn;
layers = (
{
background = {
paths = (
{
closed = 1;
nodes = (
"210 -120 LINE",
"213 -98 LINE",
"108 -98 LINE",
"194 441 LINE",
"357 441 LINE SMOOTH",
"452 441 OFFCURVE",
"493 407 OFFCURVE",
"493 335 CURVE SMOOTH",
"493 226 OFFCURVE",
"437 167 OFFCURVE",
"333 167 CURVE SMOOTH",
"200 167 LINE",
"197 145 LINE",
"338 145 LINE SMOOTH",
"457 145 OFFCURVE",
"524 217 OFFCURVE",
"524 335 CURVE SMOOTH",
"524 418 OFFCURVE",
"469 463 OFFCURVE",
"366 463 CURVE SMOOTH",
"82 463 LINE",
"79 441 LINE",
"164 441 LINE",
"78 -98 LINE",
"-7 -98 LINE",
"-10 -120 LINE"
);
}
);
};
layerId = "98C086B7-81AA-4491-8494-0C6A76849168";
paths = (
{
closed = 1;
nodes = (
"229 0 LINE",
"232 22 LINE",
"127 22 LINE",
"194 441 LINE",
"357 441 LINE SMOOTH",
"452 441 OFFCURVE",
"493 407 OFFCURVE",
"493 335 CURVE SMOOTH",
"493 226 OFFCURVE",
"437 167 OFFCURVE",
"333 167 CURVE SMOOTH",
"200 167 LINE",
"197 145 LINE",
"338 145 LINE SMOOTH",
"457 145 OFFCURVE",
"524 217 OFFCURVE",
"524 335 CURVE SMOOTH",
"524 418 OFFCURVE",
"469 463 OFFCURVE",
"366 463 CURVE SMOOTH",
"197 463 LINE",
"213 561 LINE",
"298 561 LINE",
"301 583 LINE",
"101 583 LINE",
"98 561 LINE",
"183 561 LINE",
"97 22 LINE",
"12 22 LINE",
"9 0 LINE"
);
}
);
width = 561;
},
{
background = {
paths = (
{
closed = 1;
nodes = (
"328 0 LINE",
"347 120 LINE",
"267 120 LINE",
"298 319 LINE",
"410 319 LINE SMOOTH",
"430 319 OFFCURVE",
"440 310 OFFCURVE",
"437 291 CURVE SMOOTH",
"434 274 OFFCURVE",
"416 264 OFFCURVE",
"402 264 CURVE SMOOTH",
"330 264 LINE",
"311 149 LINE",
"440 149 LINE SMOOTH",
"558 149 OFFCURVE",
"628 199 OFFCURVE",
"643 291 CURVE SMOOTH",
"657 383 OFFCURVE",
"604 434 OFFCURVE",
"486 434 CURVE SMOOTH",
"317 434 LINE",
"321 463 LINE",
"401 463 LINE",
"420 583 LINE",
"90 583 LINE",
"71 463 LINE",
"121 463 LINE",
"67 120 LINE",
"17 120 LINE",
"-2 0 LINE"
);
}
);
};
layerId = "EFCDB4D9-E20B-4A8D-9DB5-150AD166B0AE";
paths = (
{
closed = 1;
nodes = (
"328 0 LINE",
"347 120 LINE",
"267 120 LINE",
"298 319 LINE",
"406 319 LINE SMOOTH",
"424 319 OFFCURVE",
"437 312 OFFCURVE",
"437 294 CURVE SMOOTH",
"437 274 OFFCURVE",
"422 264 OFFCURVE",
"406 264 CURVE SMOOTH",
"330 264 LINE",
"311 149 LINE",
"450 149 LINE SMOOTH",
"568 149 OFFCURVE",
"643 201 OFFCURVE",
"643 308 CURVE SMOOTH",
"643 393 OFFCURVE",
"582 434 OFFCURVE",
"476 434 CURVE SMOOTH",
"317 434 LINE",
"321 463 LINE",
"401 463 LINE",
"420 583 LINE",
"90 583 LINE",
"71 463 LINE",
"121 463 LINE",
"67 120 LINE",
"17 120 LINE",
"-2 0 LINE"
);
}
);
width = 639;
},
{
background = {
paths = (
{
closed = 1;
nodes = (
"279 0 LINE",
"290 83 LINE",
"197 83 LINE",
"246 365 LINE",
"382 365 LINE SMOOTH",
"438 365 OFFCURVE",
"465 348 OFFCURVE",
"465 309 CURVE SMOOTH",
"465 256 OFFCURVE",
"430 228 OFFCURVE",
"370 228 CURVE SMOOTH",
"265 228 LINE",
"254 148 LINE",
"394 148 LINE SMOOTH",
"513 148 OFFCURVE",
"584 207 OFFCURVE",
"584 318 CURVE SMOOTH",
"584 402 OFFCURVE",
"526 445 OFFCURVE",
"421 445 CURVE SMOOTH",
"257 445 LINE",
"267 500 LINE",
"350 500 LINE",
"361 583 LINE",
"96 583 LINE",
"85 500 LINE",
"152 500 LINE",
"82 83 LINE",
"15 83 LINE",
"4 0 LINE"
);
}
);
};
layerId = "14AB8F11-4722-4116-93B5-2CBF67C8CE3C";
paths = (
{
closed = 1;
nodes = (
"279 0 LINE",
"292 83 LINE",
"199 83 LINE",
"244 365 LINE",
"380 365 LINE SMOOTH",
"436 365 OFFCURVE",
"463 348 OFFCURVE",
"463 309 CURVE SMOOTH",
"463 256 OFFCURVE",
"428 228 OFFCURVE",
"368 228 CURVE SMOOTH",
"265 228 LINE",
"252 148 LINE",
"392 148 LINE SMOOTH",
"511 148 OFFCURVE",
"582 207 OFFCURVE",
"582 318 CURVE SMOOTH",
"582 402 OFFCURVE",
"524 445 OFFCURVE",
"419 445 CURVE SMOOTH",
"256 445 LINE",
"265 500 LINE",
"348 500 LINE",
"361 583 LINE",
"96 583 LINE",
"83 500 LINE",
"150 500 LINE",
"84 83 LINE",
"17 83 LINE",
"4 0 LINE"
);
}
);
width = 599;
}
);
leftKerningGroup = H;
leftMetricsKey = H;
rightKerningGroup = Thorn;
rightMetricsKey = P;
unicode = 00DE;
userData = {
com.typemytype.robofont.layerData = {
b = {
anchors = (
);
components = (
);
contours = (
);
lib = {
};
name = Thorn;
unicodes = (
);
width = 1226;
};
};
org.robofab.postScriptHintData = {
};
};
},
{
color = 3;
glyphname = Q;
layers = (
{
background = {
paths = (
{
closed = 1;
nodes = (
"539 -10 OFFCURVE",
"674 129 OFFCURVE",
"674 339 CURVE SMOOTH",
"674 494 OFFCURVE",
"565 594 OFFCURVE",
"397 594 CURVE SMOOTH",
"197 594 OFFCURVE",
"62 455 OFFCURVE",
"62 245 CURVE SMOOTH",
"62 90 OFFCURVE",
"171 -10 OFFCURVE",
"339 -10 CURVE SMOOTH"
);
},
{
closed = 1;
nodes = (
"191 15 OFFCURVE",
"94 102 OFFCURVE",
"94 245 CURVE SMOOTH",
"94 440 OFFCURVE",
"215 569 OFFCURVE",
"395 569 CURVE SMOOTH",
"545 569 OFFCURVE",
"642 482 OFFCURVE",
"642 339 CURVE SMOOTH",
"642 144 OFFCURVE",
"521 15 OFFCURVE",
"341 15 CURVE SMOOTH"
);
}
);
};
layerId = "98C086B7-81AA-4491-8494-0C6A76849168";
paths = (
{
closed = 1;
nodes = (
"488 -103 OFFCURVE",
"508 -100 OFFCURVE",
"544 -87 CURVE",
"538 -66 LINE",
"511 -78 OFFCURVE",
"491 -82 OFFCURVE",
"468 -82 CURVE SMOOTH",
"401 -82 OFFCURVE",
"366 -54 OFFCURVE",
"338 -10 CURVE",
"539 -10 OFFCURVE",
"674 128 OFFCURVE",
"674 339 CURVE SMOOTH",
"674 494 OFFCURVE",
"565 594 OFFCURVE",
"397 594 CURVE SMOOTH",
"197 594 OFFCURVE",
"62 455 OFFCURVE",
"62 245 CURVE SMOOTH",
"62 100 OFFCURVE",
"157 4 OFFCURVE",
"303 -8 CURVE",
"341 -64 OFFCURVE",
"384 -103 OFFCURVE",
"468 -103 CURVE SMOOTH"
);
},
{
closed = 1;
nodes = (
"191 15 OFFCURVE",
"94 102 OFFCURVE",
"94 245 CURVE SMOOTH",
"94 440 OFFCURVE",
"215 569 OFFCURVE",
"395 569 CURVE SMOOTH",
"545 569 OFFCURVE",
"642 482 OFFCURVE",
"642 339 CURVE SMOOTH",
"642 144 OFFCURVE",
"521 15 OFFCURVE",
"341 15 CURVE SMOOTH"
);
}
);
width = 706;
},
{
background = {
paths = (
{
closed = 1;
nodes = (
"1544 -181 OFFCURVE",
"1580 -172 OFFCURVE",
"1615 -158 CURVE",
"1604 -40 LINE",
"1578 -50 OFFCURVE",
"1545 -56 OFFCURVE",
"1514 -56 CURVE SMOOTH",
"1460 -56 OFFCURVE",
"1427 -32 OFFCURVE",
"1421 -1 CURVE",
"1238 4 LINE",
"1263 -120 OFFCURVE",
"1362 -181 OFFCURVE",
"1487 -181 CURVE SMOOTH"
);
},
{
closed = 1;
nodes = (
"1591 -10 OFFCURVE",
"1718 152 OFFCURVE",
"1718 334 CURVE SMOOTH",
"1718 490 OFFCURVE",
"1600 594 OFFCURVE",
"1407 594 CURVE SMOOTH",
"1164 594 OFFCURVE",
"1038 432 OFFCURVE",
"1038 250 CURVE SMOOTH",
"1038 95 OFFCURVE",
"1155 -10 OFFCURVE",
"1347 -10 CURVE SMOOTH"
);
},
{
closed = 1;
nodes = (
"1282 130 OFFCURVE",
"1244 179 OFFCURVE",
"1244 250 CURVE SMOOTH",
"1244 349 OFFCURVE",
"1290 454 OFFCURVE",
"1398 454 CURVE SMOOTH",
"1473 454 OFFCURVE",
"1512 405 OFFCURVE",
"1512 334 CURVE SMOOTH",
"1512 235 OFFCURVE",
"1466 130 OFFCURVE",
"1356 130 CURVE SMOOTH"
);
},
{
closed = 1;
nodes = (
"594 -10 OFFCURVE",
"720 149 OFFCURVE",
"720 324 CURVE SMOOTH",
"720 489 OFFCURVE",
"603 594 OFFCURVE",
"409 594 CURVE SMOOTH",
"166 594 OFFCURVE",
"40 435 OFFCURVE",
"40 260 CURVE SMOOTH",
"40 95 OFFCURVE",
"157 -10 OFFCURVE",
"349 -10 CURVE SMOOTH"
);
},
{
closed = 1;
nodes = (
"284 130 OFFCURVE",
"246 179 OFFCURVE",
"246 250 CURVE SMOOTH",
"246 337 OFFCURVE",
"286 454 OFFCURVE",
"397 454 CURVE SMOOTH",
"476 454 OFFCURVE",
"514 405 OFFCURVE",
"514 334 CURVE SMOOTH",
"514 247 OFFCURVE",
"473 130 OFFCURVE",
"362 130 CURVE SMOOTH"
);
}
);
};
layerId = "EFCDB4D9-E20B-4A8D-9DB5-150AD166B0AE";
paths = (
{
closed = 1;
nodes = (
"554 -181 OFFCURVE",
"590 -171 OFFCURVE",
"635 -152 CURVE",
"612 -36 LINE",
"588 -48 OFFCURVE",
"549 -56 OFFCURVE",
"524 -56 CURVE SMOOTH",
"462 -56 OFFCURVE",
"430 -34 OFFCURVE",
"422 -5 CURVE",
"617 25 OFFCURVE",
"720 162 OFFCURVE",
"720 324 CURVE SMOOTH",
"720 489 OFFCURVE",
"603 594 OFFCURVE",
"409 594 CURVE SMOOTH",
"166 594 OFFCURVE",
"40 435 OFFCURVE",
"40 260 CURVE SMOOTH",
"40 137 OFFCURVE",
"107 40 OFFCURVE",
"238 3 CURVE",
"269 -102 OFFCURVE",
"362 -181 OFFCURVE",
"497 -181 CURVE SMOOTH"
);
},
{
closed = 1;
nodes = (
"284 130 OFFCURVE",
"246 179 OFFCURVE",
"246 250 CURVE SMOOTH",
"246 337 OFFCURVE",
"286 454 OFFCURVE",
"397 454 CURVE SMOOTH",
"476 454 OFFCURVE",
"514 405 OFFCURVE",
"514 334 CURVE SMOOTH",
"514 247 OFFCURVE",
"473 130 OFFCURVE",
"362 130 CURVE SMOOTH"
);
}
);
width = 731;
},
{
background = {
paths = (
{
closed = 1;
nodes = (
"1521 -152 OFFCURVE",
"1549 -144 OFFCURVE",
"1590 -128 CURVE",
"1575 -47 LINE",
"1550 -59 OFFCURVE",
"1520 -66 OFFCURVE",
"1496 -66 CURVE SMOOTH",
"1432 -66 OFFCURVE",
"1398 -41 OFFCURVE",
"1380 -7 CURVE",
"1578 12 OFFCURVE",
"1697 149 OFFCURVE",
"1697 330 CURVE SMOOTH",
"1697 491 OFFCURVE",
"1584 594 OFFCURVE",
"1403 594 CURVE SMOOTH",
"1182 594 OFFCURVE",
"1051 443 OFFCURVE",
"1051 254 CURVE SMOOTH",
"1051 123 OFFCURVE",
"1132 27 OFFCURVE",
"1271 -1 CURVE",
"1305 -88 OFFCURVE",
"1373 -152 OFFCURVE",
"1483 -152 CURVE SMOOTH"
);
},
{
closed = 1;
nodes = (
"1238 87 OFFCURVE",
"1170 150 OFFCURVE",
"1170 248 CURVE SMOOTH",
"1170 376 OFFCURVE",
"1251 497 OFFCURVE",
"1396 497 CURVE SMOOTH",
"1511 497 OFFCURVE",
"1578 434 OFFCURVE",
"1578 336 CURVE SMOOTH",
"1578 208 OFFCURVE",
"1497 87 OFFCURVE",
"1352 87 CURVE SMOOTH"
);
},
{
closed = 1;
nodes = (
"583 -10 OFFCURVE",
"697 146 OFFCURVE",
"697 320 CURVE SMOOTH",
"697 490 OFFCURVE",
"575 594 OFFCURVE",
"395 594 CURVE SMOOTH",
"165 594 OFFCURVE",
"51 438 OFFCURVE",
"51 264 CURVE SMOOTH",
"51 94 OFFCURVE",
"174 -10 OFFCURVE",
"353 -10 CURVE SMOOTH"
);
},
{
closed = 1;
nodes = (
"242 89 OFFCURVE",
"170 154 OFFCURVE",
"170 269 CURVE SMOOTH",
"170 403 OFFCURVE",
"249 495 OFFCURVE",
"389 495 CURVE SMOOTH",
"507 495 OFFCURVE",
"578 431 OFFCURVE",
"578 315 CURVE SMOOTH",
"578 181 OFFCURVE",
"499 89 OFFCURVE",
"360 89 CURVE SMOOTH"
);
}
);
};
layerId = "14AB8F11-4722-4116-93B5-2CBF67C8CE3C";
paths = (
{
closed = 1;
nodes = (
"521 -152 OFFCURVE",
"559 -144 OFFCURVE",
"593 -126 CURVE",
"571 -47 LINE",
"550 -59 OFFCURVE",
"520 -68 OFFCURVE",
"496 -68 CURVE SMOOTH",
"432 -68 OFFCURVE",
"399 -43 OFFCURVE",
"391 -9 CURVE",
"579 6 OFFCURVE",
"697 139 OFFCURVE",
"697 320 CURVE SMOOTH",
"697 490 OFFCURVE",
"575 594 OFFCURVE",
"395 594 CURVE SMOOTH",
"165 594 OFFCURVE",
"51 438 OFFCURVE",
"51 264 CURVE SMOOTH",
"51 133 OFFCURVE",
"124 29 OFFCURVE",
"271 -2 CURVE",
"302 -97 OFFCURVE",
"373 -152 OFFCURVE",
"483 -152 CURVE SMOOTH"
);
},
{
closed = 1;
nodes = (
"242 87 OFFCURVE",
"170 153 OFFCURVE",
"170 269 CURVE SMOOTH",
"170 404 OFFCURVE",
"249 497 OFFCURVE",
"389 497 CURVE SMOOTH",
"507 497 OFFCURVE",
"578 432 OFFCURVE",
"578 315 CURVE SMOOTH",
"578 180 OFFCURVE",
"499 87 OFFCURVE",
"360 87 CURVE SMOOTH"
);
}
);
width = 718.5;
}
);
leftKerningGroup = O;
leftMetricsKey = O;
widthMetricsKey = O;
rightKerningGroup = O;
unicode = 0051;
userData = {
com.typemytype.robofont.layerData = {
b = {
anchors = (
);
components = (
);
contours = (
);
lib = {
};
name = Q;
unicodes = (
);
width = 1438;
};
};
org.robofab.postScriptHintData = {
};
};
},
{
color = 3;
glyphname = R;
layers = (
{
anchors = (
{
name = bottom;
position = "{296, 0}";
},
{
name = top;
position = "{358, 583}";
}
);
background = {
anchors = (
{
name = bottom;
position = "{1096, 0}";
},
{
name = top;
position = "{367, 583}";
}
);
paths = (
{
closed = 1;
nodes = (
"229 0 LINE",
"232 22 LINE",
"127 22 LINE",
"213 561 LINE",
"376 561 LINE SMOOTH",
"471 561 OFFCURVE",
"512 527 OFFCURVE",
"512 455 CURVE SMOOTH",
"512 346 OFFCURVE",
"456 287 OFFCURVE",
"352 287 CURVE SMOOTH",
"219 287 LINE",
"216 265 LINE",
"357 265 LINE SMOOTH",
"476 265 OFFCURVE",
"543 337 OFFCURVE",
"543 455 CURVE SMOOTH",
"543 538 OFFCURVE",
"488 583 OFFCURVE",
"385 583 CURVE SMOOTH",
"101 583 LINE",
"98 561 LINE",
"183 561 LINE",
"97 22 LINE",
"12 22 LINE",
"9 0 LINE"
);
}
);
};
guideLines = (
{
angle = 120.2145;
position = "{444, 54}";
}
);
layerId = "98C086B7-81AA-4491-8494-0C6A76849168";
paths = (
{
closed = 1;
nodes = (
"229 0 LINE",
"232 22 LINE",
"127 22 LINE",
"213 561 LINE",
"376 561 LINE SMOOTH",
"471 561 OFFCURVE",
"512 527 OFFCURVE",
"512 455 CURVE SMOOTH",
"512 346 OFFCURVE",
"456 287 OFFCURVE",
"352 287 CURVE SMOOTH",
"219 287 LINE",
"216 265 LINE",
"235 265 LINE SMOOTH",
"274 265 OFFCURVE",
"294 252 OFFCURVE",
"316 215 CURVE SMOOTH",
"418 45 LINE SMOOTH",
"438 12 OFFCURVE",
"465 0 OFFCURVE",
"502 0 CURVE SMOOTH",
"537 0 LINE",
"540 22 LINE",
"507 22 LINE SMOOTH",
"479 22 OFFCURVE",
"457 32 OFFCURVE",
"444 54 CURVE SMOOTH",
"346 217 LINE SMOOTH",
"318 264 OFFCURVE",
"289 274 OFFCURVE",
"260 274 CURVE",
"282 265 LINE",
"357 265 LINE SMOOTH",
"476 265 OFFCURVE",
"543 337 OFFCURVE",
"543 455 CURVE SMOOTH",
"543 538 OFFCURVE",
"488 583 OFFCURVE",
"385 583 CURVE SMOOTH",
"101 583 LINE",
"98 561 LINE",
"183 561 LINE",
"97 22 LINE",
"12 22 LINE",
"9 0 LINE"
);
}
);
width = 599;
},
{
anchors = (
{
name = bottom;
position = "{323, 0}";
},
{
name = top;
position = "{413, 583}";
}
);
background = {
anchors = (
{
name = bottom;
position = "{355, 0}";
},
{
name = top;
position = "{353, 583}";
}
);
paths = (
{
closed = 1;
nodes = (
"1128 0 LINE",
"1147 120 LINE",
"1067 120 LINE",
"1121 463 LINE",
"1182 463 LINE SMOOTH",
"1231 463 OFFCURVE",
"1255 447 OFFCURVE",
"1255 411 CURVE SMOOTH",
"1255 369 OFFCURVE",
"1233 338 OFFCURVE",
"1182 338 CURVE SMOOTH",
"1141 338 LINE",
"1122 218 LINE",
"1201 218 LINE SMOOTH",
"1359 218 OFFCURVE",
"1460 279 OFFCURVE",
"1460 423 CURVE SMOOTH",
"1460 529 OFFCURVE",
"1379 583 OFFCURVE",
"1239 583 CURVE SMOOTH",
"890 583 LINE",
"871 463 LINE",
"921 463 LINE",
"867 120 LINE",
"817 120 LINE",
"798 0 LINE"
);
},
{
closed = 1;
nodes = (
"298 0 LINE",
"317 120 LINE",
"267 120 LINE",
"321 463 LINE",
"392 463 LINE SMOOTH",
"438 463 OFFCURVE",
"461 442 OFFCURVE",
"454 400 CURVE SMOOTH",
"448 360 OFFCURVE",
"412 338 OFFCURVE",
"372 338 CURVE SMOOTH",
"341 338 LINE",
"322 218 LINE",
"343 218 LINE",
"436 0 LINE",
"651 0 LINE",
"670 120 LINE",
"610 120 LINE",
"541 278 LINE",
"370 218 LINE",
"391 218 LINE SMOOTH",
"549 218 OFFCURVE",
"640 274 OFFCURVE",
"660 400 CURVE SMOOTH",
"680 526 OFFCURVE",
"607 583 OFFCURVE",
"449 583 CURVE SMOOTH",
"90 583 LINE",
"71 463 LINE",
"121 463 LINE",
"67 120 LINE",
"17 120 LINE",
"-2 0 LINE"
);
}
);
};
guideLines = (
{
angle = -73.1786;
position = "{556, 201}";
}
);
layerId = "EFCDB4D9-E20B-4A8D-9DB5-150AD166B0AE";
paths = (
{
closed = 1;
nodes = (
"318 0 LINE",
"337 120 LINE",
"267 120 LINE",
"321 463 LINE",
"382 463 LINE SMOOTH",
"431 463 OFFCURVE",
"455 447 OFFCURVE",
"455 408 CURVE SMOOTH",
"455 369 OFFCURVE",
"433 338 OFFCURVE",
"382 338 CURVE SMOOTH",
"341 338 LINE",
"322 218 LINE",
"334 218 LINE SMOOTH",
"347 218 OFFCURVE",
"357 214 OFFCURVE",
"367 183 CURVE SMOOTH",
"404 72 LINE SMOOTH",
"420 23 OFFCURVE",
"479 0 OFFCURVE",
"547 0 CURVE SMOOTH",
"656 0 LINE",
"675 120 LINE",
"650 120 LINE SMOOTH",
"617 120 OFFCURVE",
"597 130 OFFCURVE",
"588 163 CURVE SMOOTH",
"579 198 LINE SMOOTH",
"570 235 OFFCURVE",
"546 258 OFFCURVE",
"501 258 CURVE",
"370 228 LINE",
"401 228 LINE SMOOTH",
"559 228 OFFCURVE",
"660 289 OFFCURVE",
"660 423 CURVE SMOOTH",
"660 529 OFFCURVE",
"579 583 OFFCURVE",
"439 583 CURVE SMOOTH",
"90 583 LINE",
"71 463 LINE",
"121 463 LINE",
"67 120 LINE",
"17 120 LINE",
"-2 0 LINE"
);
}
);
width = 688;
},
{
anchors = (
{
name = bottom;
position = "{310, 0}";
},
{
name = top;
position = "{386, 583}";
}
);
background = {
anchors = (
{
name = bottom;
position = "{310, 0}";
},
{
name = top;
position = "{386, 583}";
}
);
paths = (
{
closed = 1;
nodes = (
"274 0 LINE",
"285 83 LINE",
"197 83 LINE",
"267 500 LINE",
"379 500 LINE SMOOTH",
"451 500 OFFCURVE",
"484 477 OFFCURVE",
"484 426 CURVE SMOOTH",
"484 360 OFFCURVE",
"445 319 OFFCURVE",
"367 319 CURVE SMOOTH",
"280 319 LINE",
"269 236 LINE",
"285 236 LINE SMOOTH",
"311 236 OFFCURVE",
"326 228 OFFCURVE",
"342 195 CURVE SMOOTH",
"411 62 LINE SMOOTH",
"429 19 OFFCURVE",
"472 0 OFFCURVE",
"525 0 CURVE SMOOTH",
"597 0 LINE",
"608 83 LINE",
"579 83 LINE SMOOTH",
"548 83 OFFCURVE",
"527 93 OFFCURVE",
"516 122 CURVE SMOOTH",
"463 205 LINE SMOOTH",
"444 246 OFFCURVE",
"418 264 OFFCURVE",
"381 264 CURVE",
"326 242 LINE",
"379 242 LINE SMOOTH",
"518 242 OFFCURVE",
"602 307 OFFCURVE",
"602 435 CURVE SMOOTH",
"602 532 OFFCURVE",
"534 583 OFFCURVE",
"412 583 CURVE SMOOTH",
"96 583 LINE",
"85 500 LINE",
"152 500 LINE",
"82 83 LINE",
"15 83 LINE",
"4 0 LINE"
);
}
);
};
layerId = "14AB8F11-4722-4116-93B5-2CBF67C8CE3C";
paths = (
{
closed = 1;
nodes = (
"273 0 LINE",
"286 83 LINE",
"199 83 LINE",
"265 500 LINE",
"375 500 LINE SMOOTH",
"447 500 OFFCURVE",
"480 477 OFFCURVE",
"480 426 CURVE SMOOTH",
"480 360 OFFCURVE",
"445 319 OFFCURVE",
"363 319 CURVE SMOOTH",
"282 319 LINE",
"269 236 LINE",
"281 236 LINE SMOOTH",
"307 236 OFFCURVE",
"321 228 OFFCURVE",
"338 195 CURVE SMOOTH",
"407 62 LINE SMOOTH",
"428 21 OFFCURVE",
"464 0 OFFCURVE",
"511 0 CURVE SMOOTH",
"591 0 LINE",
"604 83 LINE",
"575 83 LINE SMOOTH",
"544 83 OFFCURVE",
"523 95 OFFCURVE",
"509 122 CURVE SMOOTH",
"466 205 LINE SMOOTH",
"445 245 OFFCURVE",
"424 264 OFFCURVE",
"377 264 CURVE",
"326 242 LINE",
"375 242 LINE SMOOTH",
"514 242 OFFCURVE",
"598 307 OFFCURVE",
"598 435 CURVE SMOOTH",
"598 532 OFFCURVE",
"530 583 OFFCURVE",
"408 583 CURVE SMOOTH",
"96 583 LINE",
"83 500 LINE",
"150 500 LINE",
"84 83 LINE",
"17 83 LINE",
"4 0 LINE"
);
}
);
width = 640;
}
);
leftKerningGroup = H;
leftMetricsKey = H;
rightKerningGroup = R;
unicode = 0052;
userData = {
com.typemytype.robofont.layerData = {
b = {
anchors = (
);
components = (
);
contours = (
{
points = (
{
segmentType = line;
smooth = 0;
x = 135;
y = 0;
},
{
segmentType = line;
smooth = 0;
x = 512;
y = 0;
},
{
segmentType = line;
smooth = 0;
x = 512;
y = 58;
},
{
segmentType = line;
smooth = 0;
x = 353;
y = 58;
},
{
segmentType = line;
smooth = 0;
x = 353;
y = 539;
},
{
segmentType = line;
smooth = 0;
x = 641;
y = 539;
},
{
segmentType = line;
smooth = 0;
x = 961;
y = 0;
},
{
segmentType = line;
smooth = 0;
x = 1178;
y = 0;
},
{
segmentType = line;
smooth = 0;
x = 1178;
y = 58;
},
{
segmentType = line;
smooth = 0;
x = 1015;
y = 58;
},
{
segmentType = line;
smooth = 0;
x = 721;
y = 539;
},
{
smooth = 0;
x = 945;
y = 539;
},
{
smooth = 0;
x = 1059;
y = 696;
},
{
segmentType = curve;
smooth = 1;
x = 1059;
y = 848;
},
{
smooth = 0;
x = 1059;
y = 1000;
},
{
smooth = 0;
x = 945;
y = 1154;
},
{
segmentType = curve;
smooth = 1;
x = 721;
y = 1154;
},
{
segmentType = line;
smooth = 0;
x = 122;
y = 1154;
},
{
segmentType = line;
smooth = 0;
x = 122;
y = 1095;
},
{
segmentType = line;
smooth = 0;
x = 278;
y = 1095;
},
{
segmentType = line;
smooth = 0;
x = 278;
y = 58;
},
{
segmentType = line;
smooth = 0;
x = 135;
y = 58;
}
);
},
{
points = (
{
segmentType = line;
smooth = 0;
x = 353;
y = 1095;
},
{
segmentType = line;
smooth = 1;
x = 721;
y = 1095;
},
{
smooth = 0;
x = 898;
y = 1095;
},
{
smooth = 0;
x = 985;
y = 971;
},
{
segmentType = curve;
smooth = 1;
x = 985;
y = 845;
},
{
smooth = 0;
x = 985;
y = 723;
},
{
smooth = 0;
x = 896;
y = 600;
},
{
segmentType = curve;
smooth = 1;
x = 721;
y = 600;
},
{
segmentType = line;
smooth = 0;
x = 353;
y = 600;
}
);
}
);
lib = {
};
name = R;
unicodes = (
);
width = 1296;
};
};
org.robofab.postScriptHintData = {
};
};
},
{
color = 3;
glyphname = S;
layers = (
{
anchors = (
{
name = bottom;
position = "{264, 0}";
},
{
name = top;
position = "{341, 583}";
}
);
background = {
paths = (
{
closed = 1;
nodes = (
"407 -11 OFFCURVE",
"482 54 OFFCURVE",
"482 176 CURVE SMOOTH",
"482 251 OFFCURVE",
"436 289 OFFCURVE",
"350 302 CURVE SMOOTH",
"251 317 LINE SMOOTH",
"183 327 OFFCURVE",
"149 360 OFFCURVE",
"149 421 CURVE SMOOTH",
"149 509 OFFCURVE",
"206 569 OFFCURVE",
"323 569 CURVE SMOOTH",
"437 569 OFFCURVE",
"487 512 OFFCURVE",
"474 424 CURVE",
"500 424 LINE",
"525 584 LINE",
"499 584 LINE",
"483 485 LINE",
"489 485 LINE",
"477 549 OFFCURVE",
"426 594 OFFCURVE",
"321 594 CURVE SMOOTH",
"189 594 OFFCURVE",
"119 518 OFFCURVE",
"119 420 CURVE SMOOTH",
"119 343 OFFCURVE",
"169 301 OFFCURVE",
"252 288 CURVE SMOOTH",
"351 273 LINE SMOOTH",
"419 263 OFFCURVE",
"452 235 OFFCURVE",
"452 175 CURVE SMOOTH",
"452 65 OFFCURVE",
"386 14 OFFCURVE",
"274 14 CURVE SMOOTH",
"133 14 OFFCURVE",
"91 82 OFFCURVE",
"108 190 CURVE",
"82 190 LINE",
"52 0 LINE",
"78 0 LINE",
"94 102 LINE",
"91 102 LINE",
"105 34 OFFCURVE",
"158 -11 OFFCURVE",
"275 -11 CURVE SMOOTH"
);
}
);
};
layerId = "98C086B7-81AA-4491-8494-0C6A76849168";
paths = (
{
closed = 1;
nodes = (
"407 -11 OFFCURVE",
"482 54 OFFCURVE",
"482 176 CURVE SMOOTH",
"482 250 OFFCURVE",
"439 288 OFFCURVE",
"353 301 CURVE SMOOTH",
"254 316 LINE SMOOTH",
"186 326 OFFCURVE",
"149 360 OFFCURVE",
"149 421 CURVE SMOOTH",
"149 509 OFFCURVE",
"206 569 OFFCURVE",
"323 569 CURVE SMOOTH",
"437 569 OFFCURVE",
"487 512 OFFCURVE",
"474 424 CURVE",
"500 424 LINE",
"525 584 LINE",
"499 584 LINE",
"483 485 LINE",
"489 485 LINE",
"477 549 OFFCURVE",
"426 594 OFFCURVE",
"321 594 CURVE SMOOTH",
"187 594 OFFCURVE",
"119 518 OFFCURVE",
"119 420 CURVE SMOOTH",
"119 343 OFFCURVE",
"166 302 OFFCURVE",
"249 289 CURVE SMOOTH",
"348 274 LINE SMOOTH",
"416 264 OFFCURVE",
"452 234 OFFCURVE",
"452 175 CURVE SMOOTH",
"452 65 OFFCURVE",
"386 14 OFFCURVE",
"274 14 CURVE SMOOTH",
"133 14 OFFCURVE",
"91 82 OFFCURVE",
"108 190 CURVE",
"82 190 LINE",
"52 0 LINE",
"78 0 LINE",
"94 102 LINE",
"91 102 LINE",
"105 34 OFFCURVE",
"158 -11 OFFCURVE",
"275 -11 CURVE SMOOTH"
);
}
);
width = 556;
},
{
anchors = (
{
name = bottom;
position = "{276, 0}";
},
{
name = top;
position = "{339, 583}";
}
);
background = {
paths = (
{
closed = 1;
nodes = (
"443 -10 OFFCURVE",
"544 64 OFFCURVE",
"562 177 CURVE SMOOTH",
"579 285 OFFCURVE",
"513 347 OFFCURVE",
"426 366 CURVE SMOOTH",
"325 388 LINE SMOOTH",
"277 398 OFFCURVE",
"270 419 OFFCURVE",
"273 441 CURVE SMOOTH",
"277 464 OFFCURVE",
"299 484 OFFCURVE",
"347 484 CURVE SMOOTH",
"409 484 OFFCURVE",
"439 456 OFFCURVE",
"439 403 CURVE",
"564 403 LINE",
"592 583 LINE",
"462 583 LINE",
"452 518 LINE",
"491 518 LINE",
"457 565 OFFCURVE",
"404 593 OFFCURVE",
"310 593 CURVE SMOOTH",
"172 593 OFFCURVE",
"80 519 OFFCURVE",
"64 414 CURVE SMOOTH",
"47 308 OFFCURVE",
"111 240 OFFCURVE",
"189 223 CURVE SMOOTH",
"290 201 LINE SMOOTH",
"338 191 OFFCURVE",
"356 176 OFFCURVE",
"351 143 CURVE SMOOTH",
"347 119 OFFCURVE",
"325 99 OFFCURVE",
"275 99 CURVE SMOOTH",
"192 99 OFFCURVE",
"157 134 OFFCURVE",
"159 200 CURVE",
"34 200 LINE",
"2 0 LINE",
"132 0 LINE",
"142 61 LINE",
"106 81 LINE",
"141 24 OFFCURVE",
"195 -10 OFFCURVE",
"303 -10 CURVE SMOOTH"
);
}
);
};
layerId = "EFCDB4D9-E20B-4A8D-9DB5-150AD166B0AE";
paths = (
{
closed = 1;
nodes = (
"450 -10 OFFCURVE",
"565 76 OFFCURVE",
"565 210 CURVE SMOOTH",
"565 298 OFFCURVE",
"504 349 OFFCURVE",
"426 366 CURVE SMOOTH",
"325 388 LINE SMOOTH",
"283 397 OFFCURVE",
"272 414 OFFCURVE",
"272 433 CURVE SMOOTH",
"272 459 OFFCURVE",
"293 484 OFFCURVE",
"347 484 CURVE SMOOTH",
"409 484 OFFCURVE",
"439 456 OFFCURVE",
"439 403 CURVE",
"564 403 LINE",
"592 583 LINE",
"462 583 LINE",
"452 518 LINE",
"491 518 LINE",
"457 565 OFFCURVE",
"404 593 OFFCURVE",
"310 593 CURVE SMOOTH",
"168 593 OFFCURVE",
"61 510 OFFCURVE",
"61 380 CURVE SMOOTH",
"61 294 OFFCURVE",
"120 238 OFFCURVE",
"189 223 CURVE SMOOTH",
"290 201 LINE SMOOTH",
"333 192 OFFCURVE",
"352 179 OFFCURVE",
"352 153 CURVE SMOOTH",
"352 125 OFFCURVE",
"332 99 OFFCURVE",
"275 99 CURVE SMOOTH",
"192 99 OFFCURVE",
"157 134 OFFCURVE",
"159 200 CURVE",
"34 200 LINE",
"2 0 LINE",
"132 0 LINE",
"142 61 LINE",
"106 81 LINE",
"141 24 OFFCURVE",
"195 -10 OFFCURVE",
"303 -10 CURVE SMOOTH"
);
}
);
width = 574;
},
{
anchors = (
{
name = bottom;
position = "{270, 0}";
},
{
name = top;
position = "{340, 583}";
}
);
background = {
anchors = (
{
name = bottom;
position = "{270, 0}";
},
{
name = top;
position = "{340, 583}";
}
);
paths = (
{
closed = 1;
nodes = (
"429 -10 OFFCURVE",
"524 68 OFFCURVE",
"524 197 CURVE SMOOTH",
"524 280 OFFCURVE",
"472 326 OFFCURVE",
"390 342 CURVE SMOOTH",
"290 361 LINE SMOOTH",
"235 370 OFFCURVE",
"211 394 OFFCURVE",
"211 429 CURVE SMOOTH",
"211 478 OFFCURVE",
"250 516 OFFCURVE",
"335 516 CURVE SMOOTH",
"423 516 OFFCURVE",
"463 477 OFFCURVE",
"457 411 CURVE",
"532 411 LINE",
"559 583 LINE",
"481 583 LINE",
"468 506 LINE",
"490 506 LINE",
"467 559 OFFCURVE",
"415 593 OFFCURVE",
"316 593 CURVE SMOOTH",
"178 593 OFFCURVE",
"90 513 OFFCURVE",
"90 395 CURVE SMOOTH",
"90 312 OFFCURVE",
"143 262 OFFCURVE",
"219 248 CURVE SMOOTH",
"319 228 LINE SMOOTH",
"375 219 OFFCURVE",
"402 200 OFFCURVE",
"402 161 CURVE SMOOTH",
"402 103 OFFCURVE",
"359 67 OFFCURVE",
"275 67 CURVE SMOOTH",
"163 67 OFFCURVE",
"124 115 OFFCURVE",
"134 196 CURVE",
"58 196 LINE",
"27 0 LINE",
"105 0 LINE",
"118 76 LINE",
"99 89 LINE",
"123 28 OFFCURVE",
"177 -10 OFFCURVE",
"289 -10 CURVE SMOOTH"
);
}
);
};
layerId = "14AB8F11-4722-4116-93B5-2CBF67C8CE3C";
paths = (
{
closed = 1;
nodes = (
"429 -10 OFFCURVE",
"524 62 OFFCURVE",
"524 193 CURVE SMOOTH",
"524 277 OFFCURVE",
"472 326 OFFCURVE",
"390 342 CURVE SMOOTH",
"280 363 LINE SMOOTH",
"225 373 OFFCURVE",
"209 394 OFFCURVE",
"209 424 CURVE SMOOTH",
"209 475 OFFCURVE",
"256 507 OFFCURVE",
"335 507 CURVE SMOOTH",
"420 507 OFFCURVE",
"460 477 OFFCURVE",
"457 411 CURVE",
"532 411 LINE",
"559 583 LINE",
"481 583 LINE",
"469 506 LINE",
"487 506 LINE",
"467 559 OFFCURVE",
"415 593 OFFCURVE",
"316 593 CURVE SMOOTH",
"178 593 OFFCURVE",
"90 521 OFFCURVE",
"90 397 CURVE SMOOTH",
"90 314 OFFCURVE",
"143 262 OFFCURVE",
"219 247 CURVE SMOOTH",
"329 226 LINE SMOOTH",
"383 216 OFFCURVE",
"405 197 OFFCURVE",
"405 159 CURVE SMOOTH",
"405 106 OFFCURVE",
"359 76 OFFCURVE",
"275 76 CURVE SMOOTH",
"176 76 OFFCURVE",
"127 115 OFFCURVE",
"133 196 CURVE",
"58 196 LINE",
"27 0 LINE",
"105 0 LINE",
"117 76 LINE",
"102 89 LINE",
"123 28 OFFCURVE",
"177 -10 OFFCURVE",
"292 -10 CURVE SMOOTH"
);
}
);
width = 565;
}
);
leftKerningGroup = S;
rightKerningGroup = S;
unicode = 0053;
userData = {
com.typemytype.robofont.layerData = {
b = {
anchors = (
);
components = (
);
contours = (
{
points = (
{
segmentType = curve;
smooth = 1;
x = 636;
y = "-23";
},
{
smooth = 0;
x = 930;
y = "-23";
},
{
smooth = 0;
x = 1026;
y = 171;
},
{
segmentType = curve;
smooth = 1;
x = 1026;
y = 295;
},
{
smooth = 0;
x = 1026;
y = 543;
},
{
smooth = 0;
x = 829;
y = 599;
},
{
segmentType = curve;
smooth = 1;
x = 606;
y = 622;
},
{
smooth = 0;
x = 405;
y = 643;
},
{
smooth = 0;
x = 269;
y = 667;
},
{
segmentType = curve;
smooth = 1;
x = 269;
y = 851;
},
{
smooth = 0;
x = 269;
y = 998;
},
{
smooth = 0;
x = 360;
y = 1104;
},
{
segmentType = curve;
smooth = 1;
x = 573;
y = 1104;
},
{
smooth = 0;
x = 719;
y = 1104;
},
{
smooth = 0;
x = 885;
y = 1024;
},
{
segmentType = curve;
smooth = 1;
x = 885;
y = 941;
},
{
segmentType = line;
smooth = 0;
x = 885;
y = 839;
},
{
segmentType = line;
smooth = 0;
x = 959;
y = 839;
},
{
segmentType = line;
smooth = 0;
x = 959;
y = 1152;
},
{
segmentType = line;
smooth = 0;
x = 885;
y = 1152;
},
{
segmentType = line;
smooth = 0;
x = 885;
y = 1049;
},
{
smooth = 0;
x = 828;
y = 1131;
},
{
smooth = 0;
x = 673;
y = 1172;
},
{
segmentType = curve;
smooth = 1;
x = 561;
y = 1172;
},
{
smooth = 0;
x = 360;
y = 1172;
},
{
smooth = 0;
x = 184;
y = 1066;
},
{
segmentType = curve;
smooth = 1;
x = 184;
y = 863;
},
{
smooth = 0;
x = 184;
y = 635;
},
{
smooth = 0;
x = 332;
y = 579;
},
{
segmentType = curve;
smooth = 1;
x = 584;
y = 553;
},
{
smooth = 0;
x = 805;
y = 531;
},
{
smooth = 0;
x = 942;
y = 488;
},
{
segmentType = curve;
smooth = 1;
x = 942;
y = 300;
},
{
smooth = 0;
x = 942;
y = 169;
},
{
smooth = 0;
x = 831;
y = 47;
},
{
segmentType = curve;
smooth = 1;
x = 644;
y = 47;
},
{
smooth = 0;
x = 448;
y = 47;
},
{
smooth = 0;
x = 261;
y = 118;
},
{
segmentType = curve;
smooth = 1;
x = 261;
y = 247;
},
{
segmentType = line;
smooth = 0;
x = 261;
y = 387;
},
{
segmentType = line;
smooth = 0;
x = 187;
y = 387;
},
{
segmentType = line;
smooth = 0;
x = 187;
y = "-1";
},
{
segmentType = line;
smooth = 0;
x = 261;
y = "-1";
},
{
segmentType = line;
smooth = 0;
x = 261;
y = 122;
},
{
smooth = 0;
x = 335;
y = 22;
},
{
smooth = 0;
x = 496;
y = "-23";
}
);
}
);
lib = {
};
name = S;
unicodes = (
);
width = 1143;
};
};
org.robofab.postScriptHintData = {
};
};
},
{
color = 3;
glyphname = Germandbls;
layers = (
{
background = {
paths = (
{
closed = 1;
nodes = (
"184 0 LINE",
"188 23 LINE",
"123 23 LINE",
"179 376 LINE SMOOTH",
"200 511 OFFCURVE",
"283 570 OFFCURVE",
"400 570 CURVE SMOOTH",
"472 570 OFFCURVE",
"518 553 OFFCURVE",
"555 525 CURVE",
"562 539 LINE",
"349 332 LINE",
"345 310 LINE",
"387 310 LINE SMOOTH",
"497 310 OFFCURVE",
"543 262 OFFCURVE",
"528 166 CURVE SMOOTH",
"514 77 OFFCURVE",
"461 22 OFFCURVE",
"345 22 CURVE SMOOTH",
"286 22 LINE",
"283 0 LINE",
"343 0 LINE SMOOTH",
"476 0 OFFCURVE",
"544 64 OFFCURVE",
"560 166 CURVE SMOOTH",
"578 281 OFFCURVE",
"510 335 OFFCURVE",
"375 332 CURVE",
"376 327 LINE",
"574 519 LINE",
"577 538 LINE",
"537 571 OFFCURVE",
"483 594 OFFCURVE",
"403 594 CURVE SMOOTH",
"269 594 OFFCURVE",
"172 524 OFFCURVE",
"148 374 CURVE SMOOTH",
"93 23 LINE",
"8 23 LINE",
"4 0 LINE"
);
}
);
};
layerId = "98C086B7-81AA-4491-8494-0C6A76849168";
paths = (
{
closed = 1;
nodes = (
"184 0 LINE",
"188 23 LINE",
"123 23 LINE",
"179 376 LINE SMOOTH",
"200 511 OFFCURVE",
"273 570 OFFCURVE",
"395 570 CURVE SMOOTH",
"472 570 OFFCURVE",
"521 553 OFFCURVE",
"558 524 CURVE",
"561 539 LINE",
"349 332 LINE",
"345 310 LINE",
"378 310 LINE SMOOTH",
"497 310 OFFCURVE",
"543 262 OFFCURVE",
"526 156 CURVE SMOOTH",
"513 72 OFFCURVE",
"461 22 OFFCURVE",
"355 22 CURVE SMOOTH",
"286 22 LINE",
"283 0 LINE",
"353 0 LINE SMOOTH",
"485 0 OFFCURVE",
"544 64 OFFCURVE",
"558 156 CURVE SMOOTH",
"578 281 OFFCURVE",
"500 335 OFFCURVE",
"375 332 CURVE",
"377 327 LINE",
"574 519 LINE",
"577 538 LINE",
"537 571 OFFCURVE",
"483 594 OFFCURVE",
"398 594 CURVE SMOOTH",
"259 594 OFFCURVE",
"172 524 OFFCURVE",
"148 374 CURVE SMOOTH",
"93 23 LINE",
"8 23 LINE",
"4 0 LINE"
);
}
);
width = 625;
},
{
background = {
paths = (
{
closed = 1;
nodes = (
"270 0 LINE",
"289 120 LINE",
"259 120 LINE",
"297 357 LINE SMOOTH",
"307 420 OFFCURVE",
"343 453 OFFCURVE",
"400 453 CURVE SMOOTH",
"438 453 OFFCURVE",
"464 447 OFFCURVE",
"487 433 CURVE",
"486 509 LINE",
"376 365 LINE",
"358 251 LINE",
"379 251 LINE SMOOTH",
"426 251 OFFCURVE",
"439 230 OFFCURVE",
"434 193 CURVE SMOOTH",
"429 162 OFFCURVE",
"404 140 OFFCURVE",
"366 140 CURVE SMOOTH",
"340 140 LINE",
"318 0 LINE",
"404 0 LINE SMOOTH",
"532 0 OFFCURVE",
"619 61 OFFCURVE",
"638 180 CURVE SMOOTH",
"657 300 OFFCURVE",
"586 369 OFFCURVE",
"434 359 CURVE",
"477 279 LINE",
"599 429 LINE",
"618 546 LINE",
"559 576 OFFCURVE",
"481 593 OFFCURVE",
"397 593 CURVE SMOOTH",
"223 593 OFFCURVE",
"122 520 OFFCURVE",
"100 377 CURVE SMOOTH",
"59 120 LINE",
"9 120 LINE",
"-10 0 LINE"
);
}
);
};
layerId = "EFCDB4D9-E20B-4A8D-9DB5-150AD166B0AE";
paths = (
{
closed = 1;
nodes = (
"270 0 LINE",
"289 120 LINE",
"259 120 LINE",
"297 357 LINE SMOOTH",
"307 420 OFFCURVE",
"333 453 OFFCURVE",
"400 453 CURVE SMOOTH",
"438 453 OFFCURVE",
"464 447 OFFCURVE",
"487 433 CURVE",
"486 509 LINE",
"376 365 LINE",
"358 251 LINE",
"379 251 LINE SMOOTH",
"416 251 OFFCURVE",
"439 230 OFFCURVE",
"433 188 CURVE SMOOTH",
"429 162 OFFCURVE",
"408 140 OFFCURVE",
"370 140 CURVE SMOOTH",
"340 140 LINE",
"318 0 LINE",
"408 0 LINE SMOOTH",
"542 0 OFFCURVE",
"619 61 OFFCURVE",
"636 170 CURVE SMOOTH",
"657 300 OFFCURVE",
"577 368 OFFCURVE",
"434 359 CURVE",
"477 279 LINE",
"599 429 LINE",
"618 546 LINE",
"549 576 OFFCURVE",
"471 593 OFFCURVE",
"387 593 CURVE SMOOTH",
"213 593 OFFCURVE",
"123 520 OFFCURVE",
"100 377 CURVE SMOOTH",
"59 120 LINE",
"9 120 LINE",
"-10 0 LINE"
);
}
);
width = 661;
},
{
background = {
paths = (
{
closed = 1;
nodes = (
"227 0 LINE",
"239 84 LINE",
"191 84 LINE",
"238 364 LINE SMOOTH",
"254 454 OFFCURVE",
"303 497 OFFCURVE",
"398 497 CURVE SMOOTH",
"455 497 OFFCURVE",
"493 487 OFFCURVE",
"523 467 CURVE",
"524 520 LINE",
"363 353 LINE",
"352 273 LINE",
"379 273 LINE SMOOTH",
"457 273 OFFCURVE",
"491 242 OFFCURVE",
"480 176 CURVE SMOOTH",
"471 128 OFFCURVE",
"435 96 OFFCURVE",
"363 96 CURVE SMOOTH",
"313 96 LINE",
"301 0 LINE",
"381 0 LINE SMOOTH",
"514 0 OFFCURVE",
"582 62 OFFCURVE",
"597 165 CURVE SMOOTH",
"618 293 OFFCURVE",
"539 356 OFFCURVE",
"405 349 CURVE",
"427 297 LINE",
"587 463 LINE",
"598 543 LINE",
"543 574 OFFCURVE",
"477 593 OFFCURVE",
"393 593 CURVE SMOOTH",
"236 593 OFFCURVE",
"148 522 OFFCURVE",
"124 376 CURVE SMOOTH",
"76 84 LINE",
"9 84 LINE",
"-3 0 LINE"
);
}
);
};
layerId = "14AB8F11-4722-4116-93B5-2CBF67C8CE3C";
paths = (
{
closed = 1;
nodes = (
"228 0 LINE",
"241 84 LINE",
"193 84 LINE",
"237 364 LINE SMOOTH",
"251 454 OFFCURVE",
"303 494 OFFCURVE",
"398 494 CURVE SMOOTH",
"455 494 OFFCURVE",
"493 484 OFFCURVE",
"523 464 CURVE",
"520 520 LINE",
"360 353 LINE",
"351 273 LINE",
"379 273 LINE SMOOTH",
"457 273 OFFCURVE",
"491 242 OFFCURVE",
"480 176 CURVE SMOOTH",
"471 128 OFFCURVE",
"435 96 OFFCURVE",
"363 96 CURVE SMOOTH",
"313 96 LINE",
"298 0 LINE",
"381 0 LINE SMOOTH",
"514 0 OFFCURVE",
"582 62 OFFCURVE",
"597 165 CURVE SMOOTH",
"618 293 OFFCURVE",
"539 356 OFFCURVE",
"405 349 CURVE",
"428 297 LINE",
"587 463 LINE",
"600 543 LINE",
"545 574 OFFCURVE",
"477 593 OFFCURVE",
"393 593 CURVE SMOOTH",
"236 593 OFFCURVE",
"147 522 OFFCURVE",
"124 376 CURVE SMOOTH",
"78 84 LINE",
"11 84 LINE",
"-2 0 LINE"
);
}
);
width = 643;
}
);
leftMetricsKey = "=|U";
unicode = 1E9E;
},
{
color = 3;
glyphname = Schwa;
layers = (
{
background = {
paths = (
{
closed = 1;
nodes = (
"249 594 OFFCURVE",
"172 555 OFFCURVE",
"102 461 CURVE",
"124 445 LINE",
"188 535 OFFCURVE",
"255 569 OFFCURVE",
"366 569 CURVE SMOOTH",
"520 569 OFFCURVE",
"613 482 OFFCURVE",
"613 339 CURVE SMOOTH",
"613 144 OFFCURVE",
"492 15 OFFCURVE",
"311 15 CURVE SMOOTH",
"193 15 OFFCURVE",
"116 68 OFFCURVE",
"90 161 CURVE",
"67 161 LINE",
"42 1 LINE",
"68 1 LINE",
"90 139 LINE",
"79 139 LINE",
"103 47 OFFCURVE",
"191 -10 OFFCURVE",
"309 -10 CURVE SMOOTH",
"511 -10 OFFCURVE",
"645 129 OFFCURVE",
"645 339 CURVE SMOOTH",
"645 495 OFFCURVE",
"539 594 OFFCURVE",
"368 594 CURVE SMOOTH"
);
}
);
};
layerId = "98C086B7-81AA-4491-8494-0C6A76849168";
paths = (
{
closed = 1;
nodes = (
"511 -10 OFFCURVE",
"645 129 OFFCURVE",
"645 339 CURVE SMOOTH",
"645 495 OFFCURVE",
"540 594 OFFCURVE",
"372 594 CURVE SMOOTH",
"253 594 OFFCURVE",
"164 555 OFFCURVE",
"102 461 CURVE",
"124 445 LINE",
"181 535 OFFCURVE",
"259 569 OFFCURVE",
"370 569 CURVE SMOOTH",
"521 569 OFFCURVE",
"615 482 OFFCURVE",
"615 339 CURVE SMOOTH",
"615 144 OFFCURVE",
"492 15 OFFCURVE",
"321 15 CURVE SMOOTH",
"130 15 OFFCURVE",
"74 131 OFFCURVE",
"92 267 CURVE",
"613 267 LINE",
"617 289 LINE",
"64 289 LINE",
"61 268 OFFCURVE",
"59 248 OFFCURVE",
"59 229 CURVE SMOOTH",
"59 92 OFFCURVE",
"135 -10 OFFCURVE",
"317 -10 CURVE SMOOTH"
);
}
);
width = 677;
},
{
background = {
paths = (
{
closed = 1;
nodes = (
"558 -10 OFFCURVE",
"684 149 OFFCURVE",
"684 324 CURVE SMOOTH",
"684 489 OFFCURVE",
"567 594 OFFCURVE",
"373 594 CURVE SMOOTH",
"130 594 OFFCURVE",
"4 435 OFFCURVE",
"4 260 CURVE SMOOTH",
"4 95 OFFCURVE",
"121 -10 OFFCURVE",
"313 -10 CURVE SMOOTH"
);
},
{
closed = 1;
nodes = (
"248 130 OFFCURVE",
"210 179 OFFCURVE",
"210 250 CURVE SMOOTH",
"210 337 OFFCURVE",
"250 454 OFFCURVE",
"361 454 CURVE SMOOTH",
"440 454 OFFCURVE",
"478 405 OFFCURVE",
"478 334 CURVE SMOOTH",
"478 247 OFFCURVE",
"437 130 OFFCURVE",
"326 130 CURVE SMOOTH"
);
}
);
};
layerId = "EFCDB4D9-E20B-4A8D-9DB5-150AD166B0AE";
paths = (
{
closed = 1;
nodes = (
"542 -10 OFFCURVE",
"684 139 OFFCURVE",
"684 324 CURVE SMOOTH",
"684 490 OFFCURVE",
"567 594 OFFCURVE",
"383 594 CURVE SMOOTH",
"253 594 OFFCURVE",
"162 544 OFFCURVE",
"104 470 CURVE",
"241 383 LINE",
"262 423 OFFCURVE",
"307 454 OFFCURVE",
"361 454 CURVE SMOOTH",
"445 454 OFFCURVE",
"483 405 OFFCURVE",
"483 334 CURVE SMOOTH",
"483 237 OFFCURVE",
"442 125 OFFCURVE",
"336 125 CURVE SMOOTH",
"254 125 OFFCURVE",
"231 177 OFFCURVE",
"238 221 CURVE",
"537 221 LINE",
"556 341 LINE",
"49 341 LINE",
"42 310 OFFCURVE",
"38 279 OFFCURVE",
"38 250 CURVE SMOOTH",
"38 100 OFFCURVE",
"134 -10 OFFCURVE",
"337 -10 CURVE SMOOTH"
);
}
);
width = 695;
},
{
background = {
paths = (
{
closed = 1;
nodes = (
"1425 -10 OFFCURVE",
"1563 135 OFFCURVE",
"1563 330 CURVE SMOOTH",
"1563 492 OFFCURVE",
"1452 594 OFFCURVE",
"1276 594 CURVE SMOOTH",
"1151 594 OFFCURVE",
"1061 548 OFFCURVE",
"1001 467 CURVE",
"1081 406 LINE",
"1120 465 OFFCURVE",
"1181 497 OFFCURVE",
"1264 497 CURVE SMOOTH",
"1381 497 OFFCURVE",
"1447 434 OFFCURVE",
"1447 336 CURVE SMOOTH",
"1447 202 OFFCURVE",
"1365 84 OFFCURVE",
"1227 84 CURVE SMOOTH",
"1090 84 OFFCURVE",
"1051 160 OFFCURVE",
"1063 238 CURVE",
"1473 238 LINE",
"1485 322 LINE",
"955 322 LINE",
"950 294 OFFCURVE",
"947 267 OFFCURVE",
"947 242 CURVE SMOOTH",
"947 97 OFFCURVE",
"1033 -10 OFFCURVE",
"1225 -10 CURVE SMOOTH"
);
},
{
closed = 1;
nodes = (
"549 -10 OFFCURVE",
"663 146 OFFCURVE",
"663 320 CURVE SMOOTH",
"663 490 OFFCURVE",
"541 594 OFFCURVE",
"361 594 CURVE SMOOTH",
"131 594 OFFCURVE",
"17 438 OFFCURVE",
"17 264 CURVE SMOOTH",
"17 94 OFFCURVE",
"140 -10 OFFCURVE",
"319 -10 CURVE SMOOTH"
);
},
{
closed = 1;
nodes = (
"208 89 OFFCURVE",
"136 154 OFFCURVE",
"136 269 CURVE SMOOTH",
"136 403 OFFCURVE",
"215 495 OFFCURVE",
"355 495 CURVE SMOOTH",
"473 495 OFFCURVE",
"544 431 OFFCURVE",
"544 315 CURVE SMOOTH",
"544 181 OFFCURVE",
"465 89 OFFCURVE",
"326 89 CURVE SMOOTH"
);
}
);
};
layerId = "14AB8F11-4722-4116-93B5-2CBF67C8CE3C";
paths = (
{
closed = 1;
nodes = (
"525 -10 OFFCURVE",
"663 125 OFFCURVE",
"663 320 CURVE SMOOTH",
"663 490 OFFCURVE",
"544 594 OFFCURVE",
"373 594 CURVE SMOOTH",
"240 594 OFFCURVE",
"151 538 OFFCURVE",
"107 475 CURVE",
"181 406 LINE",
"220 465 OFFCURVE",
"281 497 OFFCURVE",
"367 497 CURVE SMOOTH",
"472 497 OFFCURVE",
"547 430 OFFCURVE",
"547 310 CURVE SMOOTH",
"547 202 OFFCURVE",
"484 83 OFFCURVE",
"331 83 CURVE SMOOTH",
"219 83 OFFCURVE",
"158 130 OFFCURVE",
"165 240 CURVE",
"573 240 LINE",
"585 320 LINE",
"55 320 LINE",
"50 294 OFFCURVE",
"47 267 OFFCURVE",
"47 242 CURVE SMOOTH",
"47 97 OFFCURVE",
"133 -10 OFFCURVE",
"325 -10 CURVE SMOOTH"
);
}
);
width = 685;
}
);
leftKerningGroup = O;
leftMetricsKey = O;
rightKerningGroup = O;
rightMetricsKey = O;
unicode = 018F;
userData = {
org.robofab.postScriptHintData = {
};
};
},
{
color = 3;
glyphname = T;
layers = (
{
anchors = (
{
name = bottom;
position = "{252, 0}";
},
{
name = mid;
position = "{297, 278}";
},
{
name = top;
position = "{344, 583}";
}
);
background = {
anchors = (
{
name = bottom;
position = "{252, 0}";
},
{
name = mid;
position = "{297, 278}";
},
{
name = top;
position = "{344, 583}";
}
);
paths = (
{
closed = 1;
nodes = (
"362 0 LINE",
"365 22 LINE",
"270 22 LINE",
"356 561 LINE",
"573 561 LINE",
"548 403 LINE",
"574 403 LINE",
"602 583 LINE",
"86 583 LINE",
"58 403 LINE",
"84 403 LINE",
"109 561 LINE",
"326 561 LINE",
"240 22 LINE",
"145 22 LINE",
"142 0 LINE"
);
}
);
};
layerId = "98C086B7-81AA-4491-8494-0C6A76849168";
paths = (
{
closed = 1;
nodes = (
"362 0 LINE",
"365 22 LINE",
"270 22 LINE",
"356 561 LINE",
"573 561 LINE",
"548 403 LINE",
"574 403 LINE",
"602 583 LINE",
"86 583 LINE",
"58 403 LINE",
"84 403 LINE",
"109 561 LINE",
"326 561 LINE",
"240 22 LINE",
"145 22 LINE",
"142 0 LINE"
);
}
);
width = 566;
},
{
anchors = (
{
name = bottom;
position = "{293, 0}";
},
{
name = mid;
position = "{334, 259}";
},
{
name = top;
position = "{385, 583}";
}
);
background = {
anchors = (
{
name = bottom;
position = "{325, 0}";
},
{
name = mid;
position = "{325, 259}";
},
{
name = top;
position = "{325, 583}";
}
);
paths = (
{
closed = 1;
nodes = (
"495 0 LINE",
"495 120 LINE",
"425 120 LINE",
"425 463 LINE",
"505 463 LINE",
"505 343 LINE",
"635 343 LINE",
"635 583 LINE",
"15 583 LINE",
"15 343 LINE",
"145 343 LINE",
"145 463 LINE",
"225 463 LINE",
"225 120 LINE",
"155 120 LINE",
"155 0 LINE"
);
}
);
};
layerId = "EFCDB4D9-E20B-4A8D-9DB5-150AD166B0AE";
paths = (
{
closed = 1;
nodes = (
"463 0 LINE",
"482 120 LINE",
"412 120 LINE",
"466 463 LINE",
"546 463 LINE",
"527 343 LINE",
"657 343 LINE",
"695 583 LINE",
"75 583 LINE",
"37 343 LINE",
"167 343 LINE",
"186 463 LINE",
"266 463 LINE",
"212 120 LINE",
"142 120 LINE",
"123 0 LINE"
);
}
);
width = 650;
},
{
anchors = (
{
name = bottom;
position = "{272, 0}";
},
{
name = mid;
position = "{314, 266}";
},
{
name = top;
position = "{365, 583}";
}
);
background = {
anchors = (
{
name = bottom;
position = "{271, 0}";
},
{
name = mid;
position = "{314, 266}";
},
{
name = top;
position = "{363, 583}";
}
);
paths = (
{
closed = 1;
nodes = (
"411 0 LINE",
"422 83 LINE",
"339 83 LINE",
"409 500 LINE",
"558 500 LINE",
"536 366 LINE",
"614 366 LINE",
"647 583 LINE",
"79 583 LINE",
"46 366 LINE",
"124 366 LINE",
"146 500 LINE",
"294 500 LINE",
"224 83 LINE",
"142 83 LINE",
"131 0 LINE"
);
}
);
};
layerId = "14AB8F11-4722-4116-93B5-2CBF67C8CE3C";
paths = (
{
closed = 1;
nodes = (
"412 0 LINE",
"425 83 LINE",
"343 83 LINE",
"409 500 LINE",
"554 500 LINE",
"533 366 LINE",
"611 366 LINE",
"645 583 LINE",
"84 583 LINE",
"50 366 LINE",
"128 366 LINE",
"149 500 LINE",
"294 500 LINE",
"228 83 LINE",
"146 83 LINE",
"133 0 LINE"
);
}
);
width = 608;
}
);
leftKerningGroup = T;
rightKerningGroup = T;
rightMetricsKey = "=|";
unicode = 0054;
userData = {
com.typemytype.robofont.layerData = {
b = {
anchors = (
);
components = (
);
contours = (
);
lib = {
};
name = T;
unicodes = (
);
width = 1147;
};
};
org.robofab.postScriptHintData = {
};
};
},
{
color = 3;
glyphname = U;
layers = (
{
anchors = (
{
name = bottom;
position = "{316, 0}";
},
{
name = ogonek;
position = "{353, 0}";
},
{
name = top;
position = "{409, 583}";
},
{
name = topright;
position = "{710, 583}";
}
);
background = {
anchors = (
{
name = bottom;
position = "{316, 0}";
},
{
name = ogonek;
position = "{353, 0}";
},
{
name = top;
position = "{409, 583}";
},
{
name = topright;
position = "{710, 583}";
}
);
paths = (
{
closed = 1;
nodes = (
"451 -11 OFFCURVE",
"551 54 OFFCURVE",
"577 218 CURVE SMOOTH",
"632 561 LINE",
"717 561 LINE",
"720 583 LINE",
"522 583 LINE",
"519 561 LINE",
"604 561 LINE",
"549 218 LINE SMOOTH",
"526 69 OFFCURVE",
"436 13 OFFCURVE",
"318 13 CURVE SMOOTH",
"200 13 OFFCURVE",
"130 69 OFFCURVE",
"153 218 CURVE SMOOTH",
"208 561 LINE",
"293 561 LINE",
"296 583 LINE",
"96 583 LINE",
"93 561 LINE",
"178 561 LINE",
"123 218 LINE SMOOTH",
"97 54 OFFCURVE",
"177 -11 OFFCURVE",
"314 -11 CURVE SMOOTH"
);
}
);
};
layerId = "98C086B7-81AA-4491-8494-0C6A76849168";
paths = (
{
closed = 1;
nodes = (
"473 -11 OFFCURVE",
"553 63 OFFCURVE",
"576 208 CURVE SMOOTH",
"632 561 LINE",
"717 561 LINE",
"720 583 LINE",
"522 583 LINE",
"519 561 LINE",
"604 561 LINE",
"548 210 LINE SMOOTH",
"527 77 OFFCURVE",
"456 13 OFFCURVE",
"331 13 CURVE SMOOTH",
"186 13 OFFCURVE",
"131 79 OFFCURVE",
"155 228 CURVE SMOOTH",
"208 561 LINE",
"293 561 LINE",
"296 583 LINE",
"96 583 LINE",
"93 561 LINE",
"178 561 LINE",
"125 228 LINE SMOOTH",
"100 68 OFFCURVE",
"167 -11 OFFCURVE",
"331 -11 CURVE SMOOTH"
);
}
);
width = 694;
},
{
anchors = (
{
name = bottom;
position = "{337, 0}";
},
{
name = ogonek;
position = "{392, 0}";
},
{
name = top;
position = "{429, 583}";
},
{
name = topright;
position = "{708, 583}";
}
);
background = {
anchors = (
{
name = bottom;
position = "{337, 0}";
},
{
name = ogonek;
position = "{392, 0}";
},
{
name = top;
position = "{429, 583}";
},
{
name = topright;
position = "{708, 583}";
}
);
paths = (
{
closed = 1;
nodes = (
"499 -10 OFFCURVE",
"616 77 OFFCURVE",
"643 246 CURVE SMOOTH",
"677 463 LINE",
"727 463 LINE",
"746 583 LINE",
"476 583 LINE",
"457 463 LINE",
"507 463 LINE",
"472 241 LINE SMOOTH",
"460 169 OFFCURVE",
"422 130 OFFCURVE",
"357 130 CURVE SMOOTH",
"292 130 OFFCURVE",
"266 169 OFFCURVE",
"278 241 CURVE SMOOTH",
"313 463 LINE",
"363 463 LINE",
"382 583 LINE",
"82 583 LINE",
"63 463 LINE",
"113 463 LINE",
"79 246 LINE SMOOTH",
"52 77 OFFCURVE",
"139 -10 OFFCURVE",
"318 -10 CURVE SMOOTH"
);
}
);
};
layerId = "EFCDB4D9-E20B-4A8D-9DB5-150AD166B0AE";
paths = (
{
closed = 1;
nodes = (
"529 -10 OFFCURVE",
"617 79 OFFCURVE",
"640 228 CURVE SMOOTH",
"677 463 LINE",
"727 463 LINE",
"746 583 LINE",
"476 583 LINE",
"457 463 LINE",
"507 463 LINE",
"471 234 LINE SMOOTH",
"460 162 OFFCURVE",
"426 130 OFFCURVE",
"369 130 CURVE SMOOTH",
"299 130 OFFCURVE",
"267 171 OFFCURVE",
"280 253 CURVE SMOOTH",
"313 463 LINE",
"363 463 LINE",
"382 583 LINE",
"82 583 LINE",
"63 463 LINE",
"113 463 LINE",
"80 256 LINE SMOOTH",
"55 97 OFFCURVE",
"149 -10 OFFCURVE",
"348 -10 CURVE SMOOTH"
);
}
);
width = 708;
},
{
anchors = (
{
name = bottom;
position = "{327, 0}";
},
{
name = ogonek;
position = "{374, 0}";
},
{
name = top;
position = "{420, 583}";
},
{
name = topright;
position = "{710, 583}";
}
);
background = {
anchors = (
{
name = bottom;
position = "{327, 0}";
},
{
name = ogonek;
position = "{373, 0}";
},
{
name = top;
position = "{419, 583}";
},
{
name = topright;
position = "{709, 583}";
}
);
paths = (
{
closed = 1;
nodes = (
"501 -10 OFFCURVE",
"585 73 OFFCURVE",
"608 221 CURVE SMOOTH",
"655 500 LINE",
"722 500 LINE",
"733 583 LINE",
"499 583 LINE",
"488 500 LINE",
"556 500 LINE",
"510 225 LINE SMOOTH",
"494 130 OFFCURVE",
"441 86 OFFCURVE",
"350 86 CURVE SMOOTH",
"243 86 OFFCURVE",
"199 137 OFFCURVE",
"218 244 CURVE SMOOTH",
"261 500 LINE",
"328 500 LINE",
"339 583 LINE",
"89 583 LINE",
"78 500 LINE",
"146 500 LINE",
"103 246 LINE SMOOTH",
"78 86 OFFCURVE",
"158 -10 OFFCURVE",
"340 -10 CURVE SMOOTH"
);
}
);
};
layerId = "14AB8F11-4722-4116-93B5-2CBF67C8CE3C";
paths = (
{
closed = 1;
nodes = (
"505 -10 OFFCURVE",
"586 73 OFFCURVE",
"609 221 CURVE SMOOTH",
"653 500 LINE",
"720 500 LINE",
"733 583 LINE",
"500 583 LINE",
"487 500 LINE",
"554 500 LINE",
"510 225 LINE SMOOTH",
"495 130 OFFCURVE",
"442 86 OFFCURVE",
"351 86 CURVE SMOOTH",
"244 86 OFFCURVE",
"201 137 OFFCURVE",
"218 242 CURVE SMOOTH",
"259 500 LINE",
"326 500 LINE",
"339 583 LINE",
"90 583 LINE",
"77 500 LINE",
"144 500 LINE",
"104 246 LINE SMOOTH",
"79 86 OFFCURVE",
"164 -10 OFFCURVE",
"340 -10 CURVE SMOOTH"
);
}
);
width = 701;
}
);
leftKerningGroup = U;
rightKerningGroup = U;
rightMetricsKey = "=|";
unicode = 0055;
userData = {
com.typemytype.robofont.layerData = {
b = {
anchors = (
);
components = (
);
contours = (
);
lib = {
};
name = U;
unicodes = (
);
width = 1514;
};
};
org.robofab.postScriptHintData = {
};
};
},
{
color = 3;
glyphname = Uhorn;
layers = (
{
anchors = (
{
name = bottom;
position = "{317, 0}";
},
{
name = top;
position = "{410, 583}";
}
);
background = {
anchors = (
{
name = bottom;
position = "{369, 0}";
},
{
name = top;
position = "{370, 583}";
}
);
paths = (
{
closed = 1;
nodes = (
"473 -11 OFFCURVE",
"553 63 OFFCURVE",
"576 208 CURVE SMOOTH",
"632 561 LINE",
"717 561 LINE",
"720 583 LINE",
"522 583 LINE",
"519 561 LINE",
"604 561 LINE",
"548 210 LINE SMOOTH",
"527 77 OFFCURVE",
"456 13 OFFCURVE",
"331 13 CURVE SMOOTH",
"186 13 OFFCURVE",
"131 79 OFFCURVE",
"155 228 CURVE SMOOTH",
"208 561 LINE",
"293 561 LINE",
"296 583 LINE",
"96 583 LINE",
"93 561 LINE",
"178 561 LINE",
"125 228 LINE SMOOTH",
"100 68 OFFCURVE",
"167 -11 OFFCURVE",
"331 -11 CURVE SMOOTH"
);
}
);
};
layerId = "98C086B7-81AA-4491-8494-0C6A76849168";
paths = (
{
closed = 1;
nodes = (
"473 -11 OFFCURVE",
"553 63 OFFCURVE",
"576 208 CURVE SMOOTH",
"632 561 LINE",
"707 563 OFFCURVE",
"742 610 OFFCURVE",
"752 673 CURVE",
"727 673 LINE",
"718 616 OFFCURVE",
"691 583 OFFCURVE",
"634 583 CURVE SMOOTH",
"523 583 LINE",
"519 561 LINE",
"604 561 LINE",
"548 210 LINE SMOOTH",
"527 77 OFFCURVE",
"456 13 OFFCURVE",
"331 13 CURVE SMOOTH",
"186 13 OFFCURVE",
"131 79 OFFCURVE",
"155 228 CURVE SMOOTH",
"208 561 LINE",
"293 561 LINE",
"297 583 LINE",
"97 583 LINE",
"93 561 LINE",
"178 561 LINE",
"125 228 LINE SMOOTH",
"100 68 OFFCURVE",
"167 -11 OFFCURVE",
"331 -11 CURVE SMOOTH"
);
}
);
width = 694;
},
{
anchors = (
{
name = bottom;
position = "{337, 0}";
},
{
name = top;
position = "{429, 583}";
}
);
background = {
anchors = (
{
name = bottom;
position = "{390, 0}";
},
{
name = top;
position = "{390, 583}";
}
);
paths = (
{
closed = 1;
nodes = (
"529 -10 OFFCURVE",
"617 79 OFFCURVE",
"640 228 CURVE SMOOTH",
"677 463 LINE",
"727 463 LINE",
"746 583 LINE",
"476 583 LINE",
"457 463 LINE",
"507 463 LINE",
"471 234 LINE SMOOTH",
"460 162 OFFCURVE",
"426 130 OFFCURVE",
"369 130 CURVE SMOOTH",
"299 130 OFFCURVE",
"267 171 OFFCURVE",
"280 253 CURVE SMOOTH",
"313 463 LINE",
"363 463 LINE",
"382 583 LINE",
"82 583 LINE",
"63 463 LINE",
"113 463 LINE",
"80 256 LINE SMOOTH",
"55 97 OFFCURVE",
"149 -10 OFFCURVE",
"348 -10 CURVE SMOOTH"
);
}
);
};
layerId = "EFCDB4D9-E20B-4A8D-9DB5-150AD166B0AE";
widthMetricsKey = "=U+40";
paths = (
{
closed = 1;
nodes = (
"529 -10 OFFCURVE",
"617 79 OFFCURVE",
"640 228 CURVE SMOOTH",
"677 463 LINE",
"769 477 OFFCURVE",
"840 530 OFFCURVE",
"865 683 CURVE",
"731 683 LINE",
"719 607 OFFCURVE",
"686 583 OFFCURVE",
"633 583 CURVE SMOOTH",
"476 583 LINE",
"457 463 LINE",
"507 463 LINE",
"471 234 LINE SMOOTH",
"460 162 OFFCURVE",
"426 130 OFFCURVE",
"369 130 CURVE SMOOTH",
"299 130 OFFCURVE",
"267 171 OFFCURVE",
"280 253 CURVE SMOOTH",
"313 463 LINE",
"363 463 LINE",
"382 583 LINE",
"82 583 LINE",
"63 463 LINE",
"113 463 LINE",
"80 256 LINE SMOOTH",
"55 97 OFFCURVE",
"149 -10 OFFCURVE",
"348 -10 CURVE SMOOTH"
);
}
);
width = 748;
},
{
anchors = (
{
name = bottom;
position = "{327, 0}";
},
{
name = top;
position = "{420, 583}";
}
);
background = {
anchors = (
{
name = bottom;
position = "{327, 0}";
},
{
name = top;
position = "{420, 583}";
}
);
paths = (
{
closed = 1;
nodes = (
"1401 -10 OFFCURVE",
"1485 73 OFFCURVE",
"1508 221 CURVE SMOOTH",
"1555 500 LINE",
"1638 509 OFFCURVE",
"1691 560 OFFCURVE",
"1709 679 CURVE",
"1629 679 LINE",
"1619 610 OFFCURVE",
"1589 583 OFFCURVE",
"1534 583 CURVE SMOOTH",
"1400 583 LINE",
"1388 500 LINE",
"1456 500 LINE",
"1410 225 LINE SMOOTH",
"1394 130 OFFCURVE",
"1341 86 OFFCURVE",
"1250 86 CURVE SMOOTH",
"1143 86 OFFCURVE",
"1099 137 OFFCURVE",
"1118 244 CURVE SMOOTH",
"1161 500 LINE",
"1228 500 LINE",
"1240 583 LINE",
"990 583 LINE",
"978 500 LINE",
"1046 500 LINE",
"1003 246 LINE SMOOTH",
"978 86 OFFCURVE",
"1058 -10 OFFCURVE",
"1240 -10 CURVE SMOOTH"
);
},
{
closed = 1;
nodes = (
"505 -10 OFFCURVE",
"586 73 OFFCURVE",
"609 221 CURVE SMOOTH",
"653 500 LINE",
"720 500 LINE",
"733 583 LINE",
"500 583 LINE",
"487 500 LINE",
"554 500 LINE",
"510 225 LINE SMOOTH",
"495 130 OFFCURVE",
"442 86 OFFCURVE",
"351 86 CURVE SMOOTH",
"244 86 OFFCURVE",
"201 137 OFFCURVE",
"218 242 CURVE SMOOTH",
"259 500 LINE",
"326 500 LINE",
"339 583 LINE",
"90 583 LINE",
"77 500 LINE",
"144 500 LINE",
"104 246 LINE SMOOTH",
"79 86 OFFCURVE",
"164 -10 OFFCURVE",
"340 -10 CURVE SMOOTH"
);
}
);
};
layerId = "14AB8F11-4722-4116-93B5-2CBF67C8CE3C";
paths = (
{
closed = 1;
nodes = (
"505 -10 OFFCURVE",
"586 73 OFFCURVE",
"609 221 CURVE SMOOTH",
"653 500 LINE",
"736 509 OFFCURVE",
"791 560 OFFCURVE",
"809 679 CURVE",
"729 679 LINE",
"719 610 OFFCURVE",
"689 583 OFFCURVE",
"634 583 CURVE SMOOTH",
"500 583 LINE",
"487 500 LINE",
"554 500 LINE",
"510 225 LINE SMOOTH",
"495 130 OFFCURVE",
"442 86 OFFCURVE",
"351 86 CURVE SMOOTH",
"244 86 OFFCURVE",
"201 137 OFFCURVE",
"218 242 CURVE SMOOTH",
"259 500 LINE",
"326 500 LINE",
"339 583 LINE",
"90 583 LINE",
"77 500 LINE",
"144 500 LINE",
"104 246 LINE SMOOTH",
"79 86 OFFCURVE",
"164 -10 OFFCURVE",
"340 -10 CURVE SMOOTH"
);
}
);
width = 701;
}
);
leftKerningGroup = U;
leftMetricsKey = U;
widthMetricsKey = U;
rightKerningGroup = Uhorn;
unicode = 01AF;
},
{
color = 3;
glyphname = V;
layers = (
{
background = {
paths = (
{
closed = 1;
nodes = (
"314 0 LINE",
"520 561 LINE",
"595 561 LINE",
"595 583 LINE",
"411 583 LINE",
"411 561 LINE",
"491 561 LINE",
"294 18 LINE",
"309 18 LINE",
"112 561 LINE",
"192 561 LINE",
"192 583 LINE",
"6 583 LINE",
"6 561 LINE",
"81 561 LINE",
"287 0 LINE"
);
}
);
};
layerId = "98C086B7-81AA-4491-8494-0C6A76849168";
paths = (
{
closed = 1;
nodes = (
"283 0 LINE",
"578 561 LINE",
"653 561 LINE",
"656 583 LINE",
"470 583 LINE",
"467 561 LINE",
"547 561 LINE",
"264 18 LINE",
"280 18 LINE",
"169 561 LINE",
"249 561 LINE",
"252 583 LINE",
"67 583 LINE",
"64 561 LINE",
"139 561 LINE",
"256 0 LINE"
);
}
);
width = 601;
},
{
background = {
paths = (
{
closed = 1;
nodes = (
"456 0 LINE",
"627 463 LINE",
"677 463 LINE",
"677 583 LINE",
"375 583 LINE",
"375 463 LINE",
"430 463 LINE",
"332 149 LINE",
"358 149 LINE",
"260 463 LINE",
"315 463 LINE",
"315 583 LINE",
"0 583 LINE",
"0 463 LINE",
"50 463 LINE",
"221 0 LINE"
);
}
);
};
layerId = "EFCDB4D9-E20B-4A8D-9DB5-150AD166B0AE";
paths = (
{
closed = 1;
nodes = (
"424 0 LINE",
"668 463 LINE",
"718 463 LINE",
"737 583 LINE",
"430 583 LINE",
"411 463 LINE",
"466 463 LINE",
"318 149 LINE",
"344 149 LINE",
"296 463 LINE",
"351 463 LINE",
"370 583 LINE",
"60 583 LINE",
"41 463 LINE",
"91 463 LINE",
"189 0 LINE"
);
}
);
width = 677;
},
{
background = {
paths = (
{
closed = 1;
nodes = (
"354 0 LINE",
"623 500 LINE",
"686 500 LINE",
"697 583 LINE",
"450 583 LINE",
"439 500 LINE",
"507 500 LINE",
"291 100 LINE",
"312 100 LINE",
"233 500 LINE",
"300 500 LINE",
"311 583 LINE",
"64 583 LINE",
"53 500 LINE",
"115 500 LINE",
"223 0 LINE"
);
}
);
};
layerId = "14AB8F11-4722-4116-93B5-2CBF67C8CE3C";
paths = (
{
closed = 1;
nodes = (
"354 0 LINE",
"620 500 LINE",
"683 500 LINE",
"696 583 LINE",
"449 583 LINE",
"436 500 LINE",
"504 500 LINE",
"293 100 LINE",
"317 100 LINE",
"234 500 LINE",
"302 500 LINE",
"315 583 LINE",
"66 583 LINE",
"53 500 LINE",
"116 500 LINE",
"223 0 LINE"
);
}
);
width = 640;
}
);
leftKerningGroup = V;
rightKerningGroup = V;
rightMetricsKey = "=|";
unicode = 0056;
userData = {
com.typemytype.robofont.layerData = {
b = {
anchors = (
);
components = (
);
contours = (
);
lib = {
};
name = V;
unicodes = (
);
width = 1228;
};
};
org.robofab.postScriptHintData = {
};
};
},
{
color = 3;
glyphname = W;
layers = (
{
anchors = (
{
name = top;
position = "{543, 583}";
}
);
background = {
paths = (
{
closed = 1;
nodes = (
"265 0 LINE",
"538 501 LINE",
"525 501 LINE",
"640 0 LINE",
"666 0 LINE",
"931 561 LINE",
"1006 561 LINE",
"1009 583 LINE",
"825 583 LINE",
"822 561 LINE",
"902 561 LINE",
"650 18 LINE",
"664 18 LINE",
"548 534 LINE",
"526 534 LINE",
"248 18 LINE",
"263 18 LINE",
"182 561 LINE",
"262 561 LINE",
"265 583 LINE",
"79 583 LINE",
"76 561 LINE",
"151 561 LINE",
"238 0 LINE"
);
}
);
};
layerId = "98C086B7-81AA-4491-8494-0C6A76849168";
paths = (
{
closed = 1;
nodes = (
"265 0 LINE",
"538 501 LINE",
"525 501 LINE",
"640 0 LINE",
"666 0 LINE",
"931 561 LINE",
"1006 561 LINE",
"1009 583 LINE",
"823 583 LINE",
"820 561 LINE",
"900 561 LINE",
"647 18 LINE",
"662 18 LINE",
"546 534 LINE",
"527 534 LINE",
"247 18 LINE",
"261 18 LINE",
"180 561 LINE",
"260 561 LINE",
"263 583 LINE",
"79 583 LINE",
"76 561 LINE",
"151 561 LINE",
"238 0 LINE"
);
}
);
width = 966;
},
{
anchors = (
{
name = top;
position = "{536, 583}";
}
);
background = {
anchors = (
{
name = top;
position = "{482, 583}";
}
);
paths = (
{
closed = 1;
nodes = (
"405 0 LINE",
"497 311 LINE",
"462 311 LINE",
"564 0 LINE",
"775 0 LINE",
"899 463 LINE",
"950 463 LINE",
"950 583 LINE",
"653 583 LINE",
"653 463 LINE",
"708 463 LINE",
"651 149 LINE",
"677 149 LINE",
"566 533 LINE",
"397 533 LINE",
"285 149 LINE",
"311 149 LINE",
"255 463 LINE",
"310 463 LINE",
"310 583 LINE",
"0 583 LINE",
"0 463 LINE",
"50 463 LINE",
"174 0 LINE"
);
}
);
};
layerId = "EFCDB4D9-E20B-4A8D-9DB5-150AD166B0AE";
paths = (
{
closed = 1;
nodes = (
"373 0 LINE",
"510 311 LINE",
"475 311 LINE",
"532 0 LINE",
"743 0 LINE",
"940 463 LINE",
"991 463 LINE",
"1010 583 LINE",
"709 583 LINE",
"690 463 LINE",
"745 463 LINE",
"638 149 LINE",
"667 149 LINE",
"610 533 LINE",
"441 533 LINE",
"272 149 LINE",
"301 149 LINE",
"292 463 LINE",
"347 463 LINE",
"366 583 LINE",
"60 583 LINE",
"41 463 LINE",
"91 463 LINE",
"142 0 LINE"
);
}
);
width = 950;
},
{
anchors = (
{
name = top;
position = "{542, 583}";
}
);
background = {
anchors = (
{
name = top;
position = "{540, 583}";
}
);
paths = (
{
closed = 1;
nodes = (
"319 0 LINE",
"524 382 LINE",
"500 382 LINE",
"586 0 LINE",
"705 0 LINE",
"936 500 LINE",
"999 500 LINE",
"1010 583 LINE",
"766 583 LINE",
"755 500 LINE",
"823 500 LINE",
"643 100 LINE",
"665 100 LINE",
"578 533 LINE",
"484 533 LINE",
"260 100 LINE",
"281 100 LINE",
"236 500 LINE",
"304 500 LINE",
"315 583 LINE",
"70 583 LINE",
"59 500 LINE",
"121 500 LINE",
"190 0 LINE"
);
}
);
};
layerId = "14AB8F11-4722-4116-93B5-2CBF67C8CE3C";
paths = (
{
closed = 1;
nodes = (
"319 0 LINE",
"517 382 LINE",
"502 382 LINE",
"586 0 LINE",
"705 0 LINE",
"934 500 LINE",
"997 500 LINE",
"1010 583 LINE",
"766 583 LINE",
"753 500 LINE",
"821 500 LINE",
"643 100 LINE",
"667 100 LINE",
"579 533 LINE",
"483 533 LINE",
"260 100 LINE",
"286 100 LINE",
"237 500 LINE",
"305 500 LINE",
"318 583 LINE",
"72 583 LINE",
"59 500 LINE",
"122 500 LINE",
"190 0 LINE"
);
}
);
width = 960;
}
);
leftKerningGroup = V;
rightKerningGroup = V;
rightMetricsKey = "=|";
unicode = 0057;
userData = {
com.typemytype.robofont.layerData = {
b = {
anchors = (
);
components = (
);
contours = (
);
lib = {
};
name = W;
unicodes = (
);
width = 1962;
};
};
org.robofab.postScriptHintData = {
};
};
},
{
color = 3;
glyphname = X;
layers = (
{
background = {
paths = (
{
closed = 1;
nodes = (
"170 0 LINE",
"173 22 LINE",
"93 22 LINE",
"526 561 LINE",
"601 561 LINE",
"604 583 LINE",
"417 583 LINE",
"414 561 LINE",
"494 561 LINE",
"61 22 LINE",
"-14 22 LINE",
"-17 0 LINE"
);
},
{
closed = 1;
nodes = (
"422 22 LINE",
"342 22 LINE",
"339 0 LINE",
"523 0 LINE",
"526 22 LINE",
"451 22 LINE",
"188 561 LINE",
"268 561 LINE",
"271 583 LINE",
"87 583 LINE",
"84 561 LINE",
"159 561 LINE"
);
}
);
};
guideLines = (
{
angle = 122.8479;
position = "{290, 292}";
},
{
angle = 122.8479;
position = "{318, 292}";
},
{
angle = 57.1521;
position = "{279, 292}";
},
{
angle = 237.1521;
position = "{309, 292}";
}
);
layerId = "98C086B7-81AA-4491-8494-0C6A76849168";
paths = (
{
closed = 1;
nodes = (
"170 0 LINE",
"173 22 LINE",
"93 22 LINE",
"306 288 LINE",
"294 284 LINE",
"422 22 LINE",
"342 22 LINE",
"339 0 LINE",
"523 0 LINE",
"526 22 LINE",
"451 22 LINE",
"312 307 LINE",
"309 289 LINE",
"526 561 LINE",
"601 561 LINE",
"604 583 LINE",
"417 583 LINE",
"414 561 LINE",
"494 561 LINE",
"294 310 LINE",
"308 315 LINE",
"188 561 LINE",
"268 561 LINE",
"271 583 LINE",
"87 583 LINE",
"84 561 LINE",
"159 561 LINE",
"289 296 LINE",
"291 309 LINE",
"61 22 LINE",
"-14 22 LINE",
"-17 0 LINE"
);
}
);
width = 596;
},
{
background = {
paths = (
{
closed = 1;
nodes = (
"322 227 LINE",
"407 120 LINE",
"362 120 LINE",
"343 0 LINE",
"676 0 LINE",
"695 120 LINE",
"655 120 LINE",
"500 304 LINE",
"449 341 LINE",
"348 463 LINE",
"393 463 LINE",
"412 583 LINE",
"79 583 LINE",
"60 463 LINE",
"100 463 LINE",
"258 279 LINE"
);
},
{
closed = 1;
nodes = (
"269 0 LINE",
"288 120 LINE",
"243 120 LINE",
"385 271 LINE",
"468 228 LINE",
"699 463 LINE",
"739 463 LINE",
"758 583 LINE",
"465 583 LINE",
"446 463 LINE",
"491 463 LINE",
"349 312 LINE",
"266 355 LINE",
"34 120 LINE",
"-6 120 LINE",
"-25 0 LINE"
);
}
);
};
guideLines = (
{
angle = 135.1617;
position = "{467, 292}";
},
{
angle = 135.1666;
position = "{249, 292}";
}
);
layerId = "EFCDB4D9-E20B-4A8D-9DB5-150AD166B0AE";
paths = (
{
closed = 1;
nodes = (
"273 0 LINE",
"292 120 LINE",
"247 120 LINE",
"387 271 LINE",
"324 227 LINE",
"411 120 LINE",
"366 120 LINE",
"347 0 LINE",
"676 0 LINE",
"695 120 LINE",
"655 120 LINE",
"502 304 LINE",
"470 228 LINE",
"699 463 LINE",
"739 463 LINE",
"758 583 LINE",
"461 583 LINE",
"442 463 LINE",
"487 463 LINE",
"347 312 LINE",
"447 341 LINE",
"344 463 LINE",
"389 463 LINE",
"408 583 LINE",
"79 583 LINE",
"60 463 LINE",
"100 463 LINE",
"260 279 LINE",
"264 355 LINE",
"34 120 LINE",
"-6 120 LINE",
"-25 0 LINE"
);
}
);
width = 715;
},
{
background = {
paths = (
{
closed = 1;
nodes = (
"226 0 LINE",
"239 83 LINE",
"176 83 LINE",
"325 254 LINE",
"307 253 LINE",
"423 83 LINE",
"360 83 LINE",
"347 0 LINE",
"604 0 LINE",
"617 83 LINE",
"559 83 LINE",
"417 291 LINE",
"396 246 LINE",
"619 500 LINE",
"677 500 LINE",
"690 583 LINE",
"447 583 LINE",
"434 500 LINE",
"497 500 LINE",
"331 306 LINE",
"382 341 LINE",
"272 500 LINE",
"335 500 LINE",
"348 583 LINE",
"91 583 LINE",
"78 500 LINE",
"136 500 LINE",
"273 302 LINE",
"284 343 LINE",
"54 83 LINE",
"-4 83 LINE",
"-17 0 LINE"
);
}
);
};
guideLines = (
{
angle = 124.5377;
position = "{280, 292}";
},
{
angle = 124.5377;
position = "{416, 292}";
},
{
angle = 43.2683;
position = "{276, 292}";
},
{
angle = 43.2683;
position = "{398, 292}";
}
);
layerId = "14AB8F11-4722-4116-93B5-2CBF67C8CE3C";
paths = (
{
closed = 1;
nodes = (
"226 0 LINE",
"239 83 LINE",
"176 83 LINE",
"334 243 LINE",
"307 253 LINE",
"423 83 LINE",
"360 83 LINE",
"347 0 LINE",
"604 0 LINE",
"617 83 LINE",
"559 83 LINE",
"399 318 LINE",
"388 273 LINE",
"619 500 LINE",
"677 500 LINE",
"690 583 LINE",
"447 583 LINE",
"434 500 LINE",
"497 500 LINE",
"345 348 LINE",
"382 341 LINE",
"272 500 LINE",
"335 500 LINE",
"348 583 LINE",
"91 583 LINE",
"78 500 LINE",
"136 500 LINE",
"287 281 LINE",
"297 322 LINE",
"54 83 LINE",
"-4 83 LINE",
"-17 0 LINE"
);
}
);
width = 656;
}
);
leftKerningGroup = X;
rightKerningGroup = X;
unicode = 0058;
userData = {
com.typemytype.robofont.layerData = {
b = {
anchors = (
);
components = (
);
contours = (
);
lib = {
};
name = X;
unicodes = (
);
width = 1293;
};
};
org.robofab.postScriptHintData = {
};
};
},
{
color = 3;
glyphname = Y;
layers = (
{
anchors = (
{
name = bottom;
position = "{268, 0}";
},
{
name = top;
position = "{358, 583}";
}
);
background = {
paths = (
{
closed = 1;
nodes = (
"378 0 LINE",
"381 22 LINE",
"286 22 LINE",
"322 247 LINE",
"581 561 LINE",
"656 561 LINE",
"659 583 LINE",
"471 583 LINE",
"468 561 LINE",
"548 561 LINE",
"301 260 LINE",
"316 260 LINE",
"163 561 LINE",
"243 561 LINE",
"246 583 LINE",
"61 583 LINE",
"58 561 LINE",
"133 561 LINE",
"292 247 LINE",
"256 22 LINE",
"161 22 LINE",
"158 0 LINE"
);
}
);
};
layerId = "98C086B7-81AA-4491-8494-0C6A76849168";
paths = (
{
closed = 1;
nodes = (
"378 0 LINE",
"381 22 LINE",
"286 22 LINE",
"322 247 LINE",
"581 561 LINE",
"656 561 LINE",
"659 583 LINE",
"471 583 LINE",
"468 561 LINE",
"548 561 LINE",
"301 260 LINE",
"316 261 LINE",
"163 561 LINE",
"243 561 LINE",
"246 583 LINE",
"61 583 LINE",
"58 561 LINE",
"133 561 LINE",
"292 249 LINE",
"256 22 LINE",
"161 22 LINE",
"158 0 LINE"
);
}
);
width = 598;
},
{
anchors = (
{
name = bottom;
position = "{302, 0}";
},
{
name = top;
position = "{389, 583}";
}
);
background = {
paths = (
{
closed = 1;
nodes = (
"462 0 LINE",
"481 120 LINE",
"421 120 LINE",
"436 217 LINE",
"659 463 LINE",
"709 463 LINE",
"728 583 LINE",
"420 583 LINE",
"401 463 LINE",
"460 463 LINE",
"322 307 LINE",
"377 307 LINE",
"288 463 LINE",
"347 463 LINE",
"366 583 LINE",
"60 583 LINE",
"41 463 LINE",
"91 463 LINE",
"236 217 LINE",
"221 120 LINE",
"161 120 LINE",
"142 0 LINE"
);
}
);
};
layerId = "EFCDB4D9-E20B-4A8D-9DB5-150AD166B0AE";
paths = (
{
closed = 1;
nodes = (
"462 0 LINE",
"481 120 LINE",
"421 120 LINE",
"436 217 LINE",
"659 463 LINE",
"709 463 LINE",
"728 583 LINE",
"420 583 LINE",
"401 463 LINE",
"460 463 LINE",
"322 307 LINE",
"378 310 LINE",
"288 463 LINE",
"347 463 LINE",
"366 583 LINE",
"60 583 LINE",
"41 463 LINE",
"91 463 LINE",
"237 220 LINE",
"221 120 LINE",
"161 120 LINE",
"142 0 LINE"
);
}
);
width = 668;
},
{
anchors = (
{
name = bottom;
position = "{283, 0}";
},
{
name = top;
position = "{372, 583}";
}
);
background = {
anchors = (
{
name = bottom;
position = "{283, 0}";
},
{
name = top;
position = "{372, 583}";
}
);
paths = (
{
closed = 1;
nodes = (
"418 0 LINE",
"429 83 LINE",
"352 83 LINE",
"377 228 LINE",
"618 500 LINE",
"681 500 LINE",
"692 583 LINE",
"444 583 LINE",
"433 500 LINE",
"502 500 LINE",
"310 289 LINE",
"345 292 LINE",
"224 500 LINE",
"293 500 LINE",
"304 583 LINE",
"59 583 LINE",
"48 500 LINE",
"110 500 LINE",
"263 231 LINE",
"237 83 LINE",
"159 83 LINE",
"148 0 LINE"
);
}
);
};
layerId = "14AB8F11-4722-4116-93B5-2CBF67C8CE3C";
paths = (
{
closed = 1;
nodes = (
"418 0 LINE",
"431 83 LINE",
"354 83 LINE",
"377 228 LINE",
"617 500 LINE",
"680 500 LINE",
"693 583 LINE",
"444 583 LINE",
"431 500 LINE",
"501 500 LINE",
"314 289 LINE",
"341 292 LINE",
"225 500 LINE",
"295 500 LINE",
"308 583 LINE",
"61 583 LINE",
"48 500 LINE",
"111 500 LINE",
"262 231 LINE",
"239 83 LINE",
"161 83 LINE",
"148 0 LINE"
);
}
);
width = 632;
}
);
leftKerningGroup = Y;
rightKerningGroup = Y;
rightMetricsKey = "=|";
unicode = 0059;
userData = {
com.typemytype.robofont.layerData = {
b = {
anchors = (
);
components = (
);
contours = (
);
lib = {
};
name = Y;
unicodes = (
);
width = 1254;
};
};
org.robofab.postScriptHintData = {
};
};
},
{
color = 3;
glyphname = Z;
layers = (
{
anchors = (
{
name = bottom;
position = "{276, 0}";
},
{
name = top;
position = "{369, 583}";
}
);
background = {
anchors = (
{
name = bottom;
position = "{276, 0}";
},
{
name = top;
position = "{369, 583}";
}
);
paths = (
{
closed = 1;
nodes = (
"507 0 LINE",
"539 200 LINE",
"513 200 LINE",
"484 22 LINE",
"85 22 LINE",
"583 563 LINE",
"586 583 LINE",
"151 583 LINE",
"123 403 LINE",
"149 403 LINE",
"174 561 LINE",
"546 561 LINE",
"48 20 LINE",
"45 0 LINE"
);
}
);
};
layerId = "98C086B7-81AA-4491-8494-0C6A76849168";
paths = (
{
closed = 1;
nodes = (
"507 0 LINE",
"539 200 LINE",
"513 200 LINE",
"484 22 LINE",
"87 22 LINE",
"583 563 LINE",
"586 583 LINE",
"151 583 LINE",
"123 403 LINE",
"149 403 LINE",
"174 561 LINE",
"544 561 LINE",
"48 20 LINE",
"45 0 LINE"
);
}
);
width = 591;
},
{
anchors = (
{
name = bottom;
position = "{268, 0}";
},
{
name = top;
position = "{354, 583}";
}
);
background = {
paths = (
{
closed = 1;
nodes = (
"537 0 LINE",
"578 260 LINE",
"448 260 LINE",
"426 120 LINE",
"267 120 LINE",
"595 493 LINE",
"609 583 LINE",
"98 583 LINE",
"60 343 LINE",
"190 343 LINE",
"209 463 LINE",
"340 463 LINE",
"12 90 LINE",
"-2 0 LINE"
);
}
);
};
layerId = "EFCDB4D9-E20B-4A8D-9DB5-150AD166B0AE";
paths = (
{
closed = 1;
nodes = (
"537 0 LINE",
"578 260 LINE",
"448 260 LINE",
"426 120 LINE",
"271 120 LINE",
"595 493 LINE",
"609 583 LINE",
"98 583 LINE",
"60 343 LINE",
"190 343 LINE",
"209 463 LINE",
"336 463 LINE",
"12 90 LINE",
"-2 0 LINE"
);
}
);
width = 593;
},
{
anchors = (
{
name = bottom;
position = "{272, 0}";
},
{
name = top;
position = "{362, 583}";
}
);
background = {
anchors = (
{
name = bottom;
position = "{272, 0}";
},
{
name = top;
position = "{362, 583}";
}
);
paths = (
{
closed = 1;
nodes = (
"522 0 LINE",
"559 238 LINE",
"481 238 LINE",
"455 83 LINE",
"179 83 LINE",
"589 519 LINE",
"598 583 LINE",
"125 583 LINE",
"92 366 LINE",
"170 366 LINE",
"192 500 LINE",
"440 500 LINE",
"30 64 LINE",
"22 0 LINE"
);
}
);
};
layerId = "14AB8F11-4722-4116-93B5-2CBF67C8CE3C";
paths = (
{
closed = 1;
nodes = (
"521 0 LINE",
"559 238 LINE",
"478 238 LINE",
"453 83 LINE",
"194 83 LINE",
"589 519 LINE",
"598 583 LINE",
"125 583 LINE",
"91 366 LINE",
"172 366 LINE",
"193 500 LINE",
"425 500 LINE",
"30 64 LINE",
"20 0 LINE"
);
}
);
width = 592;
}
);
leftKerningGroup = Z;
rightKerningGroup = Z;
unicode = 005A;
userData = {
com.typemytype.robofont.layerData = {
b = {
anchors = (
);
components = (
);
contours = (
);
lib = {
};
name = Z;
unicodes = (
);
width = 1241;
};
};
org.robofab.postScriptHintData = {
};
};
},
{
color = 3;
glyphname = a;
layers = (
{
anchors = (
{
name = bottom;
position = "{226, 0}";
},
{
name = ogonek;
position = "{423, 0}";
},
{
name = top;
position = "{289, 393}";
}
);
background = {
paths = (
{
closed = 1;
nodes = (
"273 -10 OFFCURVE",
"339 32 OFFCURVE",
"376 99 CURVE",
"374 105 LINE",
"369 75 LINE SMOOTH",
"361 25 OFFCURVE",
"375 0 OFFCURVE",
"427 0 CURVE SMOOTH",
"461 0 LINE",
"465 22 LINE",
"432 22 LINE SMOOTH",
"397 22 OFFCURVE",
"391 32 OFFCURVE",
"398 75 CURVE SMOOTH",
"450 403 LINE",
"421 403 LINE",
"411 343 LINE",
"416 345 LINE",
"389 375 OFFCURVE",
"333 403 OFFCURVE",
"263 403 CURVE SMOOTH",
"111 403 OFFCURVE",
"45 283 OFFCURVE",
"45 154 CURVE SMOOTH",
"45 54 OFFCURVE",
"103 -10 OFFCURVE",
"199 -10 CURVE SMOOTH"
);
},
{
closed = 1;
nodes = (
"120 13 OFFCURVE",
"74 65 OFFCURVE",
"74 156 CURVE SMOOTH",
"74 270 OFFCURVE",
"130 380 OFFCURVE",
"264 380 CURVE SMOOTH",
"331 380 OFFCURVE",
"383 356 OFFCURVE",
"411 324 CURVE",
"410 336 LINE",
"377 125 LINE",
"382 141 LINE",
"341 58 OFFCURVE",
"271 13 OFFCURVE",
"203 13 CURVE SMOOTH"
);
}
);
};
guideLines = (
{
angle = 81;
position = "{405, 303}";
},
{
angle = 81;
position = "{435, 303}";
}
);
layerId = "98C086B7-81AA-4491-8494-0C6A76849168";
paths = (
{
closed = 1;
nodes = (
"273 -10 OFFCURVE",
"339 32 OFFCURVE",
"376 99 CURVE",
"374 105 LINE",
"369 75 LINE SMOOTH",
"361 25 OFFCURVE",
"375 0 OFFCURVE",
"427 0 CURVE SMOOTH",
"461 0 LINE",
"465 22 LINE",
"432 22 LINE SMOOTH",
"397 22 OFFCURVE",
"391 32 OFFCURVE",
"398 75 CURVE SMOOTH",
"448 393 LINE",
"419 393 LINE",
"411 343 LINE",
"416 345 LINE",
"389 375 OFFCURVE",
"333 403 OFFCURVE",
"263 403 CURVE SMOOTH",
"111 403 OFFCURVE",
"45 283 OFFCURVE",
"45 154 CURVE SMOOTH",
"45 54 OFFCURVE",
"103 -10 OFFCURVE",
"199 -10 CURVE SMOOTH"
);
},
{
closed = 1;
nodes = (
"120 13 OFFCURVE",
"74 65 OFFCURVE",
"74 156 CURVE SMOOTH",
"74 270 OFFCURVE",
"130 380 OFFCURVE",
"264 380 CURVE SMOOTH",
"331 380 OFFCURVE",
"383 356 OFFCURVE",
"411 324 CURVE",
"410 336 LINE",
"377 125 LINE",
"382 141 LINE",
"341 58 OFFCURVE",
"271 13 OFFCURVE",
"203 13 CURVE SMOOTH"
);
}
);
width = 512;
},
{
anchors = (
{
name = bottom;
position = "{246, 0}";
},
{
name = ogonek;
position = "{437, 0}";
},
{
name = top;
position = "{308, 403}";
}
);
background = {
paths = (
{
closed = 1;
nodes = (
"229 -10 OFFCURVE",
"289 15 OFFCURVE",
"326 99 CURVE",
"304 134 LINE",
"302 120 LINE SMOOTH",
"292 53 OFFCURVE",
"331 0 OFFCURVE",
"426 0 CURVE SMOOTH",
"504 0 LINE",
"521 110 LINE",
"505 110 LINE SMOOTH",
"487 110 OFFCURVE",
"477 119 OFFCURVE",
"481 145 CURVE SMOOTH",
"524 413 LINE",
"348 413 LINE",
"335 332 LINE",
"355 357 LINE",
"331 393 OFFCURVE",
"283 413 OFFCURVE",
"231 413 CURVE SMOOTH",
"85 413 OFFCURVE",
"19 299 OFFCURVE",
"19 166 CURVE SMOOTH",
"19 73 OFFCURVE",
"70 -10 OFFCURVE",
"178 -10 CURVE SMOOTH"
);
},
{
closed = 1;
nodes = (
"207 120 OFFCURVE",
"189 141 OFFCURVE",
"189 179 CURVE SMOOTH",
"189 244 OFFCURVE",
"222 283 OFFCURVE",
"275 283 CURVE SMOOTH",
"289 283 OFFCURVE",
"313 280 OFFCURVE",
"328 270 CURVE",
"330 297 LINE",
"308 157 LINE",
"322 195 LINE",
"303 145 OFFCURVE",
"271 120 OFFCURVE",
"240 120 CURVE SMOOTH"
);
}
);
};
guideLines = (
{
angle = 81;
position = "{331, 303}";
}
);
layerId = "EFCDB4D9-E20B-4A8D-9DB5-150AD166B0AE";
paths = (
{
closed = 1;
nodes = (
"229 -10 OFFCURVE",
"289 15 OFFCURVE",
"326 99 CURVE",
"304 134 LINE",
"302 120 LINE SMOOTH",
"292 53 OFFCURVE",
"331 0 OFFCURVE",
"426 0 CURVE SMOOTH",
"504 0 LINE",
"521 110 LINE",
"505 110 LINE SMOOTH",
"487 110 OFFCURVE",
"477 119 OFFCURVE",
"481 145 CURVE SMOOTH",
"522 403 LINE",
"362 403 LINE",
"351 332 LINE",
"365 350 LINE",
"339 390 OFFCURVE",
"287 413 OFFCURVE",
"231 413 CURVE SMOOTH",
"85 413 OFFCURVE",
"19 299 OFFCURVE",
"19 166 CURVE SMOOTH",
"19 73 OFFCURVE",
"70 -10 OFFCURVE",
"178 -10 CURVE SMOOTH"
);
},
{
closed = 1;
nodes = (
"207 120 OFFCURVE",
"189 141 OFFCURVE",
"189 179 CURVE SMOOTH",
"189 244 OFFCURVE",
"222 283 OFFCURVE",
"275 283 CURVE SMOOTH",
"289 283 OFFCURVE",
"313 280 OFFCURVE",
"328 270 CURVE",
"330 297 LINE",
"308 157 LINE",
"322 195 LINE",
"303 145 OFFCURVE",
"271 120 OFFCURVE",
"240 120 CURVE SMOOTH"
);
}
);
width = 547;
},
{
anchors = (
{
name = bottom;
position = "{236, 0}";
},
{
name = ogonek;
position = "{430, 0}";
},
{
name = top;
position = "{299, 399}";
}
);
background = {
anchors = (
{
name = bottom;
position = "{1036, 0}";
},
{
name = ogonek;
position = "{1230, 0}";
},
{
name = top;
position = "{1099, 399}";
}
);
paths = (
{
closed = 1;
nodes = (
"1051 -10 OFFCURVE",
"1114 21 OFFCURVE",
"1151 99 CURVE",
"1139 123 LINE",
"1136 103 LINE SMOOTH",
"1127 43 OFFCURVE",
"1153 0 OFFCURVE",
"1227 0 CURVE SMOOTH",
"1283 0 LINE",
"1293 77 LINE",
"1269 77 LINE SMOOTH",
"1242 77 OFFCURVE",
"1234 86 OFFCURVE",
"1240 119 CURVE SMOOTH",
"1285 399 LINE",
"1191 399 LINE",
"1181 336 LINE",
"1191 348 LINE",
"1164 384 OFFCURVE",
"1110 409 OFFCURVE",
"1047 409 CURVE SMOOTH",
"898 409 OFFCURVE",
"832 293 OFFCURVE",
"832 162 CURVE SMOOTH",
"832 66 OFFCURVE",
"887 -10 OFFCURVE",
"989 -10 CURVE SMOOTH"
);
},
{
closed = 1;
nodes = (
"964 80 OFFCURVE",
"932 113 OFFCURVE",
"932 170 CURVE SMOOTH",
"932 254 OFFCURVE",
"976 319 OFFCURVE",
"1070 319 CURVE SMOOTH",
"1110 319 OFFCURVE",
"1148 309 OFFCURVE",
"1170 290 CURVE",
"1170 312 LINE",
"1143 145 LINE",
"1152 175 LINE",
"1122 112 OFFCURVE",
"1071 80 OFFCURVE",
"1022 80 CURVE SMOOTH"
);
},
{
closed = 1;
nodes = (
"256 -10 OFFCURVE",
"323 25 OFFCURVE",
"350 99 CURVE",
"338 123 LINE",
"335 103 LINE SMOOTH",
"326 43 OFFCURVE",
"352 0 OFFCURVE",
"426 0 CURVE SMOOTH",
"481 0 LINE",
"493 77 LINE",
"468 77 LINE SMOOTH",
"442 77 OFFCURVE",
"434 86 OFFCURVE",
"439 117 CURVE SMOOTH",
"513 583 LINE",
"344 583 LINE",
"332 506 LINE",
"399 506 LINE",
"372 336 LINE",
"385 352 LINE",
"359 387 OFFCURVE",
"310 409 OFFCURVE",
"255 409 CURVE SMOOTH",
"115 409 OFFCURVE",
"31 300 OFFCURVE",
"31 165 CURVE SMOOTH",
"31 58 OFFCURVE",
"97 -10 OFFCURVE",
"192 -10 CURVE SMOOTH"
);
},
{
closed = 1;
nodes = (
"163 80 OFFCURVE",
"130 115 OFFCURVE",
"130 172 CURVE SMOOTH",
"130 264 OFFCURVE",
"183 319 OFFCURVE",
"265 319 CURVE SMOOTH",
"306 319 OFFCURVE",
"345 309 OFFCURVE",
"369 290 CURVE",
"368 312 LINE",
"341 144 LINE",
"351 179 LINE",
"321 112 OFFCURVE",
"270 80 OFFCURVE",
"219 80 CURVE SMOOTH"
);
}
);
};
layerId = "14AB8F11-4722-4116-93B5-2CBF67C8CE3C";
paths = (
{
closed = 1;
nodes = (
"256 -10 OFFCURVE",
"323 25 OFFCURVE",
"350 99 CURVE",
"338 123 LINE",
"335 103 LINE SMOOTH",
"326 43 OFFCURVE",
"352 0 OFFCURVE",
"426 0 CURVE SMOOTH",
"481 0 LINE",
"493 77 LINE",
"468 77 LINE SMOOTH",
"442 77 OFFCURVE",
"434 86 OFFCURVE",
"439 117 CURVE SMOOTH",
"484 399 LINE",
"390 399 LINE",
"380 336 LINE",
"390 347 LINE",
"358 388 OFFCURVE",
"310 409 OFFCURVE",
"255 409 CURVE SMOOTH",
"115 409 OFFCURVE",
"31 300 OFFCURVE",
"31 165 CURVE SMOOTH",
"31 58 OFFCURVE",
"97 -10 OFFCURVE",
"192 -10 CURVE SMOOTH"
);
},
{
closed = 1;
nodes = (
"163 80 OFFCURVE",
"130 115 OFFCURVE",
"130 172 CURVE SMOOTH",
"130 264 OFFCURVE",
"183 319 OFFCURVE",
"275 319 CURVE SMOOTH",
"306 319 OFFCURVE",
"345 309 OFFCURVE",
"369 290 CURVE",
"368 312 LINE",
"341 144 LINE",
"351 179 LINE",
"321 112 OFFCURVE",
"270 80 OFFCURVE",
"219 80 CURVE SMOOTH"
);
}
);
width = 528;
}
);
leftKerningGroup = o;
leftMetricsKey = o;
rightKerningGroup = u;
rightMetricsKey = l;
unicode = 0061;
userData = {
com.typemytype.robofont.layerData = {
b = {
anchors = (
);
components = (
);
contours = (
{
points = (
{
segmentType = curve;
smooth = 1;
x = 391;
y = "-14";
},
{
smooth = 0;
x = 507;
y = "-14";
},
{
smooth = 0;
x = 593;
y = 21;
},
{
segmentType = curve;
smooth = 0;
x = 687;
y = 91;
},
{
segmentType = line;
smooth = 0;
x = 703;
y = "-1";
},
{
segmentType = line;
smooth = 0;
x = 890;
y = "-1";
},
{
segmentType = line;
smooth = 0;
x = 890;
y = 57;
},
{
segmentType = line;
smooth = 0;
x = 764;
y = 57;
},
{
segmentType = line;
smooth = 1;
x = 764;
y = 569;
},
{
smooth = 0;
x = 764;
y = 672;
},
{
smooth = 0;
x = 710;
y = 819;
},
{
segmentType = curve;
smooth = 1;
x = 461;
y = 819;
},
{
smooth = 0;
x = 332;
y = 819;
},
{
smooth = 0;
x = 226;
y = 792;
},
{
segmentType = curve;
smooth = 0;
x = 155;
y = 724;
},
{
segmentType = line;
smooth = 0;
x = 190;
y = 668;
},
{
smooth = 0;
x = 247;
y = 726;
},
{
smooth = 0;
x = 339;
y = 755;
},
{
segmentType = curve;
smooth = 1;
x = 459;
y = 755;
},
{
smooth = 0;
x = 600;
y = 755;
},
{
smooth = 0;
x = 687;
y = 706;
},
{
segmentType = curve;
smooth = 1;
x = 687;
y = 551;
},
{
segmentType = line;
smooth = 0;
x = 687;
y = 428;
},
{
smooth = 0;
x = 609;
y = 443;
},
{
smooth = 0;
x = 539;
y = 455;
},
{
segmentType = curve;
smooth = 1;
x = 465;
y = 455;
},
{
smooth = 0;
x = 295;
y = 455;
},
{
smooth = 0;
x = 117;
y = 433;
},
{
segmentType = curve;
smooth = 1;
x = 117;
y = 222;
},
{
smooth = 0;
x = 117;
y = 96;
},
{
smooth = 0;
x = 206;
y = "-14";
}
);
},
{
points = (
{
segmentType = curve;
smooth = 1;
x = 401;
y = 50;
},
{
smooth = 0;
x = 246;
y = 50;
},
{
smooth = 0;
x = 195;
y = 142;
},
{
segmentType = curve;
smooth = 1;
x = 195;
y = 220;
},
{
smooth = 0;
x = 195;
y = 390;
},
{
smooth = 0;
x = 346;
y = 393;
},
{
segmentType = curve;
smooth = 1;
x = 462;
y = 393;
},
{
smooth = 0;
x = 559;
y = 393;
},
{
smooth = 0;
x = 687;
y = 368;
},
{
segmentType = curve;
smooth = 0;
x = 687;
y = 368;
},
{
segmentType = line;
smooth = 0;
x = 687;
y = 151;
},
{
smooth = 0;
x = 606;
y = 76;
},
{
smooth = 0;
x = 511;
y = 50;
}
);
}
);
lib = {
};
name = a;
unicodes = (
);
width = 951;
};
};
org.robofab.postScriptHintData = {
};
};
},
{
color = 1;
glyphname = ae;
layers = (
{
anchors = (
{
name = top;
position = "{407, 393}";
}
);
background = {
anchors = (
{
name = top;
position = "{1507, 393}";
}
);
paths = (
{
closed = 1;
nodes = (
"1344 -10 OFFCURVE",
"1403 29 OFFCURVE",
"1462 76 CURVE",
"1457 77 LINE",
"1480 28 OFFCURVE",
"1533 -10 OFFCURVE",
"1627 -10 CURVE SMOOTH",
"1689 -10 OFFCURVE",
"1758 15 OFFCURVE",
"1812 57 CURVE",
"1799 77 LINE",
"1754 39 OFFCURVE",
"1688 13 OFFCURVE",
"1632 13 CURVE SMOOTH",
"1510 13 OFFCURVE",
"1473 85 OFFCURVE",
"1473 196 CURVE SMOOTH",
"1473 199 LINE SMOOTH",
"1473 307 OFFCURVE",
"1574 381 OFFCURVE",
"1675 381 CURVE SMOOTH",
"1775 381 OFFCURVE",
"1829 311 OFFCURVE",
"1815 210 CURVE",
"1470 210 LINE",
"1467 188 LINE",
"1840 188 LINE",
"1841 195 LINE SMOOTH",
"1859 318 OFFCURVE",
"1800 403 OFFCURVE",
"1679 403 CURVE SMOOTH",
"1588 403 OFFCURVE",
"1508 355 OFFCURVE",
"1469 269 CURVE",
"1483 269 LINE",
"1498 360 OFFCURVE",
"1456 403 OFFCURVE",
"1354 403 CURVE SMOOTH",
"1312 403 OFFCURVE",
"1257 392 OFFCURVE",
"1210 370 CURVE",
"1217 347 LINE",
"1261 370 OFFCURVE",
"1311 380 OFFCURVE",
"1352 380 CURVE SMOOTH",
"1435 380 OFFCURVE",
"1467 346 OFFCURVE",
"1456 275 CURVE SMOOTH",
"1444 199 LINE",
"1463 210 LINE",
"1314 210 LINE SMOOTH",
"1209 210 OFFCURVE",
"1156 171 OFFCURVE",
"1145 101 CURVE SMOOTH",
"1134 33 OFFCURVE",
"1176 -10 OFFCURVE",
"1265 -10 CURVE SMOOTH"
);
},
{
closed = 1;
nodes = (
"1196 12 OFFCURVE",
"1165 47 OFFCURVE",
"1174 101 CURVE SMOOTH",
"1182 155 OFFCURVE",
"1222 189 OFFCURVE",
"1309 189 CURVE SMOOTH",
"1443 189 LINE",
"1438 151 OFFCURVE",
"1441 120 OFFCURVE",
"1451 89 CURVE",
"1454 97 LINE",
"1402 49 OFFCURVE",
"1343 12 OFFCURVE",
"1269 12 CURVE SMOOTH"
);
},
{
closed = 1;
nodes = (
"600 -10 OFFCURVE",
"661 15 OFFCURVE",
"701 57 CURVE",
"685 76 LINE",
"655 39 OFFCURVE",
"597 13 OFFCURVE",
"531 13 CURVE SMOOTH",
"429 13 OFFCURVE",
"370 68 OFFCURVE",
"370 165 CURVE SMOOTH",
"370 169 LINE SMOOTH",
"370 285 OFFCURVE",
"439 380 OFFCURVE",
"563 380 CURVE SMOOTH",
"640 380 OFFCURVE",
"684 347 OFFCURVE",
"684 293 CURVE SMOOTH",
"684 234 OFFCURVE",
"643 204 OFFCURVE",
"550 195 CURVE SMOOTH",
"365 177 LINE",
"366 155 LINE",
"559 174 LINE SMOOTH",
"662 184 OFFCURVE",
"711 223 OFFCURVE",
"711 293 CURVE SMOOTH",
"711 360 OFFCURVE",
"655 403 OFFCURVE",
"562 403 CURVE SMOOTH",
"423 403 OFFCURVE",
"341 296 OFFCURVE",
"341 166 CURVE SMOOTH",
"341 57 OFFCURVE",
"412 -10 OFFCURVE",
"526 -10 CURVE SMOOTH"
);
}
);
};
layerId = "98C086B7-81AA-4491-8494-0C6A76849168";
paths = (
{
closed = 1;
nodes = (
"247 -10 OFFCURVE",
"309 29 OFFCURVE",
"364 80 CURVE",
"359 81 LINE",
"381 34 OFFCURVE",
"432 -10 OFFCURVE",
"526 -10 CURVE SMOOTH",
"600 -10 OFFCURVE",
"661 15 OFFCURVE",
"701 57 CURVE",
"685 76 LINE",
"655 39 OFFCURVE",
"597 13 OFFCURVE",
"531 13 CURVE SMOOTH",
"429 13 OFFCURVE",
"370 68 OFFCURVE",
"370 165 CURVE SMOOTH",
"370 169 LINE SMOOTH",
"370 285 OFFCURVE",
"439 380 OFFCURVE",
"563 380 CURVE SMOOTH",
"640 380 OFFCURVE",
"684 347 OFFCURVE",
"684 293 CURVE SMOOTH",
"684 234 OFFCURVE",
"643 204 OFFCURVE",
"550 195 CURVE SMOOTH",
"365 177 LINE",
"366 155 LINE",
"559 174 LINE SMOOTH",
"662 184 OFFCURVE",
"711 223 OFFCURVE",
"711 293 CURVE SMOOTH",
"711 360 OFFCURVE",
"655 403 OFFCURVE",
"562 403 CURVE SMOOTH",
"468 403 OFFCURVE",
"398 352 OFFCURVE",
"364 272 CURVE",
"378 269 LINE",
"394 364 OFFCURVE",
"340 403 OFFCURVE",
"251 403 CURVE SMOOTH",
"209 403 OFFCURVE",
"157 393 OFFCURVE",
"108 370 CURVE",
"117 347 LINE",
"161 370 OFFCURVE",
"211 380 OFFCURVE",
"252 380 CURVE SMOOTH",
"329 380 OFFCURVE",
"367 348 OFFCURVE",
"354 267 CURVE SMOOTH",
"343 199 LINE",
"363 210 LINE",
"198 210 LINE SMOOTH",
"117 210 OFFCURVE",
"44 179 OFFCURVE",
"44 89 CURVE SMOOTH",
"44 27 OFFCURVE",
"89 -10 OFFCURVE",
"171 -10 CURVE SMOOTH"
);
},
{
closed = 1;
nodes = (
"107 12 OFFCURVE",
"73 39 OFFCURVE",
"73 91 CURVE SMOOTH",
"73 161 OFFCURVE",
"128 189 OFFCURVE",
"197 189 CURVE SMOOTH",
"343 189 LINE",
"338 151 OFFCURVE",
"344 120 OFFCURVE",
"355 89 CURVE",
"354 100 LINE",
"302 50 OFFCURVE",
"245 12 OFFCURVE",
"173 12 CURVE SMOOTH"
);
}
);
width = 742;
},
{
anchors = (
{
name = top;
position = "{405, 403}";
}
);
background = {
paths = (
{
closed = 1;
nodes = (
"569 -11 OFFCURVE",
"656 13 OFFCURVE",
"696 45 CURVE",
"640 156 LINE",
"601 132 OFFCURVE",
"559 120 OFFCURVE",
"520 120 CURVE SMOOTH",
"444 120 OFFCURVE",
"423 143 OFFCURVE",
"423 189 CURVE SMOOTH",
"423 226 LINE SMOOTH",
"423 277 OFFCURVE",
"454 313 OFFCURVE",
"500 313 CURVE SMOOTH",
"531 313 OFFCURVE",
"540 299 OFFCURVE",
"540 283 CURVE SMOOTH",
"540 267 OFFCURVE",
"528 252 OFFCURVE",
"503 249 CURVE SMOOTH",
"345 231 LINE",
"345 142 LINE",
"590 175 LINE SMOOTH",
"667 185 OFFCURVE",
"700 219 OFFCURVE",
"700 281 CURVE SMOOTH",
"700 360 OFFCURVE",
"632 413 OFFCURVE",
"506 413 CURVE SMOOTH",
"345 413 OFFCURVE",
"255 320 OFFCURVE",
"255 186 CURVE SMOOTH",
"255 64 OFFCURVE",
"341 -11 OFFCURVE",
"492 -11 CURVE SMOOTH"
);
}
);
};
layerId = "EFCDB4D9-E20B-4A8D-9DB5-150AD166B0AE";
paths = (
{
closed = 1;
nodes = (
"220 -10 OFFCURVE",
"278 8 OFFCURVE",
"325 69 CURVE",
"298 68 LINE",
"333 19 OFFCURVE",
"405 -11 OFFCURVE",
"492 -11 CURVE SMOOTH",
"569 -11 OFFCURVE",
"656 13 OFFCURVE",
"696 45 CURVE",
"640 156 LINE",
"601 132 OFFCURVE",
"559 120 OFFCURVE",
"520 120 CURVE SMOOTH",
"444 120 OFFCURVE",
"423 143 OFFCURVE",
"423 189 CURVE SMOOTH",
"423 226 LINE SMOOTH",
"423 277 OFFCURVE",
"454 313 OFFCURVE",
"500 313 CURVE SMOOTH",
"531 313 OFFCURVE",
"540 299 OFFCURVE",
"540 283 CURVE SMOOTH",
"540 267 OFFCURVE",
"528 252 OFFCURVE",
"503 249 CURVE SMOOTH",
"345 231 LINE",
"345 142 LINE",
"590 175 LINE SMOOTH",
"667 185 OFFCURVE",
"700 219 OFFCURVE",
"700 281 CURVE SMOOTH",
"700 360 OFFCURVE",
"632 413 OFFCURVE",
"511 413 CURVE SMOOTH",
"428 413 OFFCURVE",
"376 389 OFFCURVE",
"336 354 CURVE",
"412 358 LINE",
"380 397 OFFCURVE",
"327 413 OFFCURVE",
"242 413 CURVE SMOOTH",
"179 413 OFFCURVE",
"98 398 OFFCURVE",
"35 365 CURVE",
"77 255 LINE",
"114 277 OFFCURVE",
"157 288 OFFCURVE",
"190 288 CURVE SMOOTH",
"243 288 OFFCURVE",
"265 267 OFFCURVE",
"260 234 CURVE SMOOTH",
"256 209 LINE",
"287 239 LINE",
"185 239 LINE SMOOTH",
"81 239 OFFCURVE",
"4 194 OFFCURVE",
"4 109 CURVE SMOOTH",
"4 42 OFFCURVE",
"54 -10 OFFCURVE",
"161 -10 CURVE SMOOTH"
);
},
{
closed = 1;
nodes = (
"187 86 OFFCURVE",
"174 99 OFFCURVE",
"174 116 CURVE SMOOTH",
"174 140 OFFCURVE",
"191 154 OFFCURVE",
"223 154 CURVE SMOOTH",
"259 154 LINE",
"262 135 OFFCURVE",
"270 114 OFFCURVE",
"275 102 CURVE",
"273 130 LINE",
"253 95 OFFCURVE",
"228 86 OFFCURVE",
"208 86 CURVE SMOOTH"
);
}
);
width = 712;
},
{
anchors = (
{
name = top;
position = "{406, 399}";
}
);
background = {
anchors = (
{
name = top;
position = "{406, 399}";
}
);
paths = (
{
closed = 1;
nodes = (
"585 -11 OFFCURVE",
"661 14 OFFCURVE",
"699 50 CURVE",
"658 123 LINE",
"629 97 OFFCURVE",
"579 74 OFFCURVE",
"518 74 CURVE SMOOTH",
"438 74 OFFCURVE",
"397 114 OFFCURVE",
"397 180 CURVE SMOOTH",
"397 196 LINE SMOOTH",
"397 269 OFFCURVE",
"446 333 OFFCURVE",
"542 333 CURVE SMOOTH",
"589 333 OFFCURVE",
"613 318 OFFCURVE",
"613 290 CURVE SMOOTH",
"613 258 OFFCURVE",
"590 243 OFFCURVE",
"534 236 CURVE SMOOTH",
"356 213 LINE",
"356 133 LINE",
"573 163 LINE SMOOTH",
"665 176 OFFCURVE",
"706 216 OFFCURVE",
"706 283 CURVE SMOOTH",
"706 355 OFFCURVE",
"656 410 OFFCURVE",
"546 410 CURVE SMOOTH",
"387 410 OFFCURVE",
"299 305 OFFCURVE",
"299 180 CURVE SMOOTH",
"299 64 OFFCURVE",
"383 -11 OFFCURVE",
"515 -11 CURVE SMOOTH"
);
}
);
};
layerId = "14AB8F11-4722-4116-93B5-2CBF67C8CE3C";
paths = (
{
closed = 1;
nodes = (
"243 -10 OFFCURVE",
"308 12 OFFCURVE",
"359 69 CURVE",
"333 73 LINE",
"361 25 OFFCURVE",
"425 -11 OFFCURVE",
"515 -11 CURVE SMOOTH",
"585 -11 OFFCURVE",
"659 14 OFFCURVE",
"699 50 CURVE",
"658 123 LINE",
"629 97 OFFCURVE",
"579 74 OFFCURVE",
"518 74 CURVE SMOOTH",
"438 74 OFFCURVE",
"397 114 OFFCURVE",
"397 180 CURVE SMOOTH",
"397 196 LINE SMOOTH",
"397 269 OFFCURVE",
"446 333 OFFCURVE",
"542 333 CURVE SMOOTH",
"589 333 OFFCURVE",
"613 318 OFFCURVE",
"613 290 CURVE SMOOTH",
"613 258 OFFCURVE",
"590 243 OFFCURVE",
"534 236 CURVE SMOOTH",
"356 213 LINE",
"356 133 LINE",
"573 163 LINE SMOOTH",
"665 176 OFFCURVE",
"706 216 OFFCURVE",
"706 283 CURVE SMOOTH",
"706 355 OFFCURVE",
"656 410 OFFCURVE",
"546 410 CURVE SMOOTH",
"457 410 OFFCURVE",
"391 375 OFFCURVE",
"354 323 CURVE",
"395 320 LINE",
"385 382 OFFCURVE",
"334 409 OFFCURVE",
"247 409 CURVE SMOOTH",
"194 409 OFFCURVE",
"128 396 OFFCURVE",
"72 367 CURVE",
"97 288 LINE",
"138 310 OFFCURVE",
"184 321 OFFCURVE",
"229 321 CURVE SMOOTH",
"286 321 OFFCURVE",
"316 297 OFFCURVE",
"308 246 CURVE SMOOTH",
"301 203 LINE",
"325 231 LINE",
"192 231 LINE SMOOTH",
"96 231 OFFCURVE",
"24 191 OFFCURVE",
"24 106 CURVE SMOOTH",
"24 39 OFFCURVE",
"76 -10 OFFCURVE",
"185 -10 CURVE SMOOTH"
);
},
{
closed = 1;
nodes = (
"148 68 OFFCURVE",
"124 83 OFFCURVE",
"124 109 CURVE SMOOTH",
"124 144 OFFCURVE",
"154 158 OFFCURVE",
"204 158 CURVE SMOOTH",
"300 158 LINE",
"302 135 OFFCURVE",
"308 116 OFFCURVE",
"315 99 CURVE",
"314 118 LINE",
"278 82 OFFCURVE",
"238 68 OFFCURVE",
"194 68 CURVE SMOOTH"
);
}
);
width = 731;
}
);
leftKerningGroup = a;
rightKerningGroup = e;
rightMetricsKey = e;
unicode = 00E6;
userData = {
com.typemytype.robofont.layerData = {
b = {
anchors = (
);
components = (
);
contours = (
);
lib = {
};
name = ae;
unicodes = (
);
width = 1657;
};
};
org.robofab.postScriptHintData = {
};
};
},
